<svg version="1.1" id="Layer_1" xmlns="http://www.w3.org/2000/svg" xmlns:xlink="http://www.w3.org/1999/xlink" x="0px" y="0px"
	 width="100%" viewBox="0 0 256 256" enable-background="new 0 0 256 256" xml:space="preserve">
<path fill="#000000" opacity="1.000000" stroke="none" 
	d="
M139.000000,257.000000 
	C92.666672,257.000000 46.833340,257.000000 1.000006,257.000000 
	C1.000004,171.666672 1.000004,86.333351 1.000002,1.000018 
	C86.333321,1.000012 171.666641,1.000012 257.000000,1.000006 
	C257.000000,86.333313 257.000000,171.666626 257.000000,256.999969 
	C217.833328,257.000000 178.666672,257.000000 139.000000,257.000000 
M101.784264,243.915588 
	C117.542633,247.001648 133.285767,247.975174 149.260971,245.083221 
	C171.005722,241.146835 190.320343,232.253662 206.782364,217.603287 
	C219.411758,206.363739 229.279297,193.045685 236.375443,177.478790 
	C243.093918,162.740372 246.064224,147.319427 246.828918,131.436996 
	C247.173157,124.287758 245.959961,117.009232 244.954941,109.859444 
	C241.869431,87.908722 232.519119,68.616402 218.249451,51.943932 
	C206.709808,38.461159 192.617767,28.040987 176.118134,20.971384 
	C153.435806,11.252678 129.897736,8.411810 105.871574,13.278276 
	C82.114990,18.090136 61.589909,29.272682 44.403938,46.888615 
	C23.879402,67.926643 13.363546,93.125969 11.119074,121.954575 
	C9.976204,136.633911 12.147094,151.136963 16.635742,165.217133 
	C22.690475,184.209869 33.174103,200.304169 47.531425,214.173111 
	C62.769096,228.892471 80.647446,238.386932 101.784264,243.915588 
z"/>
<path fill="#8DC63F" opacity="1.000000" stroke="none" 
	d="
M101.406189,243.720703 
	C80.647446,238.386932 62.769096,228.892471 47.531425,214.173111 
	C33.174103,200.304169 22.690475,184.209869 16.635742,165.217133 
	C12.147094,151.136963 9.976204,136.633911 11.119074,121.954575 
	C13.363546,93.125969 23.879402,67.926643 44.403938,46.888615 
	C61.589909,29.272682 82.114990,18.090136 105.871574,13.278276 
	C129.897736,8.411810 153.435806,11.252678 176.118134,20.971384 
	C192.617767,28.040987 206.709808,38.461159 218.249451,51.943932 
	C232.519119,68.616402 241.869431,87.908722 244.954941,109.859444 
	C245.959961,117.009232 247.173157,124.287758 246.828918,131.436996 
	C246.064224,147.319427 243.093918,162.740372 236.375443,177.478790 
	C229.279297,193.045685 219.411758,206.363739 206.782364,217.603287 
	C190.320343,232.253662 171.005722,241.146835 149.260971,245.083221 
	C133.285767,247.975174 117.542633,247.001648 101.406189,243.720703 
M139.769852,77.813667 
	C139.483536,69.196182 135.605133,64.363571 128.982941,64.372841 
	C122.191360,64.382355 118.264870,69.472618 118.233002,78.342438 
	C118.215034,83.341385 118.229340,88.340446 118.229279,93.339462 
	C118.229195,101.450912 118.229256,109.562370 118.229256,118.229050 
	C115.811958,118.229050 114.025818,118.228943 112.239677,118.229073 
	C100.575310,118.229904 88.899200,117.939285 77.253716,118.408653 
	C73.744225,118.550110 69.749184,120.086327 67.002838,122.272728 
	C63.669193,124.926682 63.416210,129.298355 65.237251,133.314590 
	C67.343102,137.958954 71.308228,139.737671 76.178841,139.751236 
	C88.343018,139.785126 100.507347,139.757202 112.671562,139.783142 
	C114.425758,139.786880 116.179604,139.950928 118.229111,140.055939 
	C118.229111,142.462219 118.228966,144.279205 118.229134,146.096191 
	C118.230209,157.760559 118.250954,169.424957 118.223595,181.089264 
	C118.211266,186.348206 119.893112,190.675613 125.027893,192.806931 
	C132.382446,195.859619 139.574127,190.530563 139.713196,181.735245 
	C139.905472,169.573975 139.756653,157.407455 139.783646,145.243271 
	C139.787521,143.496124 139.957535,141.749344 140.064041,139.751587 
	C154.528122,139.751587 168.352829,139.880402 182.173386,139.697052 
	C189.042267,139.605927 193.627609,135.031464 193.621262,128.986633 
	C193.614899,122.937096 189.027954,118.451149 182.155502,118.293144 
	C173.495026,118.094040 164.826752,118.233780 156.161835,118.229713 
	C150.882462,118.227242 145.603073,118.229256 139.770477,118.229256 
	C139.770477,104.646820 139.770477,91.696365 139.769852,77.813667 
z"/>
<path fill="#FCFDFA" opacity="1.000000" stroke="none" 
	d="
M139.770172,78.279785 
	C139.770477,91.696365 139.770477,104.646820 139.770477,118.229256 
	C145.603073,118.229256 150.882462,118.227242 156.161835,118.229713 
	C164.826752,118.233780 173.495026,118.094040 182.155502,118.293144 
	C189.027954,118.451149 193.614899,122.937096 193.621262,128.986633 
	C193.627609,135.031464 189.042267,139.605927 182.173386,139.697052 
	C168.352829,139.880402 154.528122,139.751587 140.064041,139.751587 
	C139.957535,141.749344 139.787521,143.496124 139.783646,145.243271 
	C139.756653,157.407455 139.905472,169.573975 139.713196,181.735245 
	C139.574127,190.530563 132.382446,195.859619 125.027893,192.806931 
	C119.893112,190.675613 118.211266,186.348206 118.223595,181.089264 
	C118.250954,169.424957 118.230209,157.760559 118.229134,146.096191 
	C118.228966,144.279205 118.229111,142.462219 118.229111,140.055939 
	C116.179604,139.950928 114.425758,139.786880 112.671562,139.783142 
	C100.507347,139.757202 88.343018,139.785126 76.178841,139.751236 
	C71.308228,139.737671 67.343102,137.958954 65.237251,133.314590 
	C63.416210,129.298355 63.669193,124.926682 67.002838,122.272728 
	C69.749184,120.086327 73.744225,118.550110 77.253716,118.408653 
	C88.899200,117.939285 100.575310,118.229904 112.239677,118.229073 
	C114.025818,118.228943 115.811958,118.229050 118.229256,118.229050 
	C118.229256,109.562370 118.229195,101.450912 118.229279,93.339462 
	C118.229340,88.340446 118.215034,83.341385 118.233002,78.342438 
	C118.264870,69.472618 122.191360,64.382355 128.982941,64.372841 
	C135.605133,64.363571 139.483536,69.196182 139.770172,78.279785 
z"/>
</svg>