<svg version="1.1" id="Layer_1" xmlns="http://www.w3.org/2000/svg" xmlns:xlink="http://www.w3.org/1999/xlink" x="0px" y="0px"
	 width="100%" viewBox="0 0 255 255" enable-background="new 0 0 255 255" xml:space="preserve">
<path fill="#000000" opacity="1.000000" stroke="none" 
	d="
M124.000000,256.000000 
	C82.666672,256.000000 41.833340,256.000000 1.000005,256.000000 
	C1.000004,171.000000 1.000004,86.000015 1.000002,1.000017 
	C85.999992,1.000011 170.999985,1.000011 255.999969,1.000006 
	C255.999985,85.999985 255.999985,170.999969 256.000000,255.999969 
	C212.166672,256.000000 168.333328,256.000000 124.000000,256.000000 
M180.441803,153.852707 
	C180.529312,153.730469 180.709091,153.519348 180.690140,153.499649 
	C180.489365,153.291260 180.256989,153.113312 180.231857,152.296280 
	C180.157593,147.980865 176.772247,150.853790 174.958221,149.470093 
	C174.879379,149.321335 174.800522,149.172562 174.782593,148.256500 
	C174.765472,147.487564 174.748352,146.718613 174.802475,145.496628 
	C174.659149,145.187607 174.417450,145.022766 173.895782,144.541565 
	C173.895782,144.541565 173.709915,144.082703 173.692001,143.466583 
	C173.135086,142.650513 172.578171,141.834457 171.723373,140.369446 
	C165.750839,135.260239 158.723465,135.528976 153.398468,141.372833 
	C152.369019,142.971069 151.339554,144.569290 150.241943,146.273361 
	C150.775650,147.102814 151.389450,148.056702 151.508209,149.089706 
	C151.345474,149.127609 151.182724,149.165512 150.089615,149.018204 
	C137.788788,149.011276 125.487968,149.004349 113.087120,148.311996 
	C112.753746,146.524155 112.420380,144.736313 111.903275,142.273788 
	C110.818871,141.111420 109.810997,139.864441 108.636398,138.801788 
	C104.268585,134.850235 95.651711,136.619980 92.320381,142.349289 
	C91.620163,144.125381 90.919952,145.901489 90.220222,147.663498 
	C86.811417,147.367462 83.402603,147.071442 79.496025,146.429779 
	C78.404640,146.134659 77.313255,145.839554 76.221870,145.544449 
	C77.359833,144.259155 78.497803,142.973862 80.446037,140.773392 
	C81.149155,139.036682 68.496346,137.729874 79.715088,134.180222 
	C82.139343,134.401642 84.563606,134.623077 87.762062,134.971909 
	C89.711708,134.251221 91.953842,133.883652 93.464203,132.632599 
	C94.052292,132.145493 93.187622,128.389511 92.648811,128.306641 
	C89.526390,127.826500 86.303772,127.998016 83.115356,127.883499 
	C83.115356,127.883499 83.050087,127.877731 82.937950,127.401802 
	C82.750839,127.094734 82.477478,126.942177 81.989723,126.278648 
	C82.024872,125.828674 82.060028,125.378693 82.794281,124.608292 
	C84.855469,124.331665 86.916664,124.055038 89.720253,123.881416 
	C90.466850,123.847198 91.213455,123.812981 92.461014,123.872810 
	C92.634972,123.603966 92.808922,123.335121 93.066231,123.062843 
	C93.066231,123.062843 93.066170,122.979431 93.716988,122.741753 
	C93.554771,121.872803 93.447968,120.266991 93.221687,120.249977 
	C91.173981,120.095993 89.105377,120.219925 86.349518,120.066139 
	C86.573051,118.654198 86.796585,117.242264 87.939865,115.971069 
	C92.606850,115.934364 97.273834,115.897659 102.745453,116.001358 
	C104.844444,115.594482 106.943428,115.187614 109.775742,114.835754 
	C110.508316,114.781364 111.240898,114.726974 112.888374,114.880287 
	C117.290581,114.789040 121.692787,114.697792 126.896942,114.727837 
	C128.247025,114.736008 129.597107,114.744179 131.718872,114.991074 
	C134.819824,115.640198 137.920761,116.289314 140.995468,116.990028 
	C140.995468,116.990028 141.049393,116.969002 141.248718,117.569092 
	C141.847107,117.637260 142.445480,117.705429 143.515610,117.898041 
	C143.515610,117.898041 143.991943,118.003517 144.285263,118.611198 
	C145.516998,119.085327 146.748734,119.559456 148.002151,120.001846 
	C148.002151,120.001846 147.973969,120.025764 148.188004,120.631119 
	C149.110123,121.079117 150.032242,121.527115 150.949066,122.045853 
	C150.949066,122.045853 151.019562,122.053688 151.105759,122.555862 
	C151.400085,122.632332 151.694412,122.708801 152.498169,122.915665 
	C152.662598,122.976425 152.827026,123.037186 153.094330,123.574440 
	C153.285812,123.889702 153.564789,124.025421 153.945328,124.064758 
	C153.945328,124.064758 154.028946,124.053787 154.368774,124.686234 
	C156.433472,125.450249 158.480606,126.266434 160.566193,126.968407 
	C166.587570,128.995132 172.624466,130.975861 177.795746,132.908691 
	C176.207962,133.267578 174.620178,133.626480 173.032394,133.985367 
	C172.935928,134.518280 172.839478,135.051193 172.743011,135.584106 
	C174.744263,136.710693 176.890274,137.645996 178.704742,139.019363 
	C180.411423,140.311157 181.768250,142.065155 184.147232,144.506958 
	C184.397354,140.468094 184.628632,136.733704 185.179733,132.324265 
	C185.070557,130.217102 184.961380,128.109924 184.941895,125.176598 
	C184.256027,121.074348 183.570160,116.972107 182.654312,112.203209 
	C178.811691,106.111107 174.969070,100.018997 170.903366,93.362457 
	C170.283020,92.860184 169.662674,92.357910 168.885803,91.386444 
	C168.677307,91.108116 168.402206,90.936562 168.051590,90.941742 
	C168.051590,90.941742 168.120972,90.929222 167.845215,90.335594 
	C166.923660,89.851723 166.002121,89.367851 165.033127,88.963936 
	C165.033127,88.963936 165.113907,88.917908 164.798157,88.283188 
	C158.114868,80.914261 148.786621,78.263931 139.918304,75.363770 
	C134.832184,73.700485 128.855347,74.119881 123.356232,74.560112 
	C118.829514,74.922485 114.415802,76.696358 109.173805,77.945137 
	C106.426712,79.275032 103.679626,80.604927 100.987633,81.962967 
	C100.987633,81.962967 100.970703,81.903290 100.244202,81.991936 
	C98.470779,82.980331 96.697357,83.968735 94.313095,85.202942 
	C92.518837,87.123260 90.724571,89.043579 88.320534,91.210548 
	C86.604019,93.128487 84.887505,95.046417 82.876122,97.596725 
	C77.807770,102.647202 74.807014,108.706970 73.179199,115.981255 
	C71.266861,116.738419 69.354530,117.495590 67.442200,118.252762 
	C68.970505,119.217751 70.498810,120.182739 72.019051,121.822044 
	C71.739021,122.866821 71.459000,123.911606 71.032280,125.675598 
	C70.994804,126.407349 70.957336,127.139099 70.012299,128.031525 
	C65.771187,128.031525 61.530083,128.031525 57.444386,128.031525 
	C56.644588,131.819702 57.912865,133.048569 60.972694,132.976303 
	C64.288406,132.897995 67.610046,133.070526 70.998085,133.954330 
	C71.356361,136.979904 71.714638,140.005493 71.313324,142.796021 
	C69.089508,142.809616 66.843811,142.676208 64.666229,143.000381 
	C64.351189,143.047287 63.804390,145.991760 64.316772,146.399689 
	C67.080162,148.599731 71.488602,146.492142 72.662659,143.297180 
	C74.794411,148.130463 76.926163,152.963730 79.662994,158.172821 
	C80.778740,160.079376 81.894485,161.985931 82.987740,164.004456 
	C82.987740,164.004456 83.098022,164.034149 83.179268,164.488602 
	C83.347076,164.782104 83.599800,164.938126 83.934891,165.057999 
	C83.934891,165.057999 84.036095,165.063782 84.057449,165.740738 
	C85.024300,166.514008 85.991150,167.287277 87.001450,168.014786 
	C87.001450,168.014786 86.940041,168.029144 87.101662,168.534454 
	C87.382797,168.738892 87.663925,168.943329 88.269493,169.739456 
	C89.998650,171.417953 91.560226,173.324036 93.482880,174.739746 
	C112.650909,188.853760 137.537094,191.866821 158.615692,177.893387 
	C166.150391,174.514221 171.137711,168.405930 175.929993,161.505859 
	C175.929993,161.505859 175.974197,161.077408 176.460587,160.859299 
	C176.666946,160.576950 176.873291,160.294601 177.665573,159.708740 
	C178.109329,158.482758 178.553070,157.256775 179.023331,156.021317 
	C179.023331,156.021317 179.036041,155.998734 179.589005,155.758179 
	C179.718719,155.181396 179.848434,154.604614 180.017197,154.027847 
	C180.017197,154.027847 180.011627,153.989197 180.441803,153.852707 
M122.105141,138.858093 
	C126.889122,145.377274 138.342484,148.899643 145.400986,145.727585 
	C138.451263,142.850998 130.094498,144.465668 124.731812,137.392654 
	C123.164169,133.238693 121.596535,129.084717 119.923363,124.297379 
	C119.886307,123.871140 119.849251,123.444908 119.992477,122.246681 
	C119.655533,120.841721 119.318581,119.436760 118.434357,117.431664 
	C111.714943,116.720535 105.275475,116.794724 100.491798,124.930344 
	C104.993965,125.654129 108.985550,126.417755 113.011047,126.895714 
	C115.301903,127.167702 117.851585,126.613266 118.335754,130.653549 
	C119.573624,133.161560 120.811485,135.669571 122.105141,138.858093 
M150.400482,125.001900 
	C141.615662,119.354233 132.084045,116.602280 121.421227,117.207191 
	C122.089966,121.028763 122.692543,124.472229 123.235184,127.573158 
	C133.636002,128.093170 143.263779,128.574524 152.891556,129.055893 
	C153.061584,128.637939 153.231613,128.220001 153.401642,127.802063 
	C152.580215,127.031815 151.758774,126.261566 150.400482,125.001900 
z"/>
<path fill="#082AC0" opacity="1.000000" stroke="none" 
	d="
M157.906631,178.088409 
	C137.537094,191.866821 112.650909,188.853760 93.482880,174.739746 
	C91.560226,173.324036 89.998650,171.417953 87.979660,169.223846 
	C87.439888,168.481888 87.189964,168.255524 86.940041,168.029144 
	C86.940041,168.029144 87.001450,168.014786 86.910812,167.730270 
	C85.892151,166.651764 84.964119,165.857773 84.036095,165.063782 
	C84.036095,165.063782 83.934891,165.057999 83.837219,164.819687 
	C83.571320,164.345505 83.357475,164.163101 83.098022,164.034149 
	C83.098022,164.034149 82.987740,164.004456 82.996536,163.570145 
	C82.823288,161.709076 82.641251,160.282318 82.349068,157.992325 
	C92.870583,157.992325 102.930885,157.992325 113.423248,157.995789 
	C115.590446,158.012283 117.325577,158.025314 119.332001,158.256897 
	C129.360580,163.074631 139.168259,167.571350 148.846619,172.331070 
	C152.038452,173.900787 154.896149,176.149933 157.906631,178.088409 
z"/>
<path fill="#2864F4" opacity="1.000000" stroke="none" 
	d="
M101.940819,115.860962 
	C97.273834,115.897659 92.606850,115.934364 87.500481,115.529518 
	C88.065193,110.177361 89.069290,105.266754 90.052673,100.235107 
	C90.031975,100.114059 90.274544,100.075516 90.448776,99.956917 
	C90.832932,99.639603 90.976044,99.400848 91.047440,99.086960 
	C91.042511,99.051865 91.113319,99.048843 91.310196,98.929047 
	C91.752937,98.610611 91.928886,98.362411 92.021729,98.035385 
	C92.008537,98.006126 92.066650,98.033386 92.270401,97.910728 
	C92.724121,97.579628 92.904762,97.322487 93.008041,97.008316 
	C93.000000,97.000000 93.015450,97.016884 93.222168,96.895935 
	C93.687042,96.574379 93.880249,96.323708 94.003021,96.010933 
	C93.997528,95.998886 94.020447,96.011536 94.247849,96.035378 
	C94.475243,96.059219 94.930870,96.098045 95.116425,96.362885 
	C95.555351,98.732224 95.808723,100.836723 96.141945,103.604485 
	C97.222313,103.704819 98.798508,103.968422 100.376190,103.977707 
	C107.790199,104.021370 115.209740,104.147606 122.615692,103.898865 
	C124.770164,103.826508 126.886253,102.611366 129.408447,101.960884 
	C136.547989,103.689796 143.255066,105.588478 150.061981,107.008644 
	C157.327499,108.524490 164.687332,109.588387 171.751251,111.123932 
	C167.888184,112.269051 164.231323,112.979187 160.683670,114.050789 
	C156.137390,115.424011 150.594101,113.382614 146.672363,117.996277 
	C145.903152,117.939850 145.464340,117.899536 144.993164,117.506210 
	C144.236038,112.874077 141.369598,114.597466 138.586121,114.993454 
	C135.784576,114.898529 133.365875,114.825439 130.947189,114.752350 
	C129.597107,114.744179 128.247025,114.736008 126.292358,114.353828 
	C121.116348,114.210739 116.544907,114.441666 111.973473,114.672592 
	C111.240898,114.726974 110.508316,114.781364 109.082306,114.631485 
	C106.239517,114.905128 104.090164,115.383041 101.940819,115.860962 
z"/>
<path fill="#163DE9" opacity="1.000000" stroke="none" 
	d="
M158.261169,177.990906 
	C154.896149,176.149933 152.038452,173.900787 148.846619,172.331070 
	C139.168259,167.571350 129.360580,163.074631 119.794197,158.254242 
	C136.751511,158.017120 153.518600,157.924667 170.283508,158.075516 
	C172.554504,158.095947 174.814529,159.336594 177.079636,160.012238 
	C176.873291,160.294601 176.666946,160.576950 176.080154,161.009827 
	C175.486496,161.424530 175.503967,161.670456 175.752136,161.898148 
	C171.137711,168.405930 166.150391,174.514221 158.261169,177.990906 
z"/>
<path fill="#0826B1" opacity="1.000000" stroke="none" 
	d="
M177.372604,159.860489 
	C174.814529,159.336594 172.554504,158.095947 170.283508,158.075516 
	C153.518600,157.924667 136.751511,158.017120 119.522903,158.035690 
	C117.325577,158.025314 115.590446,158.012283 113.294373,157.680420 
	C111.158859,156.248169 109.584274,155.134735 108.079239,153.728226 
	C108.464668,152.962891 108.780563,152.490616 109.377670,151.796173 
	C110.110001,149.718643 110.561127,147.863281 111.066513,145.972275 
	C111.120781,145.936630 110.991333,145.986786 110.765610,145.986969 
	C110.539879,145.987152 110.088585,145.974747 109.815414,145.844101 
	C109.398674,145.139282 109.255104,144.565094 109.394470,143.846558 
	C110.480621,143.450974 111.283813,143.199722 112.087006,142.948471 
	C112.420380,144.736313 112.753746,146.524155 113.132614,148.916809 
	C113.450706,149.730621 113.723297,149.939606 114.357849,150.345062 
	C126.114960,150.686234 137.510101,150.882446 148.905334,150.888504 
	C149.937637,150.889053 150.970581,149.665619 152.003235,149.010590 
	C151.389450,148.056702 150.775650,147.102814 150.241943,146.273361 
	C151.339554,144.569290 152.369019,142.971069 154.054611,141.194061 
	C155.810669,141.355759 156.910568,141.696243 157.830109,142.369293 
	C154.895020,148.277115 155.246811,151.376495 158.933319,154.526855 
	C162.867615,157.888947 165.877960,155.124725 169.186371,153.377975 
	C172.578308,154.476212 175.787567,155.253494 178.996826,156.030792 
	C178.553070,157.256775 178.109329,158.482758 177.372604,159.860489 
z"/>
<path fill="#255BEE" opacity="1.000000" stroke="none" 
	d="
M147.002777,118.012390 
	C150.594101,113.382614 156.137390,115.424011 160.683670,114.050789 
	C164.231323,112.979187 167.888184,112.269051 172.127853,111.150269 
	C173.746262,110.866936 174.733337,110.831612 176.082886,110.916046 
	C178.591690,111.647148 180.737991,112.258507 182.884293,112.869858 
	C183.570160,116.972107 184.256027,121.074348 184.566162,125.680763 
	C180.421478,130.466049 176.246307,129.836746 171.303238,128.104889 
	C165.753281,126.160408 159.804321,125.354851 154.028946,124.053787 
	C154.028946,124.053787 153.945328,124.064758 153.821716,123.836029 
	C153.508942,123.373161 153.273376,123.203377 152.991440,123.097946 
	C152.827026,123.037186 152.662598,122.976425 152.109207,122.694427 
	C151.521027,122.275986 151.287460,122.136154 151.019562,122.053688 
	C151.019562,122.053688 150.949066,122.045853 150.858063,121.697350 
	C149.836014,120.907814 148.904999,120.466789 147.973969,120.025764 
	C147.973969,120.025764 148.002151,120.001846 147.890045,119.755508 
	C147.519547,119.010246 147.261154,118.511322 147.002777,118.012390 
z"/>
<path fill="#3067E7" opacity="1.000000" stroke="none" 
	d="
M150.668915,125.246613 
	C151.758774,126.261566 152.580215,127.031815 153.401642,127.802063 
	C153.231613,128.220001 153.061584,128.637939 152.891556,129.055893 
	C143.263779,128.574524 133.636002,128.093170 123.235184,127.573158 
	C122.692543,124.472229 122.089966,121.028763 121.421227,117.207191 
	C132.084045,116.602280 141.615662,119.354233 150.668915,125.246613 
z"/>
<path fill="#0C25A4" opacity="1.000000" stroke="none" 
	d="
M108.009697,154.021301 
	C109.584274,155.134735 111.158859,156.248169 112.862312,157.676971 
	C102.930885,157.992325 92.870583,157.992325 82.349068,157.992325 
	C82.641251,160.282318 82.823288,161.709076 83.007782,163.514160 
	C81.894485,161.985931 80.778740,160.079376 79.330658,157.556976 
	C79.330147,153.552567 79.661964,150.163986 79.993790,146.775421 
	C83.402603,147.071442 86.811417,147.367462 90.219986,147.670547 
	C90.919952,145.901489 91.620163,144.125381 92.971855,142.185638 
	C94.415215,142.366699 95.207108,142.711426 95.947144,143.452911 
	C94.000519,148.101761 94.048592,152.575150 98.393532,154.602097 
	C100.951836,155.795563 104.762360,154.304810 108.009697,154.021301 
z"/>
<path fill="#EE8E1A" opacity="1.000000" stroke="none" 
	d="
M71.178986,124.956390 
	C71.459000,123.911606 71.739021,122.866821 72.369591,121.301041 
	C74.180046,119.881340 75.639961,118.982635 77.099869,118.083939 
	C76.059021,117.331467 75.018173,116.578995 73.977325,115.826530 
	C74.807014,108.706970 77.807770,102.647202 83.374573,97.312561 
	C85.683914,98.086014 87.494797,99.143631 89.207176,100.533630 
	C85.964928,107.517159 82.821198,114.168312 79.402130,121.103226 
	C78.682259,124.223244 78.237724,127.059494 77.410843,129.907471 
	C72.631241,131.149612 73.762825,125.863373 71.178986,124.956390 
z"/>
<path fill="#EDBD1B" opacity="1.000000" stroke="none" 
	d="
M100.932533,81.934822 
	C103.679626,80.604927 106.426712,79.275032 109.878571,78.149780 
	C114.819511,78.274330 119.099129,77.767708 123.283714,78.193970 
	C135.934311,79.482620 148.625320,80.766136 159.880859,87.657928 
	C161.336594,88.549278 163.355743,88.520477 165.113907,88.917908 
	C165.113907,88.917908 165.033127,88.963936 165.090149,89.234840 
	C165.435989,90.056717 165.724823,90.607689 165.893188,91.425072 
	C163.750122,91.502274 161.727539,91.313057 159.350296,91.151909 
	C155.037170,89.129753 151.210648,86.752960 147.095596,85.090202 
	C134.475693,79.990936 121.765778,80.930550 109.088928,84.765121 
	C109.220192,80.646698 107.781723,79.510269 104.286835,81.248344 
	C103.299202,81.739510 102.057632,81.720078 100.932533,81.934822 
z"/>
<path fill="#FBDB0C" opacity="1.000000" stroke="none" 
	d="
M164.956024,88.600548 
	C163.355743,88.520477 161.336594,88.549278 159.880859,87.657928 
	C148.625320,80.766136 135.934311,79.482620 123.283714,78.193970 
	C119.099129,77.767708 114.819511,78.274330 110.267670,78.099548 
	C114.415802,76.696358 118.829514,74.922485 123.356232,74.560112 
	C128.855347,74.119881 134.832184,73.700485 139.918304,75.363770 
	C148.786621,78.263931 158.114868,80.914261 164.956024,88.600548 
z"/>
<path fill="#2C5DE3" opacity="1.000000" stroke="none" 
	d="
M118.300972,129.937714 
	C117.851585,126.613266 115.301903,127.167702 113.011047,126.895714 
	C108.985550,126.417755 104.993965,125.654129 100.491798,124.930344 
	C105.275475,116.794724 111.714943,116.720535 118.701584,118.102318 
	C119.249947,120.188202 119.531075,121.603439 119.812202,123.018669 
	C119.849251,123.444908 119.886307,123.871140 119.963882,124.986511 
	C119.436592,127.096329 118.868782,128.517014 118.300972,129.937714 
z"/>
<path fill="#F0AA15" opacity="1.000000" stroke="none" 
	d="
M159.704941,91.123840 
	C161.727539,91.313057 163.750122,91.502274 166.244751,91.387497 
	C167.184860,91.032089 167.652908,90.980652 168.120972,90.929222 
	C168.120972,90.929222 168.051590,90.941742 168.083923,91.218658 
	C168.410843,92.040466 168.705414,92.585365 169.231262,93.306168 
	C170.017181,93.630348 170.571823,93.778618 171.126465,93.926895 
	C174.969070,100.018997 178.811691,106.111107 182.769302,112.536530 
	C180.737991,112.258507 178.591690,111.647148 175.970337,110.638474 
	C170.231842,103.868713 164.968399,97.496277 159.704941,91.123840 
z"/>
<path fill="#F4B615" opacity="1.000000" stroke="none" 
	d="
M100.960083,81.948898 
	C102.057632,81.720078 103.299202,81.739510 104.286835,81.248344 
	C107.781723,79.510269 109.220192,80.646698 109.074875,84.957245 
	C109.082993,85.549843 109.086441,85.934639 108.715187,85.949966 
	C103.900360,88.989838 99.456779,92.014374 94.759186,95.090134 
	C94.343582,95.431412 94.182014,95.721474 94.020447,96.011536 
	C94.020447,96.011536 93.997528,95.998886 93.749428,96.070160 
	C93.339363,96.433250 93.177406,96.725067 93.015450,97.016884 
	C93.015450,97.016884 93.000000,97.000000 92.757721,97.010422 
	C92.348785,97.028244 92.182129,97.035645 91.951828,96.691025 
	C90.902229,94.547310 89.916267,92.755608 88.930313,90.963898 
	C90.724571,89.043579 92.518837,87.123260 94.878365,85.203804 
	C97.285988,84.104210 99.128349,83.003746 100.970703,81.903290 
	C100.970703,81.903290 100.987633,81.962967 100.960083,81.948898 
z"/>
<path fill="#E56521" opacity="1.000000" stroke="none" 
	d="
M71.105637,125.315994 
	C73.762825,125.863373 72.631241,131.149612 77.486969,130.255280 
	C78.290710,131.667572 78.635971,132.743790 78.981232,133.819992 
	C68.496346,137.729874 81.149155,139.036682 80.446037,140.773392 
	C78.497803,142.973862 77.359833,144.259155 76.221870,145.544449 
	C77.313255,145.839554 78.404640,146.134659 79.744904,146.602600 
	C79.661964,150.163986 79.330147,153.552567 79.028122,157.369080 
	C76.926163,152.963730 74.794411,148.130463 72.329987,143.159271 
	C71.997322,143.021347 72.072922,143.031067 72.072922,143.031067 
	C71.714638,140.005493 71.356361,136.979904 71.282150,133.339478 
	C71.350769,131.106689 71.135315,129.488770 70.919861,127.870850 
	C70.957336,127.139099 70.994804,126.407349 71.105637,125.315994 
z"/>
<path fill="#2B54DC" opacity="1.000000" stroke="none" 
	d="
M79.677467,120.819466 
	C82.821198,114.168312 85.964928,107.517159 89.401596,100.560295 
	C89.694519,100.254578 90.073380,100.356148 90.073380,100.356148 
	C89.069290,105.266754 88.065193,110.177361 87.040604,115.459145 
	C86.796585,117.242264 86.573051,118.654198 87.005020,120.339920 
	C89.462402,121.402275 91.264282,122.190849 93.066170,122.979431 
	C93.066170,122.979431 93.066231,123.062843 92.824615,123.135574 
	C92.332054,123.351166 92.124405,123.541321 91.960052,123.778770 
	C91.213455,123.812981 90.466850,123.847198 89.010330,123.657928 
	C86.240608,123.306496 84.180809,123.178551 81.870689,122.833244 
	C80.972740,122.017082 80.325104,121.418274 79.677467,120.819466 
z"/>
<path fill="#2B54DC" opacity="1.000000" stroke="none" 
	d="
M154.198853,124.370010 
	C159.804321,125.354851 165.753281,126.160408 171.303238,128.104889 
	C176.246307,129.836746 180.421478,130.466049 184.521332,126.093842 
	C184.961380,128.109924 185.070557,130.217102 184.819824,132.887665 
	C183.241852,133.987503 182.023804,134.523941 180.815521,134.793152 
	C180.529205,134.365433 180.233139,134.204956 179.969574,134.025879 
	C180.002060,134.007278 179.945160,134.057404 179.968231,133.764679 
	C179.667007,133.310287 179.342712,133.148636 178.928101,132.969635 
	C178.837784,132.952301 178.655258,132.974640 178.655258,132.974640 
	C172.624466,130.975861 166.587570,128.995132 160.566193,126.968407 
	C158.480606,126.266434 156.433472,125.450249 154.198853,124.370010 
z"/>
<path fill="#082AC0" opacity="1.000000" stroke="none" 
	d="
M179.010071,156.026047 
	C175.787567,155.253494 172.578308,154.476212 169.283813,153.131378 
	C169.480408,152.360321 169.762253,152.156845 170.228897,151.816620 
	C170.642883,151.469299 170.823837,151.223267 171.016647,150.706177 
	C171.076767,150.470612 171.211395,150.003387 171.304596,149.894653 
	C171.516891,149.494827 171.465988,149.235565 171.208908,148.681885 
	C171.202744,147.919937 171.232788,147.484222 171.422791,146.804031 
	C172.291794,145.733932 173.000854,144.908310 173.709900,144.082703 
	C173.709915,144.082703 173.895782,144.541565 174.051422,144.956299 
	C174.335068,145.606232 174.509796,145.799103 174.731232,145.949677 
	C174.748352,146.718613 174.765472,147.487564 174.695984,148.780151 
	C174.622131,149.641617 174.795181,149.855560 175.128555,149.945618 
	C176.772247,150.853790 180.157593,147.980865 180.120178,152.877075 
	C180.009537,153.634964 180.010574,153.812073 180.011627,153.989197 
	C180.011627,153.989197 180.017197,154.027847 179.802429,154.228226 
	C179.403793,154.951981 179.219925,155.475357 179.036041,155.998734 
	C179.036041,155.998734 179.023331,156.021317 179.010071,156.026047 
z"/>
<path fill="#1833B2" opacity="1.000000" stroke="none" 
	d="
M95.999001,143.056152 
	C95.207108,142.711426 94.415215,142.366699 93.291107,141.998779 
	C95.651711,136.619980 104.268585,134.850235 108.636398,138.801788 
	C109.810997,139.864441 110.818871,141.111420 111.995140,142.611130 
	C111.283813,143.199722 110.480621,143.450974 109.066864,143.722122 
	C104.544258,139.147461 100.310692,140.392303 95.999001,143.056152 
z"/>
<path fill="#2445CE" opacity="1.000000" stroke="none" 
	d="
M70.466080,127.951187 
	C71.135315,129.488770 71.350769,131.106689 71.247665,132.929138 
	C67.610046,133.070526 64.288406,132.897995 60.972694,132.976303 
	C57.912865,133.048569 56.644588,131.819702 57.444386,128.031525 
	C61.530083,128.031525 65.771187,128.031525 70.466080,127.951187 
z"/>
<path fill="#1833B2" opacity="1.000000" stroke="none" 
	d="
M178.225494,132.941666 
	C178.655258,132.974640 178.837784,132.952301 178.933289,133.281738 
	C179.334244,133.759933 179.639694,133.908661 179.945160,134.057404 
	C179.945160,134.057404 180.002060,134.007278 179.899338,134.303284 
	C180.132996,134.752975 180.469376,134.906693 180.805756,135.060394 
	C182.023804,134.523941 183.241852,133.987503 184.659897,133.225189 
	C184.628632,136.733704 184.397354,140.468094 184.147232,144.506958 
	C181.768250,142.065155 180.411423,140.311157 178.704742,139.019363 
	C176.890274,137.645996 174.744263,136.710693 172.743011,135.584106 
	C172.839478,135.051193 172.935928,134.518280 173.032394,133.985367 
	C174.620178,133.626480 176.207962,133.267578 178.225494,132.941666 
z"/>
<path fill="#2445CE" opacity="1.000000" stroke="none" 
	d="
M79.402130,121.103226 
	C80.325104,121.418274 80.972740,122.017082 81.847664,123.145981 
	C82.081688,124.093628 82.088432,124.511169 82.095177,124.928719 
	C82.060028,125.378693 82.024872,125.828674 82.180603,126.792519 
	C82.567268,127.532951 82.793472,127.723404 83.050087,127.877731 
	C83.050087,127.877731 83.115356,127.883499 83.128891,128.204575 
	C84.477562,129.367996 85.812714,130.210358 87.145279,131.317993 
	C87.154327,131.936401 87.165955,132.289490 87.147408,133.009720 
	C87.074112,133.866058 87.030991,134.355286 86.987862,134.844498 
	C84.563606,134.623077 82.139343,134.401642 79.348160,134.000107 
	C78.635971,132.743790 78.290710,131.667572 77.869324,130.243561 
	C78.237724,127.059494 78.682259,124.223244 79.402130,121.103226 
z"/>
<path fill="#0C25A4" opacity="1.000000" stroke="none" 
	d="
M124.802086,138.121521 
	C130.094498,144.465668 138.451263,142.850998 145.400986,145.727585 
	C138.342484,148.899643 126.889122,145.377274 122.416809,138.470352 
	C123.419678,138.095581 124.110886,138.108551 124.802086,138.121521 
z"/>
<path fill="#2445CE" opacity="1.000000" stroke="none" 
	d="
M158.010483,142.036743 
	C156.910568,141.696243 155.810669,141.355759 154.348663,141.031525 
	C158.723465,135.528976 165.750839,135.260239 171.512482,140.699707 
	C170.204666,141.376434 169.107727,141.722900 167.642212,141.906555 
	C164.185913,141.841415 161.098190,141.939072 158.010483,142.036743 
z"/>
<path fill="#1833B2" opacity="1.000000" stroke="none" 
	d="
M87.147858,131.052704 
	C85.812714,130.210358 84.477562,129.367996 83.128738,128.237335 
	C86.303772,127.998016 89.526390,127.826500 92.648811,128.306641 
	C93.187622,128.389511 94.052292,132.145493 93.464203,132.632599 
	C91.953842,133.883652 89.711708,134.251221 87.374962,134.908203 
	C87.030991,134.355286 87.074112,133.866058 87.401276,133.070297 
	C88.304939,132.763748 88.924561,132.763748 89.995079,132.763748 
	C88.784569,132.036285 87.966217,131.544495 87.147858,131.052704 
z"/>
<path fill="#F0AA15" opacity="1.000000" stroke="none" 
	d="
M90.052673,100.235107 
	C90.073380,100.356148 89.694519,100.254578 89.500107,100.227913 
	C87.494797,99.143631 85.683914,98.086014 83.522003,96.996368 
	C84.887505,95.046417 86.604019,93.128487 88.625427,91.087219 
	C89.916267,92.755608 90.902229,94.547310 91.959122,96.938904 
	C92.030052,97.538795 92.066650,98.033386 92.066650,98.033386 
	C92.066650,98.033386 92.008537,98.006126 91.771576,98.085434 
	C91.394180,98.459435 91.253754,98.754143 91.113319,99.048843 
	C91.113319,99.048843 91.042511,99.051865 90.818283,99.148277 
	C90.285378,99.443886 90.178871,99.720825 90.274544,100.075516 
	C90.274544,100.075516 90.031975,100.114059 90.052673,100.235107 
z"/>
<path fill="#2445CE" opacity="1.000000" stroke="none" 
	d="
M73.578262,115.903893 
	C75.018173,116.578995 76.059021,117.331467 77.099869,118.083939 
	C75.639961,118.982635 74.180046,119.881340 72.373627,120.963882 
	C70.498810,120.182739 68.970505,119.217751 67.442200,118.252762 
	C69.354530,117.495590 71.266861,116.738419 73.578262,115.903893 
z"/>
<path fill="#1833B2" opacity="1.000000" stroke="none" 
	d="
M71.997971,142.983246 
	C71.488602,146.492142 67.080162,148.599731 64.316772,146.399689 
	C63.804390,145.991760 64.351189,143.047287 64.666229,143.000381 
	C66.843811,142.676208 69.089508,142.809616 71.693123,142.913544 
	C72.072922,143.031067 71.997322,143.021347 71.997971,142.983246 
z"/>
<path fill="#0C25A4" opacity="1.000000" stroke="none" 
	d="
M151.755722,149.050140 
	C150.970581,149.665619 149.937637,150.889053 148.905334,150.888504 
	C137.510101,150.882446 126.114960,150.686234 114.822266,150.273880 
	C123.723961,149.996216 132.524048,150.052963 141.321976,149.941223 
	C144.557236,149.900131 147.787460,149.461014 151.019974,149.203430 
	C151.182724,149.165512 151.345474,149.127609 151.755722,149.050140 
z"/>
<path fill="#9FAADA" opacity="1.000000" stroke="none" 
	d="
M150.554794,149.110809 
	C147.787460,149.461014 144.557236,149.900131 141.321976,149.941223 
	C132.524048,150.052963 123.723961,149.996216 114.460312,150.077423 
	C113.723297,149.939606 113.450706,149.730621 113.182625,149.259521 
	C125.487968,149.004349 137.788788,149.011276 150.554794,149.110809 
z"/>
<path fill="#2B55BD" opacity="1.000000" stroke="none" 
	d="
M124.766953,137.757095 
	C124.110886,138.108551 123.419678,138.095581 122.388916,138.130096 
	C120.811485,135.669571 119.573624,133.161560 118.318359,130.295624 
	C118.868782,128.517014 119.436592,127.096329 120.016655,125.303192 
	C121.596535,129.084717 123.164169,133.238693 124.766953,137.757095 
z"/>
<path fill="#2B55BD" opacity="1.000000" stroke="none" 
	d="
M112.430923,114.776443 
	C116.544907,114.441666 121.116348,114.210739 125.891388,114.293182 
	C121.692787,114.697792 117.290581,114.789040 112.430923,114.776443 
z"/>
<path fill="#0C25A4" opacity="1.000000" stroke="none" 
	d="
M168.010788,142.069336 
	C169.107727,141.722900 170.204666,141.376434 171.661407,141.024185 
	C172.578171,141.834457 173.135086,142.650513 173.700958,143.774628 
	C173.000854,144.908310 172.291794,145.733932 171.248093,146.513641 
	C169.945892,145.001587 168.978348,143.535461 168.010788,142.069336 
z"/>
<path fill="#255BEE" opacity="1.000000" stroke="none" 
	d="
M138.968979,115.015297 
	C141.369598,114.597466 144.236038,112.874077 144.735046,117.546333 
	C144.336853,117.960823 144.164398,117.982170 143.991943,118.003517 
	C143.991943,118.003517 143.515610,117.898041 143.064209,117.662933 
	C142.091675,117.274879 141.570526,117.121941 141.049393,116.969002 
	C141.049393,116.969002 140.995468,116.990028 140.843994,116.733856 
	C140.118011,115.990219 139.543488,115.502754 138.968979,115.015297 
z"/>
<path fill="#2B55BD" opacity="1.000000" stroke="none" 
	d="
M138.586121,114.993454 
	C139.543488,115.502754 140.118011,115.990219 140.857117,116.708054 
	C137.920761,116.289314 134.819824,115.640198 131.333038,114.871704 
	C133.365875,114.825439 135.784576,114.898529 138.586121,114.993454 
z"/>
<path fill="#2B55BD" opacity="1.000000" stroke="none" 
	d="
M93.391579,122.860596 
	C91.264282,122.190849 89.462402,121.402275 87.351707,120.438065 
	C89.105377,120.219925 91.173981,120.095993 93.221687,120.249977 
	C93.447968,120.266991 93.554771,121.872803 93.391579,122.860596 
z"/>
<path fill="#EDBD1B" opacity="1.000000" stroke="none" 
	d="
M100.607452,81.947617 
	C99.128349,83.003746 97.285988,84.104210 95.183792,85.080902 
	C96.697357,83.968735 98.470779,82.980331 100.607452,81.947617 
z"/>
<path fill="#2B55BD" opacity="1.000000" stroke="none" 
	d="
M102.343140,115.931152 
	C104.090164,115.383041 106.239517,114.905128 108.715637,114.603981 
	C106.943428,115.187614 104.844444,115.594482 102.343140,115.931152 
z"/>
<path fill="#2B55BD" opacity="1.000000" stroke="none" 
	d="
M82.444733,124.768509 
	C82.088432,124.511169 82.081688,124.093628 82.097977,123.363342 
	C84.180809,123.178551 86.240608,123.306496 88.639130,123.606430 
	C86.916664,124.055038 84.855469,124.331665 82.444733,124.768509 
z"/>
<path fill="#0C25A4" opacity="1.000000" stroke="none" 
	d="
M84.046768,165.402252 
	C84.964119,165.857773 85.892151,166.651764 86.889084,167.753143 
	C85.991150,167.287277 85.024300,166.514008 84.046768,165.402252 
z"/>
<path fill="#FBDB0C" opacity="1.000000" stroke="none" 
	d="
M167.983093,90.632408 
	C167.652908,90.980652 167.184860,91.032089 166.365234,91.121094 
	C165.724823,90.607689 165.435989,90.056717 165.113861,89.194862 
	C166.002121,89.367851 166.923660,89.851723 167.983093,90.632408 
z"/>
<path fill="#2B54DC" opacity="1.000000" stroke="none" 
	d="
M148.080994,120.328445 
	C148.904999,120.466789 149.836014,120.907814 150.860703,121.661980 
	C150.032242,121.527115 149.110123,121.079117 148.080994,120.328445 
z"/>
<path fill="#2B54DC" opacity="1.000000" stroke="none" 
	d="
M144.138611,118.307358 
	C144.164398,117.982170 144.336853,117.960823 144.767426,117.899353 
	C145.464340,117.899536 145.903152,117.939850 146.672363,117.996277 
	C147.261154,118.511322 147.519547,119.010246 147.879196,119.771378 
	C146.748734,119.559456 145.516998,119.085327 144.138611,118.307358 
z"/>
<path fill="#2B55BD" opacity="1.000000" stroke="none" 
	d="
M119.902344,122.632675 
	C119.531075,121.603439 119.249947,120.188202 118.975220,118.402390 
	C119.318581,119.436760 119.655533,120.841721 119.902344,122.632675 
z"/>
<path fill="#EDBD1B" opacity="1.000000" stroke="none" 
	d="
M171.014908,93.644676 
	C170.571823,93.778618 170.017181,93.630348 169.241074,92.986725 
	C169.027176,92.279465 169.034744,92.067551 169.042328,91.855637 
	C169.662674,92.357910 170.283020,92.860184 171.014908,93.644676 
z"/>
<path fill="#2B55BD" opacity="1.000000" stroke="none" 
	d="
M141.149048,117.269043 
	C141.570526,117.121941 142.091675,117.274879 142.828339,117.600708 
	C142.445480,117.705429 141.847107,117.637260 141.149048,117.269043 
z"/>
<path fill="#0826B1" opacity="1.000000" stroke="none" 
	d="
M179.312531,155.878448 
	C179.219925,155.475357 179.403793,154.951981 179.782913,154.228210 
	C179.848434,154.604614 179.718719,155.181396 179.312531,155.878448 
z"/>
<path fill="#FBDB0C" opacity="1.000000" stroke="none" 
	d="
M168.964066,91.621040 
	C169.034744,92.067551 169.027176,92.279465 169.009796,92.810822 
	C168.705414,92.585365 168.410843,92.040466 168.088379,91.183685 
	C168.402206,90.936562 168.677307,91.108116 168.964066,91.621040 
z"/>
<path fill="#0C25A4" opacity="1.000000" stroke="none" 
	d="
M175.043396,149.707855 
	C174.795181,149.855560 174.622131,149.641617 174.665527,149.163788 
	C174.800522,149.172562 174.879379,149.321335 175.043396,149.707855 
z"/>
<path fill="#0826B1" opacity="1.000000" stroke="none" 
	d="
M180.226715,153.920959 
	C180.010574,153.812073 180.009537,153.634964 180.020905,153.192429 
	C180.256989,153.113312 180.489365,153.291260 180.690140,153.499649 
	C180.709091,153.519348 180.529312,153.730469 180.226715,153.920959 
z"/>
<path fill="#0826B1" opacity="1.000000" stroke="none" 
	d="
M175.841064,161.701996 
	C175.503967,161.670456 175.486496,161.424530 175.836960,161.118896 
	C175.974197,161.077408 175.929993,161.505859 175.841064,161.701996 
z"/>
<path fill="#0C25A4" opacity="1.000000" stroke="none" 
	d="
M83.138641,164.261383 
	C83.357475,164.163101 83.571320,164.345505 83.838493,164.769028 
	C83.599800,164.938126 83.347076,164.782104 83.138641,164.261383 
z"/>
<path fill="#0C25A4" opacity="1.000000" stroke="none" 
	d="
M87.020851,168.281799 
	C87.189964,168.255524 87.439888,168.481888 87.817436,168.928009 
	C87.663925,168.943329 87.382797,168.738892 87.020851,168.281799 
z"/>
<path fill="#0C25A4" opacity="1.000000" stroke="none" 
	d="
M174.766846,145.723145 
	C174.509796,145.799103 174.335068,145.606232 174.142227,145.186584 
	C174.417450,145.022766 174.659149,145.187607 174.766846,145.723145 
z"/>
<path fill="#2B54DC" opacity="1.000000" stroke="none" 
	d="
M153.042877,123.336197 
	C153.273376,123.203377 153.508942,123.373161 153.814667,123.794449 
	C153.564789,124.025421 153.285812,123.889702 153.042877,123.336197 
z"/>
<path fill="#2B54DC" opacity="1.000000" stroke="none" 
	d="
M151.062653,122.304779 
	C151.287460,122.136154 151.521027,122.275986 151.854492,122.629234 
	C151.694412,122.708801 151.400085,122.632332 151.062653,122.304779 
z"/>
<path fill="#1833B2" opacity="1.000000" stroke="none" 
	d="
M82.994019,127.639771 
	C82.793472,127.723404 82.567268,127.532951 82.244675,127.125259 
	C82.477478,126.942177 82.750839,127.094734 82.994019,127.639771 
z"/>
<path fill="#2B55BD" opacity="1.000000" stroke="none" 
	d="
M92.210533,123.825790 
	C92.124405,123.541321 92.332054,123.351166 92.782944,123.137299 
	C92.808922,123.335121 92.634972,123.603966 92.210533,123.825790 
z"/>
<path fill="#4487F2" opacity="1.000000" stroke="none" 
	d="
M109.086441,85.934639 
	C109.086441,85.934639 109.082993,85.549843 109.097046,85.357712 
	C121.765778,80.930550 134.475693,79.990936 147.095596,85.090202 
	C151.210648,86.752960 155.037170,89.129753 159.350296,91.151909 
	C164.968399,97.496277 170.231842,103.868713 175.607849,110.518723 
	C174.733337,110.831612 173.746262,110.866936 172.382599,110.875916 
	C164.687332,109.588387 157.327499,108.524490 150.061981,107.008644 
	C143.255066,105.588478 136.547989,103.689796 129.153809,101.729370 
	C120.797676,97.832390 112.200233,95.314537 109.086441,85.934639 
z"/>
<path fill="#2F6EF2" opacity="1.000000" stroke="none" 
	d="
M108.715187,85.949966 
	C112.200233,95.314537 120.797676,97.832390 128.765289,101.688568 
	C126.886253,102.611366 124.770164,103.826508 122.615692,103.898865 
	C115.209740,104.147606 107.790199,104.021370 100.376190,103.977707 
	C98.798508,103.968422 97.222313,103.704819 96.141945,103.604485 
	C95.808723,100.836723 95.555351,98.732224 95.148438,96.098114 
	C95.000992,95.391975 95.007095,95.215446 95.013206,95.038918 
	C99.456779,92.014374 103.900360,88.989838 108.715187,85.949966 
z"/>
<path fill="#2B54DC" opacity="1.000000" stroke="none" 
	d="
M91.310196,98.929047 
	C91.253754,98.754143 91.394180,98.459435 91.784775,98.114685 
	C91.928886,98.362411 91.752937,98.610611 91.310196,98.929047 
z"/>
<path fill="#2B54DC" opacity="1.000000" stroke="none" 
	d="
M94.759186,95.090134 
	C95.007095,95.215446 95.000992,95.391975 94.962875,95.833275 
	C94.930870,96.098045 94.475243,96.059219 94.247849,96.035378 
	C94.182014,95.721474 94.343582,95.431412 94.759186,95.090134 
z"/>
<path fill="#2B54DC" opacity="1.000000" stroke="none" 
	d="
M93.222168,96.895935 
	C93.177406,96.725067 93.339363,96.433250 93.754929,96.082214 
	C93.880249,96.323708 93.687042,96.574379 93.222168,96.895935 
z"/>
<path fill="#2B54DC" opacity="1.000000" stroke="none" 
	d="
M92.270401,97.910728 
	C92.066650,98.033386 92.030052,97.538795 92.022758,97.290916 
	C92.182129,97.035645 92.348785,97.028244 92.765762,97.018738 
	C92.904762,97.322487 92.724121,97.579628 92.270401,97.910728 
z"/>
<path fill="#2B54DC" opacity="1.000000" stroke="none" 
	d="
M90.448776,99.956917 
	C90.178871,99.720825 90.285378,99.443886 90.823212,99.183365 
	C90.976044,99.400848 90.832932,99.639603 90.448776,99.956917 
z"/>
<path fill="#000000" opacity="1.000000" stroke="none" 
	d="
M167.642212,141.906555 
	C168.978348,143.535461 169.945892,145.001587 171.088135,146.758118 
	C171.232788,147.484222 171.202744,147.919937 171.146042,148.928741 
	C171.150040,149.669022 171.180710,149.836197 171.211395,150.003387 
	C171.211395,150.003387 171.076767,150.470612 170.795258,150.804718 
	C170.222702,151.332764 170.066147,151.604279 170.044098,151.953369 
	C169.762253,152.156845 169.480408,152.360321 169.101105,152.810425 
	C165.877960,155.124725 162.867615,157.888947 158.933319,154.526855 
	C155.246811,151.376495 154.895020,148.277115 157.830109,142.369308 
	C161.098190,141.939072 164.185913,141.841415 167.642212,141.906555 
z"/>
<path fill="#000000" opacity="1.000000" stroke="none" 
	d="
M95.947144,143.452911 
	C100.310692,140.392303 104.544258,139.147461 108.783920,143.866486 
	C109.255104,144.565094 109.398674,145.139282 109.809845,146.234406 
	C109.750450,148.509689 109.423454,150.264023 109.096458,152.018356 
	C108.780563,152.490616 108.464668,152.962891 108.079239,153.728226 
	C104.762360,154.304810 100.951836,155.795563 98.393532,154.602097 
	C94.048592,152.575150 94.000519,148.101761 95.947144,143.452911 
z"/>
<path fill="#1833B2" opacity="1.000000" stroke="none" 
	d="
M109.377670,151.796173 
	C109.423454,150.264023 109.750450,148.509689 110.083008,146.365051 
	C110.088585,145.974747 110.539879,145.987152 110.769920,145.993317 
	C110.999962,145.999466 111.012245,146.007919 111.012253,146.007919 
	C110.561127,147.863281 110.110001,149.718643 109.377670,151.796173 
z"/>
<path fill="#1833B2" opacity="1.000000" stroke="none" 
	d="
M110.995651,145.993134 
	C110.991333,145.986786 111.120781,145.936630 111.066513,145.972275 
	C111.012245,146.007919 110.999962,145.999466 110.995651,145.993134 
z"/>
<path fill="#9FAADA" opacity="1.000000" stroke="none" 
	d="
M180.815521,134.793152 
	C180.469376,134.906693 180.132996,134.752975 179.866852,134.321869 
	C180.233139,134.204956 180.529205,134.365433 180.815521,134.793152 
z"/>
<path fill="#9FAADA" opacity="1.000000" stroke="none" 
	d="
M179.968231,133.764679 
	C179.639694,133.908661 179.334244,133.759933 179.023590,133.299072 
	C179.342712,133.148636 179.667007,133.310287 179.968231,133.764679 
z"/>
<path fill="#0826B1" opacity="1.000000" stroke="none" 
	d="
M170.228897,151.816605 
	C170.066147,151.604279 170.222702,151.332764 170.735138,151.040283 
	C170.823837,151.223267 170.642883,151.469299 170.228897,151.816605 
z"/>
<path fill="#0C25A4" opacity="1.000000" stroke="none" 
	d="
M171.304596,149.894653 
	C171.180710,149.836197 171.150040,149.669022 171.182236,149.254990 
	C171.465988,149.235565 171.516891,149.494827 171.304596,149.894653 
z"/>
<path fill="#9FAADA" opacity="1.000000" stroke="none" 
	d="
M87.145279,131.317993 
	C87.966217,131.544495 88.784569,132.036285 89.995079,132.763748 
	C88.924561,132.763748 88.304939,132.763748 87.431442,132.703171 
	C87.165955,132.289490 87.154327,131.936401 87.145279,131.317993 
z"/>
</svg>