<svg version="1.1" id="Layer_1" xmlns="http://www.w3.org/2000/svg" xmlns:xlink="http://www.w3.org/1999/xlink" x="0px" y="0px"
	 width="100%" viewBox="0 0 512 512" enable-background="new 0 0 512 512" xml:space="preserve">
<path fill="#000000" opacity="1.000000" stroke="none" 
	d="
M323.000000,513.000000 
	C215.359482,513.000000 108.218956,513.000000 1.039217,513.000000 
	C1.039217,342.401123 1.039217,171.802231 1.039217,1.101671 
	C171.557190,1.101671 342.114471,1.101671 512.835876,1.101671 
	C512.835876,171.666534 512.835876,342.333252 512.835876,513.000000 
	C449.802216,513.000000 386.651093,513.000000 323.000000,513.000000 
M133.092545,439.338104 
	C139.212051,447.887543 145.550446,456.290009 151.407333,465.015717 
	C165.350388,485.788269 195.495987,486.535248 210.628845,465.529480 
	C229.433701,439.426697 247.477051,412.775787 265.884369,386.386047 
	C282.785095,362.156219 299.761322,337.979095 316.651550,313.742004 
	C336.356903,285.465302 355.933746,257.098755 375.698090,228.863449 
	C395.646912,200.364594 415.821320,172.023651 435.774139,143.527573 
	C449.161682,124.407845 461.583405,104.554871 475.871124,86.142654 
	C485.267944,74.033211 484.658691,52.843414 472.804993,41.889614 
	C460.703217,30.706594 439.772125,29.958471 428.681030,41.968060 
	C420.861176,50.435459 413.623718,59.453526 406.335754,68.396469 
	C394.169312,83.325737 382.207672,98.421715 370.088959,113.390137 
	C360.858826,124.790710 351.469604,136.062500 342.240021,147.463531 
	C330.128326,162.424698 318.139893,177.485596 306.030334,192.448486 
	C296.802704,203.850388 287.420502,215.127182 278.196381,226.531906 
	C269.093658,237.786545 260.123047,249.147919 251.057602,260.432831 
	C243.025848,270.430939 234.994522,280.430145 226.870316,290.352997 
	C216.952118,302.467041 207.189896,314.723541 196.870590,326.488983 
	C190.543900,333.702301 182.329468,332.420349 176.691971,324.338806 
	C159.695526,299.973755 142.830200,275.512909 125.472496,251.407166 
	C121.081200,245.308701 115.485382,239.860580 109.664101,235.057739 
	C100.032181,227.110870 88.236603,226.434814 76.311531,226.989197 
	C62.224453,227.644073 50.614418,234.065598 42.344925,244.728333 
	C27.329548,264.089264 26.926960,287.594513 41.644913,308.325439 
	C59.035633,332.821075 76.250542,357.441772 93.483101,382.049316 
	C106.669395,400.878906 119.764679,419.772217 133.092545,439.338104 
z"/>
<path fill="#06BC42" opacity="1.000000" stroke="none" 
	d="
M132.996490,438.987671 
	C119.764679,419.772217 106.669395,400.878906 93.483101,382.049316 
	C76.250542,357.441772 59.035633,332.821075 41.644913,308.325439 
	C26.926960,287.594513 27.329548,264.089264 42.344925,244.728333 
	C50.614418,234.065598 62.224453,227.644073 76.311531,226.989197 
	C88.236603,226.434814 100.032181,227.110870 109.664101,235.057739 
	C115.485382,239.860580 121.081200,245.308701 125.472496,251.407166 
	C142.830200,275.512909 159.695526,299.973755 176.691971,324.338806 
	C182.329468,332.420349 190.543900,333.702301 196.870590,326.488983 
	C207.189896,314.723541 216.952118,302.467041 226.870316,290.352997 
	C234.994522,280.430145 243.025848,270.430939 251.057602,260.432831 
	C260.123047,249.147919 269.093658,237.786545 278.196381,226.531906 
	C287.420502,215.127182 296.802704,203.850388 306.030334,192.448486 
	C318.139893,177.485596 330.128326,162.424698 342.240021,147.463531 
	C351.469604,136.062500 360.858826,124.790710 370.088959,113.390137 
	C382.207672,98.421715 394.169312,83.325737 406.335754,68.396469 
	C413.623718,59.453526 420.861176,50.435459 428.681030,41.968060 
	C439.772125,29.958471 460.703217,30.706594 472.804993,41.889614 
	C484.658691,52.843414 485.267944,74.033211 475.871124,86.142654 
	C461.583405,104.554871 449.161682,124.407845 435.774139,143.527573 
	C415.821320,172.023651 395.646912,200.364594 375.698090,228.863449 
	C355.933746,257.098755 336.356903,285.465302 316.651550,313.742004 
	C299.761322,337.979095 282.785095,362.156219 265.884369,386.386047 
	C247.477051,412.775787 229.433701,439.426697 210.628845,465.529480 
	C195.495987,486.535248 165.350388,485.788269 151.407333,465.015717 
	C145.550446,456.290009 139.212051,447.887543 132.996490,438.987671 
z"/>
</svg>