<svg version="1.1" id="Layer_1" xmlns="http://www.w3.org/2000/svg" xmlns:xlink="http://www.w3.org/1999/xlink" x="0px" y="0px"
	 width="100%" viewBox="0 0 512 512" enable-background="new 0 0 512 512" xml:space="preserve">
<path fill="#000000" opacity="1.000000" stroke="none" 
	d="
M358.000000,513.000000 
	C238.695663,513.000000 119.891312,513.000000 1.043486,513.000000 
	C1.043486,342.403961 1.043486,171.807922 1.043486,1.105940 
	C171.554337,1.105940 342.108765,1.105940 512.831604,1.105940 
	C512.831604,171.666534 512.831604,342.333252 512.831604,513.000000 
	C461.474518,513.000000 409.987274,513.000000 358.000000,513.000000 
M406.500000,482.999664 
	C418.902710,482.666199 431.502319,483.598450 443.662720,481.707184 
	C462.626312,478.757843 477.599762,463.577972 480.787903,444.451874 
	C482.348907,435.086853 481.913910,425.348328 481.929871,415.778076 
	C481.945648,406.322845 479.391541,397.361755 473.965240,389.601166 
	C466.243469,378.557587 455.332886,370.839539 444.561584,363.113068 
	C423.675842,348.131287 401.125824,336.180267 376.931915,327.526794 
	C357.709839,320.651581 338.224792,314.543488 317.854889,311.960968 
	C304.093384,310.216248 290.338104,307.630493 276.528931,307.243500 
	C256.872894,306.692627 237.113022,305.815308 217.507767,308.963043 
	C207.529190,310.565125 197.315430,311.055420 187.521530,313.373260 
	C172.157211,317.009369 156.875488,321.216309 141.893707,326.190308 
	C123.584793,332.268860 105.952049,340.149261 89.739700,350.756348 
	C77.942566,358.474640 66.279274,366.428772 54.915150,374.766815 
	C47.141010,380.470856 40.554329,387.348053 36.914425,396.743103 
	C30.719547,412.732849 31.619373,429.305939 34.322704,445.395752 
	C37.984287,467.188904 58.838531,483.029968 81.044434,483.020569 
	C189.196274,482.974701 297.348145,482.999725 406.500000,482.999664 
M137.000183,163.269470 
	C138.000244,169.524933 138.576584,175.883698 140.072556,182.018234 
	C147.132004,210.967133 162.467880,234.563751 186.667450,252.113129 
	C208.604813,268.021973 233.312805,275.345032 260.336456,274.961273 
	C263.599121,274.914917 266.847321,274.220886 270.114075,274.020447 
	C283.062805,273.225983 295.357788,269.768066 307.046570,264.380707 
	C324.011627,256.561554 338.737793,245.754166 350.550232,231.043976 
	C359.269165,220.186127 366.456390,208.487091 370.931488,195.339096 
	C376.832489,178.001617 379.390991,160.293076 377.192535,141.807343 
	C375.659119,128.913849 372.731659,116.600212 367.369843,104.875793 
	C356.971863,82.139030 341.284607,64.042526 319.698792,51.173824 
	C302.205200,40.744720 283.400421,34.630089 262.995544,34.082184 
	C256.085571,33.896641 249.139816,34.526398 242.228149,35.028042 
	C227.786957,36.076176 214.340561,40.873806 201.591217,47.278305 
	C188.452072,53.878620 177.180237,63.196381 167.336349,74.164841 
	C157.608612,85.003883 150.166229,97.204498 144.934448,110.829353 
	C138.553680,127.446480 136.195328,144.620361 137.000183,163.269470 
z"/>
<path fill="#60C3EF" opacity="1.000000" stroke="none" 
	d="
M406.000000,482.999664 
	C297.348145,482.999725 189.196274,482.974701 81.044434,483.020569 
	C58.838531,483.029968 37.984287,467.188904 34.322704,445.395752 
	C31.619373,429.305939 30.719547,412.732849 36.914425,396.743103 
	C40.554329,387.348053 47.141010,380.470856 54.915150,374.766815 
	C66.279274,366.428772 77.942566,358.474640 89.739700,350.756348 
	C105.952049,340.149261 123.584793,332.268860 141.893707,326.190308 
	C156.875488,321.216309 172.157211,317.009369 187.521530,313.373260 
	C197.315430,311.055420 207.529190,310.565125 217.507767,308.963043 
	C237.113022,305.815308 256.872894,306.692627 276.528931,307.243500 
	C290.338104,307.630493 304.093384,310.216248 317.854889,311.960968 
	C338.224792,314.543488 357.709839,320.651581 376.931915,327.526794 
	C401.125824,336.180267 423.675842,348.131287 444.561584,363.113068 
	C455.332886,370.839539 466.243469,378.557587 473.965240,389.601166 
	C479.391541,397.361755 481.945648,406.322845 481.929871,415.778076 
	C481.913910,425.348328 482.348907,435.086853 480.787903,444.451874 
	C477.599762,463.577972 462.626312,478.757843 443.662720,481.707184 
	C431.502319,483.598450 418.902710,482.666199 406.000000,482.999664 
z"/>
<path fill="#60C3EF" opacity="1.000000" stroke="none" 
	d="
M137.000107,162.791229 
	C136.195328,144.620361 138.553680,127.446480 144.934448,110.829353 
	C150.166229,97.204498 157.608612,85.003883 167.336349,74.164841 
	C177.180237,63.196381 188.452072,53.878620 201.591217,47.278305 
	C214.340561,40.873806 227.786957,36.076176 242.228149,35.028042 
	C249.139816,34.526398 256.085571,33.896641 262.995544,34.082184 
	C283.400421,34.630089 302.205200,40.744720 319.698792,51.173824 
	C341.284607,64.042526 356.971863,82.139030 367.369843,104.875793 
	C372.731659,116.600212 375.659119,128.913849 377.192535,141.807343 
	C379.390991,160.293076 376.832489,178.001617 370.931488,195.339096 
	C366.456390,208.487091 359.269165,220.186127 350.550232,231.043976 
	C338.737793,245.754166 324.011627,256.561554 307.046570,264.380707 
	C295.357788,269.768066 283.062805,273.225983 270.114075,274.020447 
	C266.847321,274.220886 263.599121,274.914917 260.336456,274.961273 
	C233.312805,275.345032 208.604813,268.021973 186.667450,252.113129 
	C162.467880,234.563751 147.132004,210.967133 140.072556,182.018234 
	C138.576584,175.883698 138.000244,169.524933 137.000107,162.791229 
z"/>
</svg>