<svg version="1.1" id="Layer_1" xmlns="http://www.w3.org/2000/svg" xmlns:xlink="http://www.w3.org/1999/xlink" x="0px" y="0px"
	 width="100%" viewBox="0 0 512 512" enable-background="new 0 0 512 512" xml:space="preserve">
<path fill="#000000" opacity="1.000000" stroke="none" 
	d="
M513.000000,191.000000 
	C513.000000,298.640503 513.000000,405.781006 513.000000,512.960754 
	C342.401154,512.960754 171.802292,512.960754 1.101721,512.960754 
	C1.101721,342.442871 1.101721,171.885635 1.101721,1.164206 
	C171.666534,1.164206 342.333252,1.164206 513.000000,1.164206 
	C513.000000,64.197662 513.000000,127.348831 513.000000,191.000000 
M497.977936,94.556252 
	C497.977936,94.556252 497.885620,94.101044 497.970520,93.154488 
	C497.934570,84.425293 497.898621,75.696091 497.969666,66.039268 
	C497.978851,59.878864 497.998505,53.718460 497.995239,47.558060 
	C497.985870,29.951950 484.009979,16.005865 466.360016,16.004370 
	C408.418182,15.999462 350.476379,16.000639 292.534546,16.010675 
	C290.707031,16.010992 288.879486,16.133829 286.118805,16.050903 
	C206.001633,16.034243 125.883530,15.812623 45.768047,16.172810 
	C29.628021,16.245371 17.032204,28.753187 16.193979,45.159813 
	C15.362378,61.436794 16.086346,77.793251 16.017155,95.031860 
	C16.011087,219.181473 15.924337,343.331207 16.093716,467.480560 
	C16.116753,484.366028 29.635963,497.887054 46.521545,497.907013 
	C186.835510,498.072723 327.149902,498.082672 467.463806,497.892334 
	C483.963989,497.869934 497.308990,485.655914 497.706573,469.455109 
	C498.593384,433.320770 497.888947,397.147369 497.984497,360.064697 
	C497.989166,343.119446 498.015533,326.174133 497.993622,309.228912 
	C497.956451,280.492523 497.888794,251.756210 497.977112,222.506363 
	C497.927277,222.335785 497.877472,222.165222 497.978363,221.068756 
	C497.983124,211.433777 498.003937,201.798752 497.989777,192.163803 
	C497.942108,159.774323 497.881958,127.384834 497.977936,94.556252 
z"/>
<path fill="#E2E2E1" opacity="1.000000" stroke="none" 
	d="
M497.832825,360.989899 
	C497.888947,397.147369 498.593384,433.320770 497.706573,469.455109 
	C497.308990,485.655914 483.963989,497.869934 467.463806,497.892334 
	C327.149902,498.082672 186.835510,498.072723 46.521545,497.907013 
	C29.635963,497.887054 16.116753,484.366028 16.093716,467.480560 
	C15.924337,343.331207 16.011087,219.181473 16.531723,94.539932 
	C89.708931,94.042412 162.371567,94.035835 235.034210,94.039062 
	C236.363342,94.039116 237.692490,94.156136 239.017670,94.672424 
	C239.017181,105.051758 239.020645,114.977249 238.554932,124.934753 
	C216.030289,125.031776 193.974823,125.096771 171.457458,125.122040 
	C130.088684,125.082306 89.181793,125.082306 47.861465,125.082306 
	C47.861465,127.715141 47.861465,129.528412 47.861465,131.341675 
	C47.861462,158.167252 48.000969,184.994217 47.738289,211.817215 
	C47.688519,216.899307 49.033085,218.193848 54.107433,218.178085 
	C113.589676,217.993195 173.072693,218.057053 232.555511,218.069366 
	C234.716919,218.069809 236.878296,218.215271 239.028839,218.734497 
	C239.012466,225.561859 238.914871,231.950027 239.063980,238.332413 
	C239.102844,239.996597 239.910355,241.642822 240.079514,243.519882 
	C234.528625,247.056442 234.323074,250.124863 239.037201,255.303558 
	C239.021408,262.126984 239.020370,268.469574 238.734314,275.048706 
	C234.686707,279.481201 234.800232,281.481567 239.034515,286.316162 
	C239.014374,289.891815 238.815567,293.002747 239.054916,296.079620 
	C239.297516,299.198181 239.973129,302.283051 240.162506,305.592224 
	C234.168198,309.350159 234.216232,313.031464 240.011688,317.521332 
	C244.234268,342.378265 264.277069,360.342010 290.050079,360.925293 
	C307.355194,361.316925 324.676361,360.998840 342.026337,361.465973 
	C342.070862,394.871246 342.087250,427.808807 342.074280,460.746399 
	C342.073120,463.659698 341.659576,466.302826 346.184906,466.221558 
	C359.156158,465.988586 372.135132,466.060944 385.109192,466.194092 
	C388.286743,466.226746 389.111237,464.930298 389.011871,462.032196 
	C388.829529,456.715027 388.896210,451.389313 388.906433,445.594238 
	C388.999390,417.074127 389.045044,389.026917 389.550720,360.986877 
	C399.931000,360.990631 409.851257,360.987183 419.843719,361.448273 
	C419.915924,396.616364 419.915924,431.319885 419.915924,466.315674 
	C428.271545,466.315674 435.752838,466.315643 443.234100,466.315643 
	C450.810669,466.315643 458.387207,466.315674 466.156036,466.315674 
	C466.156036,458.962891 466.156036,452.494293 466.361023,445.671509 
	C466.635590,443.327362 466.761810,441.337555 466.766113,439.347504 
	C466.822601,413.237335 466.861877,387.127106 467.380005,361.012085 
	C477.847321,361.001495 487.840057,360.995697 497.832825,360.989899 
M311.140503,445.079590 
	C311.140503,426.498657 311.140503,407.917694 311.140503,389.104675 
	C301.893341,389.104675 293.424255,389.104675 284.032196,388.970703 
	C277.766571,388.970703 271.500946,388.970703 265.141541,388.970703 
	C265.141541,414.984772 265.141541,440.373871 265.141541,466.053589 
	C280.473602,466.053589 295.520172,466.053589 310.985931,466.053589 
	C310.985931,459.209320 310.985931,452.608612 311.140503,445.079590 
M202.651535,326.102386 
	C202.437286,308.720459 197.209930,292.971527 186.400101,279.387939 
	C170.770187,259.747467 150.371735,249.431183 124.193184,249.233383 
	C118.109993,250.040390 111.866386,250.227921 105.969635,251.754913 
	C67.693687,261.666595 43.360950,297.284729 48.203716,336.644043 
	C50.355850,354.135376 57.573017,369.468903 71.087524,382.298828 
	C102.803352,413.944641 156.740860,411.054199 184.936386,376.115936 
	C196.489578,361.799866 202.816360,345.539734 202.651535,326.102386 
M56.585472,435.219177 
	C55.422966,435.219177 54.238865,435.363617 53.101742,435.193726 
	C48.509396,434.507477 46.986835,436.360992 47.213467,440.983276 
	C47.570881,448.272980 47.380234,455.593964 47.276165,462.899597 
	C47.236725,465.668274 48.284412,466.759644 51.074856,466.723877 
	C59.044998,466.621796 67.017929,466.630341 74.988388,466.719421 
	C77.730446,466.750061 78.855621,465.733429 78.816360,462.919891 
	C78.705139,454.950012 78.712875,446.976746 78.812157,439.006531 
	C78.846695,436.233276 77.783043,435.134186 75.001526,435.188293 
	C69.191231,435.301361 63.377171,435.220703 56.585472,435.219177 
M171.822800,440.653595 
	C171.822800,449.092041 171.822800,457.530457 171.822800,466.608704 
	C181.700302,466.608704 191.111023,466.711212 200.510254,466.429474 
	C201.332123,466.404846 202.713379,463.874969 202.754074,462.477264 
	C202.976151,454.848694 202.747467,447.207855 202.913651,439.576416 
	C202.982925,436.396149 201.980850,435.099335 198.669083,435.171509 
	C191.037704,435.337860 183.395721,435.377289 175.767120,435.155762 
	C172.183609,435.051666 171.496948,436.760468 171.822800,440.653595 
M109.778984,457.453003 
	C109.778984,460.373047 109.778984,463.293091 109.778984,466.663086 
	C119.732140,466.663086 128.865646,466.759247 137.990463,466.521881 
	C138.956696,466.496735 140.656036,464.535736 140.686096,463.436462 
	C140.913681,455.113708 140.893188,446.779938 140.705078,438.455170 
	C140.680878,437.384186 139.269943,435.446442 138.466965,435.428223 
	C129.046860,435.214508 119.620178,435.291107 109.778557,435.291107 
	C109.778557,442.849152 109.778557,449.658539 109.778984,457.453003 
z"/>
<path fill="#4E6575" opacity="1.000000" stroke="none" 
	d="
M239.021622,94.218575 
	C237.692490,94.156136 236.363342,94.039116 235.034210,94.039062 
	C162.371567,94.035835 89.708931,94.042412 16.587191,94.081421 
	C16.086346,77.793251 15.362378,61.436794 16.193979,45.159813 
	C17.032204,28.753187 29.628021,16.245371 45.768047,16.172810 
	C125.883530,15.812623 206.001633,16.034243 286.578796,16.579659 
	C287.354462,26.068098 287.677765,35.027523 287.983978,43.987530 
	C288.381531,55.620640 299.771698,66.972160 311.452759,66.980911 
	C373.589355,67.027496 435.726013,66.981110 497.862671,66.966896 
	C497.898621,75.696091 497.934570,84.425293 497.705750,93.601982 
	C497.440979,94.049477 497.012939,94.180977 496.547607,94.115601 
	C427.719543,94.041489 359.356873,94.032021 290.994171,94.031136 
	C289.999939,94.031120 289.005737,94.138107 287.546356,94.127800 
	C271.061340,94.113159 255.041489,94.165863 239.021622,94.218575 
M69.446083,62.270123 
	C73.331604,60.168068 74.926842,56.941822 73.473404,52.743916 
	C72.270317,49.269115 69.502075,47.496872 65.769470,47.632294 
	C61.414375,47.790298 58.075455,51.758457 58.534428,56.064754 
	C59.050537,60.907158 62.790192,63.307995 69.446083,62.270123 
M134.161926,50.338455 
	C128.776474,46.112770 122.625359,47.298355 120.988754,52.948425 
	C119.961082,56.496273 120.933426,59.559330 124.010048,61.664856 
	C127.104492,63.782585 130.377472,63.605137 133.171265,61.185703 
	C136.484390,58.316505 136.965240,54.773270 134.161926,50.338455 
M93.686897,62.103310 
	C97.515076,63.942917 101.336800,63.345757 103.227333,59.800800 
	C104.467392,57.475544 104.656456,53.436756 103.402161,51.276962 
	C102.275612,49.337132 98.483727,47.974941 95.966873,48.116989 
	C93.920280,48.232498 91.254120,50.567230 90.228020,52.605225 
	C88.506020,56.025360 89.831276,59.362431 93.686897,62.103310 
z"/>
<path fill="#EEEEEE" opacity="1.000000" stroke="none" 
	d="
M497.827637,221.994644 
	C497.877472,222.165222 497.927277,222.335785 497.607605,222.946503 
	C496.158722,225.981461 494.151917,228.571625 494.138916,231.171768 
	C493.939514,271.054779 493.931213,310.939362 494.090149,350.822723 
	C494.109253,355.612823 492.664886,357.322968 487.834747,357.086975 
	C480.871674,356.746735 473.879578,357.000336 466.839447,356.534912 
	C466.766724,354.907196 466.743774,353.745117 466.743683,352.583038 
	C466.741577,325.021210 466.679688,297.459106 466.814850,269.897949 
	C466.833282,266.136047 466.035278,264.530914 461.889832,264.748413 
	C454.605194,265.130615 447.291656,264.962280 439.526917,264.957550 
	C433.377747,264.800262 427.691895,264.709930 421.979095,264.254761 
	C420.813629,263.304016 419.716858,262.540894 418.507416,262.255768 
	C418.202454,262.183868 416.946411,263.980408 417.148224,264.331360 
	C417.750031,265.377960 418.858917,266.132965 419.842987,267.465088 
	C419.867340,297.618134 419.818451,327.307892 419.316589,356.998322 
	C408.943176,356.998901 399.022736,356.998840 389.067261,356.531403 
	C389.018890,347.614777 388.932495,339.164642 389.034058,330.716797 
	C389.067017,327.973907 388.155609,326.853271 385.321716,326.915497 
	C377.870758,327.079010 370.415405,327.041840 362.497620,327.037598 
	C356.914612,326.971497 351.781433,327.180786 346.681793,326.858856 
	C342.798676,326.613708 341.957947,328.196594 342.035370,331.740601 
	C342.219238,340.156067 342.028107,348.579681 341.520996,357.000000 
	C324.562531,357.000000 308.067200,356.769226 291.582184,357.082062 
	C280.794952,357.286743 271.148010,354.405396 262.788025,347.810730 
	C252.867722,339.985352 245.450912,330.410431 244.465881,317.194946 
	C260.136414,317.031708 275.344543,316.946045 290.997009,316.895813 
	C292.921112,316.381836 294.400848,315.832489 295.880554,315.283142 
	C295.273071,314.189331 294.665588,313.095581 293.985840,311.656799 
	C293.617310,310.183167 293.321014,309.054535 293.017456,307.517303 
	C292.409882,305.770660 291.809601,304.432587 291.209320,303.094543 
	C290.137756,303.782471 289.066223,304.470398 287.532166,305.241760 
	C272.379578,305.257874 257.689484,305.190582 242.999588,304.647583 
	C243.333893,298.186188 243.667969,292.200531 244.465424,286.142242 
	C255.392029,286.058441 265.855286,286.023956 276.318481,286.040649 
	C305.545563,286.087311 334.772614,286.155243 364.058411,286.552795 
	C365.110138,287.518707 366.103149,288.146576 367.096191,288.774445 
	C367.731079,287.575470 368.365967,286.376465 369.101349,285.041870 
	C369.201843,284.906281 369.535004,284.851990 369.962341,284.887573 
	C371.577515,284.215302 372.765350,283.507477 373.953186,282.799652 
	C373.161072,281.861206 372.368988,280.922729 371.414307,279.628479 
	C369.812225,273.648468 365.164703,274.416016 361.133575,274.407318 
	C330.057526,274.340302 298.981232,274.386810 267.905060,274.358002 
	C259.603149,274.350311 251.301331,274.203979 242.999664,273.645203 
	C243.333984,267.187622 243.668121,261.206146 244.465927,255.154739 
	C284.040405,255.073746 323.151215,255.083954 362.261841,255.000366 
	C364.685638,254.995178 367.107819,254.252182 369.964783,253.888153 
	C371.575287,253.239334 372.751801,252.554764 373.928314,251.870209 
	C373.170776,250.910461 372.413208,249.950714 371.498840,248.690735 
	C370.159393,243.500717 366.367981,243.253571 362.353271,243.256622 
	C335.881744,243.276749 309.410187,243.290619 282.938690,243.255951 
	C269.625702,243.238510 256.312836,243.114899 242.999969,242.567780 
	C243.001617,234.163864 243.003250,226.231445 243.467407,218.225189 
	C305.732086,218.124924 367.534271,218.097992 429.336426,218.072693 
	C439.164917,218.068665 448.993378,218.072754 458.821869,218.071899 
	C466.169189,218.071274 466.131561,218.070129 466.186005,210.953629 
	C466.219055,206.631378 466.390106,202.310181 466.851074,198.013824 
	C467.855957,199.021042 468.840912,199.919662 469.111328,200.997543 
	C472.293732,213.683975 485.603363,223.340424 497.827637,221.994644 
z"/>
<path fill="#6B7E8B" opacity="1.000000" stroke="none" 
	d="
M497.916168,66.503082 
	C435.726013,66.981110 373.589355,67.027496 311.452759,66.980911 
	C299.771698,66.972160 288.381531,55.620640 287.983978,43.987530 
	C287.677765,35.027523 287.354462,26.068098 287.045349,16.653980 
	C288.879486,16.133829 290.707031,16.010992 292.534546,16.010675 
	C350.476379,16.000639 408.418182,15.999462 466.360016,16.004370 
	C484.009979,16.005865 497.985870,29.951950 497.995239,47.558060 
	C497.998505,53.718460 497.978851,59.878864 497.916168,66.503082 
z"/>
<path fill="#F5F5F5" opacity="1.000000" stroke="none" 
	d="
M497.903015,221.531708 
	C485.603363,223.340424 472.293732,213.683975 469.111328,200.997543 
	C468.840912,199.919662 467.855957,199.021042 466.757568,197.554169 
	C466.243408,190.710678 466.174713,184.352127 466.356262,177.669800 
	C466.700500,162.208191 466.808502,147.070450 466.882019,131.932541 
	C466.915619,125.008224 466.884796,125.011269 459.853546,125.005257 
	C411.904449,124.964279 363.955353,124.921852 315.901337,124.519043 
	C315.113159,123.781288 314.460358,123.151062 313.742157,123.064720 
	C297.971527,121.168953 287.954865,109.959854 288.011505,94.195152 
	C289.005737,94.138107 289.999939,94.031120 290.994171,94.031136 
	C359.356873,94.032021 427.719543,94.041489 496.646057,94.285355 
	C497.374664,94.731682 497.580231,94.889969 497.826599,94.995354 
	C497.881958,127.384834 497.942108,159.774323 497.989777,192.163803 
	C498.003937,201.798752 497.983124,211.433777 497.903015,221.531708 
z"/>
<path fill="#EEEEEE" opacity="1.000000" stroke="none" 
	d="
M466.899872,357.000519 
	C473.879578,357.000336 480.871674,356.746735 487.834747,357.086975 
	C492.664886,357.322968 494.109253,355.612823 494.090149,350.822723 
	C493.931213,310.939362 493.939514,271.054779 494.138916,231.171768 
	C494.151917,228.571625 496.158722,225.981461 497.536011,223.203262 
	C497.888794,251.756210 497.956451,280.492523 497.993622,309.228912 
	C498.015533,326.174133 497.989166,343.119446 497.908661,360.527283 
	C487.840057,360.995697 477.847321,361.001495 467.319611,360.612946 
	C466.823059,359.145905 466.861481,358.073212 466.899872,357.000519 
z"/>
<path fill="#EEEEEE" opacity="1.000000" stroke="none" 
	d="
M497.902252,94.775803 
	C497.580231,94.889969 497.374664,94.731682 497.111389,94.350739 
	C497.012939,94.180977 497.440979,94.049477 497.663300,94.075256 
	C497.885620,94.101044 497.977936,94.556252 497.902252,94.775803 
z"/>
<path fill="#7CB5E8" opacity="1.000000" stroke="none" 
	d="
M466.105988,177.993591 
	C466.174713,184.352127 466.243408,190.710678 466.405640,197.528870 
	C466.390106,202.310181 466.219055,206.631378 466.186005,210.953629 
	C466.131561,218.070129 466.169189,218.071274 458.821869,218.071899 
	C448.993378,218.072754 439.164917,218.068665 429.336426,218.072693 
	C367.534271,218.097992 305.732086,218.124924 243.074829,218.145905 
	C241.159729,218.191376 240.099716,218.242264 239.039688,218.293152 
	C236.878296,218.215271 234.716919,218.069809 232.555511,218.069366 
	C173.072693,218.057053 113.589676,217.993195 54.107433,218.178085 
	C49.033085,218.193848 47.688519,216.899307 47.738289,211.817215 
	C48.000969,184.994217 47.861462,158.167252 47.861465,131.341675 
	C47.861465,129.528412 47.861465,127.715141 47.861465,125.082306 
	C89.181793,125.082306 130.088684,125.082306 171.479523,125.574402 
	C171.972778,134.888214 171.961365,143.710022 171.996246,152.531647 
	C172.050232,166.187241 183.807007,178.000259 197.457214,178.002304 
	C287.006805,178.015732 376.556396,177.999878 466.105988,177.993591 
z"/>
<path fill="#9DC8EE" opacity="1.000000" stroke="none" 
	d="
M466.356262,177.669800 
	C376.556396,177.999878 287.006805,178.015732 197.457214,178.002304 
	C183.807007,178.000259 172.050232,166.187241 171.996246,152.531647 
	C171.961365,143.710022 171.972778,134.888214 171.941406,125.614136 
	C193.974823,125.096771 216.030289,125.031776 239.020187,124.970100 
	C265.305145,124.942238 290.655701,124.911064 316.006256,124.879883 
	C363.955353,124.921852 411.904449,124.964279 459.853546,125.005257 
	C466.884796,125.011269 466.915619,125.008224 466.882019,131.932541 
	C466.808502,147.070450 466.700500,162.208191 466.356262,177.669800 
z"/>
<path fill="#EF4B52" opacity="1.000000" stroke="none" 
	d="
M70.710648,381.653503 
	C57.573017,369.468903 50.355850,354.135376 48.203716,336.644043 
	C43.360950,297.284729 67.693687,261.666595 105.969635,251.754913 
	C111.866386,250.227921 118.109993,250.040390 124.617096,249.775085 
	C125.061333,275.828552 125.081657,301.340332 124.914986,327.138702 
	C106.722206,345.501373 88.716431,363.577454 70.710648,381.653503 
z"/>
<path fill="#4E6575" opacity="1.000000" stroke="none" 
	d="
M70.899086,381.976166 
	C88.716431,363.577454 106.722206,345.501373 125.372002,327.166260 
	C151.483231,326.915741 176.950455,326.924225 202.417679,326.932739 
	C202.816360,345.539734 196.489578,361.799866 184.936386,376.115936 
	C156.740860,411.054199 102.803352,413.944641 70.899086,381.976166 
z"/>
<path fill="#EC7278" opacity="1.000000" stroke="none" 
	d="
M466.839447,356.534912 
	C466.861481,358.073212 466.823059,359.145905 466.845062,360.617737 
	C466.861877,387.127106 466.822601,413.237335 466.766113,439.347504 
	C466.761810,441.337555 466.635590,443.327362 465.881714,445.663635 
	C462.201660,446.006592 459.205933,446.003601 456.210205,445.999725 
	C445.493225,445.985870 440.018463,440.519226 440.016022,429.789856 
	C440.003479,374.868073 439.998108,319.946289 439.990234,265.024536 
	C447.291656,264.962280 454.605194,265.130615 461.889832,264.748413 
	C466.035278,264.530914 466.833282,266.136047 466.814850,269.897949 
	C466.679688,297.459106 466.741577,325.021210 466.743683,352.583038 
	C466.743774,353.745117 466.766724,354.907196 466.839447,356.534912 
z"/>
<path fill="#FFAB05" opacity="1.000000" stroke="none" 
	d="
M202.534607,326.517578 
	C176.950455,326.924225 151.483231,326.915741 125.558998,326.879700 
	C125.081657,301.340332 125.061333,275.828552 125.041611,249.879791 
	C150.371735,249.431183 170.770187,259.747467 186.400101,279.387939 
	C197.209930,292.971527 202.437286,308.720459 202.534607,326.517578 
z"/>
<path fill="#EF4A51" opacity="1.000000" stroke="none" 
	d="
M439.526917,264.957520 
	C439.998108,319.946289 440.003479,374.868073 440.016022,429.789856 
	C440.018463,440.519226 445.493225,445.985870 456.210205,445.999725 
	C459.205933,446.003601 462.201660,446.006592 465.676697,446.017853 
	C466.156036,452.494293 466.156036,458.962891 466.156036,466.315674 
	C458.387207,466.315674 450.810669,466.315643 443.234100,466.315643 
	C435.752838,466.315643 428.271545,466.315674 419.915924,466.315674 
	C419.915924,431.319885 419.915924,396.616364 419.915894,361.053406 
	C419.867096,359.128571 419.818298,358.063141 419.769531,356.997681 
	C419.818451,327.307892 419.867340,297.618134 419.930420,267.107269 
	C420.631744,265.730682 421.318909,265.175171 422.006073,264.619629 
	C427.691895,264.709930 433.377747,264.800262 439.526917,264.957520 
z"/>
<path fill="#7EB6E8" opacity="1.000000" stroke="none" 
	d="
M341.988556,357.000000 
	C342.028107,348.579681 342.219238,340.156067 342.035370,331.740601 
	C341.957947,328.196594 342.798676,326.613708 346.681793,326.858856 
	C351.781433,327.180786 356.914612,326.971497 362.505493,327.497925 
	C362.980865,362.631226 362.972687,397.257233 362.995239,431.883270 
	C363.000977,440.660339 368.080658,445.801483 376.874542,445.987823 
	C380.868134,446.072479 384.864166,446.044220 388.859070,446.067169 
	C388.896210,451.389313 388.829529,456.715027 389.011871,462.032196 
	C389.111237,464.930298 388.286743,466.226746 385.109192,466.194092 
	C372.135132,466.060944 359.156158,465.988586 346.184906,466.221558 
	C341.659576,466.302826 342.073120,463.659698 342.074280,460.746399 
	C342.087250,427.808807 342.070862,394.871246 342.068359,361.067444 
	C342.045776,359.134125 342.017151,358.067078 341.988556,357.000000 
z"/>
<path fill="#9DC8EE" opacity="1.000000" stroke="none" 
	d="
M388.906433,445.594238 
	C384.864166,446.044220 380.868134,446.072479 376.874542,445.987823 
	C368.080658,445.801483 363.000977,440.660339 362.995239,431.883270 
	C362.972687,397.257233 362.980865,362.631226 362.969727,327.544891 
	C370.415405,327.041840 377.870758,327.079010 385.321716,326.915497 
	C388.155609,326.853271 389.067017,327.973907 389.034058,330.716797 
	C388.932495,339.164642 389.018890,347.614777 389.028931,356.928711 
	C389.047302,358.855469 389.068970,359.917603 389.090668,360.979706 
	C389.045044,389.026917 388.999390,417.074127 388.906433,445.594238 
z"/>
<path fill="#FFAB03" opacity="1.000000" stroke="none" 
	d="
M310.985931,446.007935 
	C310.985931,452.608612 310.985931,459.209320 310.985931,466.053589 
	C295.520172,466.053589 280.473602,466.053589 265.141541,466.053589 
	C265.141541,440.373871 265.141541,414.984772 265.141541,388.970703 
	C271.500946,388.970703 277.766571,388.970703 284.508209,389.498657 
	C284.989990,403.953857 284.941223,417.881409 285.022034,431.808228 
	C285.070679,440.196503 290.721924,445.845154 299.048492,445.994446 
	C303.026459,446.065765 307.006714,446.007507 310.985931,446.007935 
z"/>
<path fill="#EEEEEE" opacity="1.000000" stroke="none" 
	d="
M315.901337,124.519043 
	C290.655701,124.911064 265.305145,124.942238 239.489349,124.938080 
	C239.020645,114.977249 239.017181,105.051758 239.017670,94.672424 
	C255.041489,94.165863 271.061340,94.113159 287.546356,94.127800 
	C287.954865,109.959854 297.971527,121.168953 313.742157,123.064720 
	C314.460358,123.151062 315.113159,123.781288 315.901337,124.519043 
z"/>
<path fill="#536A79" opacity="1.000000" stroke="none" 
	d="
M369.530762,253.852448 
	C367.107819,254.252182 364.685638,254.995178 362.261841,255.000366 
	C323.151215,255.083954 284.040405,255.073746 244.057526,255.083771 
	C241.807602,254.996109 240.429794,254.909424 239.051971,254.822739 
	C234.323074,250.124863 234.528625,247.056442 240.411636,243.535126 
	C241.686020,243.231628 242.342972,243.135452 242.999924,243.039291 
	C256.312836,243.114899 269.625702,243.238510 282.938690,243.255951 
	C309.410187,243.290619 335.881744,243.276749 362.353271,243.256622 
	C366.367981,243.253571 370.159393,243.500717 371.371277,248.996017 
	C370.777313,251.018524 370.154053,252.435486 369.530762,253.852448 
z"/>
<path fill="#4E6575" opacity="1.000000" stroke="none" 
	d="
M242.999466,274.121307 
	C251.301331,274.203979 259.603149,274.350311 267.905060,274.358002 
	C298.981232,274.386810 330.057526,274.340302 361.133575,274.407318 
	C365.164703,274.416016 369.812225,273.648468 371.282471,279.986145 
	C370.720459,282.083740 370.127747,283.467865 369.535034,284.851990 
	C369.535004,284.851990 369.201843,284.906281 368.745728,285.129700 
	C366.859650,285.640350 365.429657,285.927582 363.999695,286.214783 
	C334.772614,286.155243 305.545563,286.087311 276.318481,286.040649 
	C265.855286,286.023956 255.392029,286.058441 244.057175,286.069336 
	C241.806396,285.991547 240.427246,285.914032 239.048096,285.836548 
	C234.800232,281.481567 234.686707,279.481201 239.071899,275.046478 
	C240.796158,274.578918 241.897812,274.350098 242.999466,274.121307 
z"/>
<path fill="#FFC042" opacity="1.000000" stroke="none" 
	d="
M311.063232,445.543762 
	C307.006714,446.007507 303.026459,446.065765 299.048492,445.994446 
	C290.721924,445.845154 285.070679,440.196503 285.022034,431.808228 
	C284.941223,417.881409 284.989990,403.953857 284.969727,389.565643 
	C293.424255,389.104675 301.893341,389.104675 311.140503,389.104675 
	C311.140503,407.917694 311.140503,426.498657 311.063232,445.543762 
z"/>
<path fill="#8CBB59" opacity="1.000000" stroke="none" 
	d="
M57.075066,435.219391 
	C63.377171,435.220703 69.191231,435.301361 75.001526,435.188293 
	C77.783043,435.134186 78.846695,436.233276 78.812157,439.006531 
	C78.712875,446.976746 78.705139,454.950012 78.816360,462.919891 
	C78.855621,465.733429 77.730446,466.750061 74.988388,466.719421 
	C67.017929,466.630341 59.044998,466.621796 51.074856,466.723877 
	C48.284412,466.759644 47.236725,465.668274 47.276165,462.899597 
	C47.380234,455.593964 47.570881,448.272980 47.213467,440.983276 
	C46.986835,436.360992 48.509396,434.507477 53.101742,435.193726 
	C54.238865,435.363617 55.422966,435.219177 57.075066,435.219391 
z"/>
<path fill="#8CBB58" opacity="1.000000" stroke="none" 
	d="
M171.822815,440.175232 
	C171.496948,436.760468 172.183609,435.051666 175.767120,435.155762 
	C183.395721,435.377289 191.037704,435.337860 198.669083,435.171509 
	C201.980850,435.099335 202.982925,436.396149 202.913651,439.576416 
	C202.747467,447.207855 202.976151,454.848694 202.754074,462.477264 
	C202.713379,463.874969 201.332123,466.404846 200.510254,466.429474 
	C191.111023,466.711212 181.700302,466.608704 171.822800,466.608704 
	C171.822800,457.530457 171.822800,449.092041 171.822815,440.175232 
z"/>
<path fill="#8CBB58" opacity="1.000000" stroke="none" 
	d="
M109.778770,456.960449 
	C109.778557,449.658539 109.778557,442.849152 109.778557,435.291107 
	C119.620178,435.291107 129.046860,435.214508 138.466965,435.428223 
	C139.269943,435.446442 140.680878,437.384186 140.705078,438.455170 
	C140.893188,446.779938 140.913681,455.113708 140.686096,463.436462 
	C140.656036,464.535736 138.956696,466.496735 137.990463,466.521881 
	C128.865646,466.759247 119.732140,466.663086 109.778984,466.663086 
	C109.778984,463.293091 109.778984,460.373047 109.778770,456.960449 
z"/>
<path fill="#4F6676" opacity="1.000000" stroke="none" 
	d="
M242.999359,305.123352 
	C257.689484,305.190582 272.379578,305.257874 287.820953,305.389099 
	C290.056366,306.277344 291.540558,307.101624 293.024719,307.925903 
	C293.321014,309.054535 293.617310,310.183167 293.830933,311.952515 
	C292.683044,314.015625 291.617859,315.438019 290.552673,316.860413 
	C275.344543,316.946045 260.136414,317.031708 244.072723,317.116333 
	C242.149338,317.117706 241.081497,317.120056 240.013657,317.122437 
	C234.216232,313.031464 234.168198,309.350159 240.482574,305.612366 
	C241.732620,305.323120 242.365997,305.223236 242.999359,305.123352 
z"/>
<path fill="#EEEEEE" opacity="1.000000" stroke="none" 
	d="
M240.011688,317.521362 
	C241.081497,317.120056 242.149338,317.117706 243.610321,317.193939 
	C245.450912,330.410431 252.867722,339.985352 262.788025,347.810730 
	C271.148010,354.405396 280.794952,357.286743 291.582184,357.082062 
	C308.067200,356.769226 324.562531,357.000000 341.520996,357.000000 
	C342.017151,358.067078 342.045776,359.134125 342.032349,360.599731 
	C324.676361,360.998840 307.355194,361.316925 290.050079,360.925293 
	C264.277069,360.342010 244.234268,342.378265 240.011688,317.521362 
z"/>
<path fill="#EEEEEE" opacity="1.000000" stroke="none" 
	d="
M389.550720,360.986877 
	C389.068970,359.917603 389.047302,358.855469 389.063965,357.396057 
	C399.022736,356.998840 408.943176,356.998901 419.316589,356.998322 
	C419.818298,358.063141 419.867096,359.128571 419.843689,360.588867 
	C409.851257,360.987183 399.931000,360.990631 389.550720,360.986877 
z"/>
<path fill="#EEEEEE" opacity="1.000000" stroke="none" 
	d="
M242.999969,242.567780 
	C242.342972,243.135452 241.686020,243.231628 240.696945,243.312546 
	C239.910355,241.642822 239.102844,239.996597 239.063980,238.332413 
	C238.914871,231.950027 239.012466,225.561859 239.028839,218.734497 
	C240.099716,218.242264 241.159729,218.191376 242.612320,218.219757 
	C243.003250,226.231445 243.001617,234.163864 242.999969,242.567780 
z"/>
<path fill="#EEEEEE" opacity="1.000000" stroke="none" 
	d="
M242.999664,273.645203 
	C241.897812,274.350098 240.796158,274.578918 239.356918,274.809937 
	C239.020370,268.469574 239.021408,262.126984 239.037201,255.303558 
	C240.429794,254.909424 241.807602,254.996109 243.593842,255.153748 
	C243.668121,261.206146 243.333984,267.187622 242.999664,273.645203 
z"/>
<path fill="#EEEEEE" opacity="1.000000" stroke="none" 
	d="
M242.999588,304.647583 
	C242.365997,305.223236 241.732620,305.323120 240.779160,305.402832 
	C239.973129,302.283051 239.297516,299.198181 239.054916,296.079620 
	C238.815567,293.002747 239.014374,289.891815 239.034515,286.316162 
	C240.427246,285.914032 241.806396,285.991547 243.593811,286.141968 
	C243.667969,292.200531 243.333893,298.186188 242.999588,304.647583 
z"/>
<path fill="#FBA906" opacity="1.000000" stroke="none" 
	d="
M69.092888,62.443298 
	C62.790192,63.307995 59.050537,60.907158 58.534428,56.064754 
	C58.075455,51.758457 61.414375,47.790298 65.769470,47.632294 
	C69.502075,47.496872 72.270317,49.269115 73.473404,52.743916 
	C74.926842,56.941822 73.331604,60.168068 69.092888,62.443298 
z"/>
<path fill="#FBA905" opacity="1.000000" stroke="none" 
	d="
M134.413116,50.645962 
	C136.965240,54.773270 136.484390,58.316505 133.171265,61.185703 
	C130.377472,63.605137 127.104492,63.782585 124.010048,61.664856 
	C120.933426,59.559330 119.961082,56.496273 120.988754,52.948425 
	C122.625359,47.298355 128.776474,46.112770 134.413116,50.645962 
z"/>
<path fill="#FCAA05" opacity="1.000000" stroke="none" 
	d="
M93.349457,61.915268 
	C89.831276,59.362431 88.506020,56.025360 90.228020,52.605225 
	C91.254120,50.567230 93.920280,48.232498 95.966873,48.116989 
	C98.483727,47.974941 102.275612,49.337132 103.402161,51.276962 
	C104.656456,53.436756 104.467392,57.475544 103.227333,59.800800 
	C101.336800,63.345757 97.515076,63.942917 93.349457,61.915268 
z"/>
<path fill="#EEEEEE" opacity="1.000000" stroke="none" 
	d="
M421.979095,264.254791 
	C421.318909,265.175171 420.631744,265.730682 419.857147,266.644043 
	C418.858917,266.132965 417.750031,265.377960 417.148224,264.331360 
	C416.946411,263.980408 418.202454,262.183868 418.507416,262.255768 
	C419.716858,262.540894 420.813629,263.304016 421.979095,264.254791 
z"/>
<path fill="#EEEEEE" opacity="1.000000" stroke="none" 
	d="
M369.962341,284.887573 
	C370.127747,283.467865 370.720459,282.083740 371.445038,280.341949 
	C372.368988,280.922729 373.161072,281.861206 373.953186,282.799652 
	C372.765350,283.507477 371.577515,284.215302 369.962341,284.887573 
z"/>
<path fill="#EEEEEE" opacity="1.000000" stroke="none" 
	d="
M290.997009,316.895813 
	C291.617859,315.438019 292.683044,314.015625 293.903168,312.297516 
	C294.665588,313.095581 295.273071,314.189331 295.880554,315.283142 
	C294.400848,315.832489 292.921112,316.381836 290.997009,316.895813 
z"/>
<path fill="#EEEEEE" opacity="1.000000" stroke="none" 
	d="
M293.017456,307.517303 
	C291.540558,307.101624 290.056366,306.277344 288.283447,305.305725 
	C289.066223,304.470398 290.137756,303.782471 291.209320,303.094543 
	C291.809601,304.432587 292.409882,305.770660 293.017456,307.517303 
z"/>
<path fill="#EEEEEE" opacity="1.000000" stroke="none" 
	d="
M369.964783,253.888184 
	C370.154053,252.435486 370.777313,251.018524 371.528137,249.296265 
	C372.413208,249.950714 373.170776,250.910461 373.928314,251.870209 
	C372.751801,252.554764 371.575287,253.239334 369.964783,253.888184 
z"/>
<path fill="#EEEEEE" opacity="1.000000" stroke="none" 
	d="
M364.058411,286.552795 
	C365.429657,285.927582 366.859650,285.640350 368.645233,285.265320 
	C368.365967,286.376465 367.731079,287.575470 367.096191,288.774445 
	C366.103149,288.146576 365.110138,287.518707 364.058411,286.552795 
z"/>
</svg>