<svg version="1.1" id="Layer_1" xmlns="http://www.w3.org/2000/svg" xmlns:xlink="http://www.w3.org/1999/xlink" x="0px" y="0px"
	 width="100%" viewBox="0 0 512 512" enable-background="new 0 0 512 512" xml:space="preserve">
<path fill="#000000" opacity="1.000000" stroke="none" 
	d="
M120.000000,513.000000 
	C80.354820,513.000000 40.709637,513.000000 1.032227,513.000000 
	C1.032227,342.447266 1.032227,171.894516 1.032227,1.000000 
	C59.687119,1.000000 118.374901,1.000000 177.873627,1.219248 
	C176.450867,4.784791 172.494965,8.029368 172.290237,11.495501 
	C171.523544,24.476406 171.983398,37.529755 171.983398,50.670761 
	C228.589493,50.670761 285.633331,50.670761 342.994232,50.670761 
	C342.994232,38.704216 343.422119,27.039635 342.751617,15.438549 
	C342.530396,11.611228 339.484711,7.942072 337.704346,4.213084 
	C337.182434,3.119990 336.570587,2.069842 336.000000,1.000004 
	C394.968109,1.000000 453.936188,1.000000 512.952148,1.000000 
	C512.952148,171.542450 512.952148,342.084900 512.952148,513.000000 
	C473.313202,513.000000 433.625275,513.000000 393.129578,512.763916 
	C393.455414,511.614929 394.484924,510.513550 395.739990,509.820740 
	C402.457855,506.112732 405.135620,499.740448 405.870026,492.804688 
	C407.291107,479.383301 408.069855,465.891022 408.975922,452.418762 
	C410.060486,436.292816 410.994354,420.156708 412.004974,404.025726 
	C412.324493,398.925110 412.608093,393.820740 413.034088,388.728607 
	C414.322662,373.325104 415.724915,357.930969 416.983551,342.525085 
	C418.055969,329.398529 419.025726,316.263245 419.978210,303.127289 
	C421.348450,284.230927 422.717682,265.334106 423.979095,246.430267 
	C424.759186,234.739212 425.236969,223.027710 426.049744,211.339233 
	C426.470459,205.288544 427.592987,199.282028 427.909943,193.229996 
	C428.240509,186.917526 427.983704,180.574295 427.983704,174.384399 
	C313.880219,174.384399 199.526138,174.384399 84.646248,174.384399 
	C85.785576,188.419724 86.963799,202.031143 87.976501,215.654861 
	C89.063698,230.280945 89.999245,244.918320 90.993813,259.551239 
	C91.999664,274.350067 92.989136,289.150024 93.999878,303.948517 
	C94.987953,318.415192 96.005592,332.879913 96.988594,347.346924 
	C98.005417,362.311737 98.980942,377.279297 100.002785,392.243744 
	C100.979309,406.544495 102.069519,420.837891 102.969246,435.143341 
	C104.056870,452.436157 105.015755,469.737213 105.993362,487.036774 
	C106.576454,497.355072 109.110229,506.527954 119.618675,511.278290 
	C119.939644,511.423340 119.881432,512.407227 120.000000,513.000000 
M458.604340,96.128265 
	C457.527954,94.683571 456.414001,93.265167 455.381378,91.789848 
	C449.627777,83.569931 441.406342,79.137573 431.720551,79.121910 
	C315.260803,78.933479 198.800613,78.992226 82.340553,79.011971 
	C70.605263,79.013962 57.445484,88.432007 54.051525,99.731003 
	C49.521442,114.812309 53.214546,130.278030 51.807777,145.716095 
	C188.883987,145.716095 325.234894,145.716095 462.000305,145.716095 
	C462.000305,134.312256 462.309296,123.173683 461.862457,112.065514 
	C461.656738,106.951736 459.970795,101.897507 458.604340,96.128265 
z"/>
<path fill="#FC0005" opacity="1.000000" stroke="none" 
	d="
M120.468658,513.000000 
	C119.881432,512.407227 119.939644,511.423340 119.618675,511.278290 
	C109.110229,506.527954 106.576454,497.355072 105.993362,487.036774 
	C105.015755,469.737213 104.056870,452.436157 102.969246,435.143341 
	C102.069519,420.837891 100.979309,406.544495 100.002785,392.243744 
	C98.980942,377.279297 98.005417,362.311737 96.988594,347.346924 
	C96.005592,332.879913 94.987953,318.415192 93.999878,303.948517 
	C92.989136,289.150024 91.999664,274.350067 90.993813,259.551239 
	C89.999245,244.918320 89.063698,230.280945 87.976501,215.654861 
	C86.963799,202.031143 85.785576,188.419724 84.646248,174.384399 
	C199.526138,174.384399 313.880219,174.384399 427.983704,174.384399 
	C427.983704,180.574295 428.240509,186.917526 427.909943,193.229996 
	C427.592987,199.282028 426.470459,205.288544 426.049744,211.339233 
	C425.236969,223.027710 424.759186,234.739212 423.979095,246.430267 
	C422.717682,265.334106 421.348450,284.230927 419.978210,303.127289 
	C419.025726,316.263245 418.055969,329.398529 416.983551,342.525085 
	C415.724915,357.930969 414.322662,373.325104 413.034088,388.728607 
	C412.608093,393.820740 412.324493,398.925110 412.004974,404.025726 
	C410.994354,420.156708 410.060486,436.292816 408.975922,452.418762 
	C408.069855,465.891022 407.291107,479.383301 405.870026,492.804688 
	C405.135620,499.740448 402.457855,506.112732 395.739990,509.820740 
	C394.484924,510.513550 393.455414,511.614929 392.660919,512.763916 
	C302.312439,513.000000 211.624878,513.000000 120.468658,513.000000 
M294.000000,251.502808 
	C294.000000,309.943878 293.980103,368.384949 294.042694,426.825958 
	C294.047089,430.913177 294.722046,434.995941 294.980865,439.087433 
	C295.472748,446.863922 304.036469,451.358246 308.857056,450.981720 
	C315.884766,450.432770 321.977386,444.233154 321.980621,437.417297 
	C322.012726,369.818787 322.011414,302.220306 321.982269,234.621811 
	C321.979401,228.000687 315.764160,221.395508 309.423065,221.002441 
	C302.184021,220.553741 295.866882,225.506226 295.062286,232.756912 
	C294.409485,238.639694 294.332397,244.586380 294.000000,251.502808 
M206.192886,221.001205 
	C197.059464,221.005447 192.002548,226.091843 192.002289,235.292984 
	C192.000381,302.574921 191.999527,369.856873 192.003220,437.138824 
	C192.003632,444.665924 198.154785,450.981903 205.469040,450.999542 
	C212.729156,451.017059 218.992828,444.308563 218.993805,436.439331 
	C219.001984,369.990082 218.998138,303.540833 218.998428,237.091599 
	C218.998474,227.755432 216.248962,224.057617 206.192886,221.001205 
z"/>
<path fill="#FC0005" opacity="1.000000" stroke="none" 
	d="
M335.531342,1.000004 
	C336.570587,2.069842 337.182434,3.119990 337.704346,4.213084 
	C339.484711,7.942072 342.530396,11.611228 342.751617,15.438549 
	C343.422119,27.039635 342.994232,38.704216 342.994232,50.670761 
	C285.633331,50.670761 228.589493,50.670761 171.983398,50.670761 
	C171.983398,37.529755 171.523544,24.476406 172.290237,11.495501 
	C172.494965,8.029368 176.450867,4.784791 178.342285,1.219248 
	C230.354233,1.000000 282.708466,1.000000 335.531342,1.000004 
z"/>
<path fill="#FC0005" opacity="1.000000" stroke="none" 
	d="
M458.780182,96.472267 
	C459.970795,101.897507 461.656738,106.951736 461.862457,112.065514 
	C462.309296,123.173683 462.000305,134.312256 462.000305,145.716095 
	C325.234894,145.716095 188.883987,145.716095 51.807777,145.716095 
	C53.214546,130.278030 49.521442,114.812309 54.051525,99.731003 
	C57.445484,88.432007 70.605263,79.013962 82.340553,79.011971 
	C198.800613,78.992226 315.260803,78.933479 431.720551,79.121910 
	C441.406342,79.137573 449.627777,83.569931 455.381378,91.789848 
	C456.414001,93.265167 457.527954,94.683571 458.780182,96.472267 
z"/>
<path fill="#000000" opacity="1.000000" stroke="none" 
	d="
M294.000000,251.003754 
	C294.332397,244.586380 294.409485,238.639694 295.062286,232.756912 
	C295.866882,225.506226 302.184021,220.553741 309.423065,221.002441 
	C315.764160,221.395508 321.979401,228.000687 321.982269,234.621811 
	C322.011414,302.220306 322.012726,369.818787 321.980621,437.417297 
	C321.977386,444.233154 315.884766,450.432770 308.857056,450.981720 
	C304.036469,451.358246 295.472748,446.863922 294.980865,439.087433 
	C294.722046,434.995941 294.047089,430.913177 294.042694,426.825958 
	C293.980103,368.384949 294.000000,309.943878 294.000000,251.003754 
z"/>
<path fill="#000000" opacity="1.000000" stroke="none" 
	d="
M206.612930,221.004242 
	C216.248962,224.057617 218.998474,227.755432 218.998428,237.091599 
	C218.998138,303.540833 219.001984,369.990082 218.993805,436.439331 
	C218.992828,444.308563 212.729156,451.017059 205.469040,450.999542 
	C198.154785,450.981903 192.003632,444.665924 192.003220,437.138824 
	C191.999527,369.856873 192.000381,302.574921 192.002289,235.292984 
	C192.002548,226.091843 197.059464,221.005447 206.612930,221.004242 
z"/>
</svg>