<svg version="1.1" id="Layer_1" xmlns="http://www.w3.org/2000/svg" xmlns:xlink="http://www.w3.org/1999/xlink" x="0px" y="0px"
	 width="100%" viewBox="0 0 255 255" enable-background="new 0 0 255 255" xml:space="preserve">
<path fill="#000000" opacity="1.000000" stroke="none" 
	d="
M1.000000,100.000000 
	C1.000000,66.666672 1.000000,33.833344 1.000000,1.000009 
	C84.666649,1.000000 168.333344,1.026827 251.999802,0.904049 
	C255.423965,0.899024 256.101135,1.575621 256.095978,5.000080 
	C255.972717,87.333214 255.972763,169.666626 256.095978,251.999756 
	C256.101135,255.423843 255.424515,256.101166 251.999969,256.096008 
	C169.666840,255.972733 87.333435,255.972717 5.000297,256.095947 
	C1.576300,256.101105 0.892855,255.425491 0.902461,251.999878 
	C1.044062,201.500229 1.000000,151.000046 1.000000,100.000000 
z"/>
<path fill="#222222" opacity="1.000000" stroke="none" 
	d="
M90.946968,137.869598 
	C92.818665,130.709427 98.079109,126.124580 101.922684,120.682678 
	C110.706459,108.246147 121.418388,97.340439 131.681900,86.192123 
	C136.519989,80.936966 142.663773,76.247887 148.810898,72.110603 
	C152.186508,69.838661 156.150070,69.241478 160.185242,71.113968 
	C162.425400,72.153488 164.483673,73.711967 167.446640,73.919189 
	C170.997787,74.943352 172.837433,77.511772 174.989838,80.215546 
	C176.228149,83.413818 177.157852,86.415215 180.809067,87.725647 
	C181.064774,87.936035 181.014847,87.989586 181.036743,87.965103 
	C187.266266,92.629494 186.336700,101.347786 183.186127,107.457993 
	C170.682861,131.706940 155.580750,154.196121 137.440063,175.121063 
	C133.770859,177.684067 130.010788,177.022781 125.894531,176.743042 
	C124.204399,176.067337 122.869904,175.640076 121.254814,174.845612 
	C119.151497,172.362335 121.107315,170.607635 121.851257,168.336746 
	C130.020996,160.809998 135.616119,151.603470 142.470596,143.452606 
	C143.992554,141.642807 146.324615,140.192093 146.647095,137.093430 
	C146.819092,136.526886 146.913513,136.308685 147.211914,135.798767 
	C151.552856,132.196396 155.405289,128.671829 156.678146,122.852814 
	C158.066711,118.221886 159.948471,114.322121 163.273575,111.059067 
	C166.457306,107.934753 168.715775,103.985832 171.337723,100.367966 
	C173.177658,97.829140 172.988693,95.488899 170.585907,93.342865 
	C167.123627,90.250542 163.554932,87.308449 159.684906,84.726601 
	C156.536728,82.626328 153.859253,82.947639 151.385483,85.828705 
	C148.256302,89.473068 145.567413,93.458641 142.367996,97.472664 
	C142.124603,98.006149 142.005829,98.209625 141.659531,98.682510 
	C136.302979,102.620064 133.801651,108.745049 128.483734,112.676971 
	C127.648651,113.183136 127.031891,113.400925 126.315567,114.055016 
	C125.689041,114.819641 125.248703,115.318108 124.483620,115.985855 
	C120.582115,118.226456 118.937477,122.008820 116.572868,125.092545 
	C109.781235,133.949707 102.988785,142.830978 97.402359,152.531113 
	C96.456116,154.174133 95.478226,155.156876 93.196136,154.480560 
	C91.946854,153.208511 92.498398,151.840729 92.044014,150.277618 
	C90.765144,146.099915 89.458809,142.302322 90.946968,137.869598 
z"/>
<path fill="#C4C4C4" opacity="1.000000" stroke="none" 
	d="
M206.826508,28.537668 
	C211.030914,23.416159 214.941833,18.498398 218.973602,13.681804 
	C220.355774,12.030578 221.412537,9.718359 224.591583,10.086614 
	C225.235977,10.336254 225.486008,10.562130 225.860306,10.999620 
	C226.015213,11.178185 226.394119,11.459214 226.620529,11.548143 
	C227.371063,11.766596 227.889801,11.913384 228.653168,12.282763 
	C229.371887,12.924310 229.690857,13.480256 229.921967,14.449232 
	C231.192795,19.731030 227.961685,22.970150 225.090363,25.918932 
	C220.477493,30.656208 217.124283,36.330444 212.791077,41.245914 
	C211.999786,42.143532 211.660217,43.268826 211.185730,44.675072 
	C210.953690,44.929661 210.989716,44.997486 210.958862,44.974617 
	C209.728546,45.758450 208.559799,46.626469 206.730759,46.840149 
	C204.325699,46.097260 204.066406,44.304951 203.633057,42.323090 
	C202.504044,41.713108 202.396500,42.623238 201.812714,43.345196 
	C199.054794,44.927059 198.644653,47.880768 196.543884,50.714706 
	C195.803665,52.276363 195.330032,52.942673 195.670013,54.104591 
	C196.050827,55.527821 196.233170,56.654915 195.976440,58.175243 
	C195.753342,58.761932 195.628983,58.986134 195.225327,59.483971 
	C194.262756,60.215141 193.483887,60.374073 192.284317,60.562263 
	C188.874832,60.674313 186.447617,59.525219 184.463745,56.719387 
	C184.028366,55.496159 184.157578,54.691711 184.792694,53.585407 
	C192.604691,47.559044 197.494812,39.520802 203.675781,32.168774 
	C205.009247,31.052076 205.935928,30.030966 206.826508,28.537668 
z"/>
<path fill="#1C1C1C" opacity="1.000000" stroke="none" 
	d="
M137.244171,174.603271 
	C138.972534,168.917023 143.349045,165.162140 146.808640,160.806915 
	C160.593918,143.452911 172.337189,124.811867 182.323105,105.072083 
	C185.072388,99.637413 185.123840,93.885559 181.100586,88.311188 
	C184.369034,88.351074 184.976013,91.538757 186.902954,93.822258 
	C187.972061,96.390793 187.331284,98.734444 187.243439,101.423065 
	C184.956268,109.572433 180.589966,116.277992 176.797577,123.196159 
	C168.282455,138.729691 157.656448,152.898254 147.269180,167.198120 
	C145.250336,169.977417 142.612915,172.307388 139.917419,174.958328 
	C138.851135,175.309540 138.164322,175.213928 137.244171,174.603271 
z"/>
<path fill="#C6C7C6" opacity="1.000000" stroke="none" 
	d="
M184.568054,55.816010 
	C186.880524,57.052589 188.545349,58.856083 191.391815,58.955475 
	C193.099243,59.877045 195.010178,60.091263 195.656845,62.354919 
	C195.685532,64.751488 194.574173,66.339745 193.285828,68.227936 
	C192.708771,68.846024 192.331635,69.145386 191.587875,69.541260 
	C191.018280,69.712456 190.781555,69.744621 190.195465,69.720215 
	C189.652161,69.535255 189.458221,69.406868 189.023102,69.031670 
	C186.969681,66.785233 184.983826,65.008286 182.212616,63.735291 
	C181.606964,63.743538 181.694305,63.024086 181.592072,63.428211 
	C184.533768,64.772644 186.796463,66.513878 188.960754,68.962944 
	C189.347702,69.405113 189.486923,69.598885 189.735138,70.139610 
	C187.532303,76.064835 184.197235,80.798492 178.436172,83.877487 
	C176.309845,83.800766 175.488617,82.370262 174.179382,81.020927 
	C172.402100,78.252258 168.849365,77.777588 167.886063,74.306976 
	C172.357193,68.420509 176.903061,62.879536 181.749573,57.180023 
	C182.651321,56.351971 183.264069,55.701672 184.568054,55.816010 
z"/>
<path fill="#929292" opacity="1.000000" stroke="none" 
	d="
M136.604858,174.507690 
	C137.663452,174.577667 138.345291,174.797134 139.300568,175.044327 
	C134.854843,179.996063 129.631073,184.332504 123.933052,188.631866 
	C123.339729,189.593369 122.462105,189.742737 122.029274,190.717804 
	C118.783844,192.793182 115.593742,194.589478 112.062454,196.368988 
	C109.791321,197.412369 107.733910,196.938843 105.361717,196.701965 
	C102.744286,193.571274 104.580429,191.515900 106.835747,189.979599 
	C110.573914,187.433167 113.604477,184.190155 116.901199,180.692322 
	C117.296425,180.279449 117.456703,180.121704 118.097290,179.531799 
	C118.732620,178.962860 118.887634,178.826080 119.485748,178.281097 
	C120.071655,177.736572 120.214462,177.600266 120.571945,177.262360 
	C121.077232,176.798370 121.376587,176.546402 121.914474,176.121490 
	C122.466972,175.712479 122.810379,175.523926 123.448593,175.270081 
	C123.920486,175.156342 124.115265,175.139740 124.601372,175.156448 
	C128.671173,175.012222 132.449661,174.834702 136.604858,174.507690 
z"/>
<path fill="#8D8D8D" opacity="1.000000" stroke="none" 
	d="
M90.652695,137.649078 
	C91.921471,141.400818 92.864433,145.328323 93.835358,149.647430 
	C88.699745,157.723679 85.607834,166.545822 80.247437,174.501129 
	C79.254128,175.052444 78.532921,175.142639 77.423981,174.864014 
	C75.668297,172.284103 75.515717,169.667343 76.269508,166.988632 
	C79.237396,156.441696 83.501854,146.514847 90.652695,137.649078 
z"/>
<path fill="#AAAAAA" opacity="1.000000" stroke="none" 
	d="
M78.963928,174.193985 
	C81.149384,167.974762 85.314453,163.020432 87.287277,156.916855 
	C88.110115,154.371155 90.467934,151.756516 93.526993,150.092392 
	C94.136391,151.182693 94.197586,152.302567 93.392509,153.663849 
	C93.398094,154.186996 93.504662,154.382889 93.690369,154.905365 
	C93.807083,155.913849 93.541107,156.551971 93.459549,157.558899 
	C92.624146,160.750031 91.132500,163.302902 89.733551,166.266891 
	C89.196152,167.375656 88.587357,168.063385 88.207253,169.255661 
	C87.459732,170.734680 86.938766,171.983459 86.217102,173.052246 
	C83.782425,176.658020 83.951218,179.745285 87.474289,182.545273 
	C88.640182,183.471878 89.446220,184.760971 89.707626,186.652832 
	C89.621979,187.231644 89.542480,187.455276 89.206192,187.925476 
	C84.385071,185.684006 80.958382,182.056473 78.388138,177.257629 
	C78.073067,176.022644 78.013573,175.157852 78.963928,174.193985 
z"/>
<path fill="#9D9D9D" opacity="1.000000" stroke="none" 
	d="
M189.942047,69.120010 
	C190.191666,69.013176 190.673996,68.980103 190.908310,68.920670 
	C191.273178,68.728264 191.403732,68.595284 191.736298,68.269119 
	C192.781418,66.582611 193.624527,65.089287 194.673782,63.359470 
	C195.997177,61.749146 193.995270,60.541050 194.919952,58.944344 
	C195.168900,58.698017 195.238098,58.554703 195.199203,58.485283 
	C197.784653,53.677635 201.035248,49.454151 205.659790,46.046730 
	C207.408447,45.639153 208.804947,45.255409 210.564728,44.911709 
	C203.426788,53.060444 198.873016,63.231106 192.102356,71.855225 
	C188.542923,76.389053 184.085373,80.193932 181.096405,85.613472 
	C179.001999,86.683846 178.245132,85.465805 177.731659,83.542847 
	C183.440613,80.768600 185.266983,74.940834 188.942612,70.370743 
	C189.150177,69.692955 189.376694,69.421532 189.942047,69.120010 
z"/>
<path fill="#9D9D9D" opacity="1.000000" stroke="none" 
	d="
M211.293640,44.860283 
	C208.744019,41.869617 211.756546,40.080021 213.031403,38.386089 
	C217.972382,31.820896 223.388474,25.615086 228.488617,19.165510 
	C229.106354,18.384327 228.878510,16.934481 229.057800,15.391614 
	C229.599564,14.783793 230.057144,14.886350 230.599976,15.645988 
	C232.697723,17.597456 231.673645,19.332581 230.636078,20.671930 
	C224.368195,28.762922 217.980927,36.761444 211.293640,44.860283 
z"/>
<path fill="#737373" opacity="1.000000" stroke="none" 
	d="
M104.368439,194.955200 
	C106.646477,196.511612 108.891541,195.862381 111.361450,196.229156 
	C109.884850,199.479095 106.837357,197.546387 104.466530,197.769028 
	C102.145905,197.986969 99.495438,197.255676 97.338402,195.178375 
	C99.645256,193.029907 101.853386,193.496964 104.368439,194.955200 
z"/>
<path fill="#1C1C1C" opacity="1.000000" stroke="none" 
	d="
M177.476624,83.027924 
	C178.630325,84.067101 179.489273,84.965836 180.658905,85.900925 
	C180.996979,86.381645 181.024353,86.826004 181.058258,87.603195 
	C175.681442,89.107689 174.799881,85.396400 174.030502,81.099869 
	C175.043579,81.427269 176.112717,82.157372 177.476624,83.027924 
z"/>
<path fill="#9D9D9D" opacity="1.000000" stroke="none" 
	d="
M96.935204,195.020996 
	C94.854149,193.485962 92.748131,191.790329 90.415833,189.839676 
	C90.199699,189.316025 90.209846,189.047379 90.553574,188.550293 
	C93.655365,187.615616 95.524948,189.076706 97.427643,191.296890 
	C97.910919,192.432251 97.892799,193.210922 97.284195,194.265259 
	C97.007881,194.550446 96.910248,194.860428 96.935204,195.020996 
z"/>
<path fill="#9D9D9D" opacity="1.000000" stroke="none" 
	d="
M228.291504,12.643195 
	C227.319977,12.894763 226.565125,12.978992 225.363617,12.997675 
	C224.943680,12.232561 224.970398,11.532991 224.980591,10.483694 
	C226.216141,10.189388 227.468216,10.244811 228.899109,10.636503 
	C229.017822,11.523010 228.891525,12.048162 228.291504,12.643195 
z"/>
<path fill="#8D8D8D" opacity="1.000000" stroke="none" 
	d="
M228.303925,13.018790 
	C228.254501,12.301168 228.434158,11.791803 228.845886,11.127605 
	C230.326569,12.138513 231.152542,13.484329 230.834351,15.639521 
	C230.334290,15.742538 229.914413,15.489479 229.283783,15.112560 
	C228.893036,14.401482 228.713028,13.814264 228.303925,13.018790 
z"/>
<path fill="#AAAAAA" opacity="1.000000" stroke="none" 
	d="
M184.910522,55.611816 
	C184.140701,56.298237 183.405319,56.649502 182.360077,57.011127 
	C181.498764,54.950142 183.386108,54.367023 184.704132,53.242630 
	C185.010864,53.929604 184.977905,54.603134 184.910522,55.611816 
z"/>
<path fill="#9D9D9D" opacity="1.000000" stroke="none" 
	d="
M206.734268,28.261635 
	C207.112000,30.065174 206.503265,31.404110 204.318268,31.953905 
	C203.571609,29.956383 205.328720,29.314367 206.734268,28.261635 
z"/>
<path fill="#8D8D8D" opacity="1.000000" stroke="none" 
	d="
M187.394775,101.644470 
	C187.061798,99.539268 187.078598,97.265846 187.063934,94.566727 
	C188.830490,96.434593 187.876709,98.995316 187.394775,101.644470 
z"/>
<path fill="#737373" opacity="1.000000" stroke="none" 
	d="
M78.947685,173.999313 
	C79.105682,174.829071 78.954048,175.634567 78.609467,176.677887 
	C78.039131,176.407959 77.661743,175.900192 77.175819,175.074799 
	C77.590874,174.496460 78.114464,174.235764 78.947685,173.999313 
z"/>
<path fill="#737373" opacity="1.000000" stroke="none" 
	d="
M122.248901,190.906723 
	C121.384064,190.943710 120.532814,190.925262 120.788483,190.115738 
	C121.105042,189.113388 122.167465,188.995193 123.428017,188.915802 
	C123.335281,189.554398 122.929573,190.185486 122.248901,190.906723 
z"/>
<path fill="#9D9D9D" opacity="1.000000" stroke="none" 
	d="
M89.016312,188.405823 
	C88.976723,187.939789 89.004051,187.707520 89.065407,187.126129 
	C90.200012,186.212067 90.973381,186.597595 91.578430,187.981003 
	C91.390678,188.557999 91.154167,188.767639 90.553612,189.280975 
	C89.820778,189.269638 89.452003,188.954620 89.016312,188.405823 
z"/>
<path fill="#323232" opacity="1.000000" stroke="none" 
	d="
M141.281769,98.191269 
	C143.371979,91.237526 148.206863,86.299171 153.290237,81.664459 
	C155.005676,80.100441 157.528015,80.932228 159.327148,82.264053 
	C163.974030,85.703888 168.629929,89.154877 173.022797,92.905289 
	C175.471115,94.995537 175.729858,98.061424 173.578659,100.498497 
	C169.677780,104.917747 167.350693,110.496262 162.475479,114.287910 
	C160.268295,116.004517 159.490662,119.559196 157.995346,122.620354 
	C156.143021,126.602715 153.640793,129.735077 150.738770,133.032074 
	C150.285309,133.440445 150.075684,133.573593 148.754257,133.721130 
	C147.415359,133.629364 147.188293,133.523224 146.408630,132.936737 
	C141.830154,125.427368 135.581833,120.932846 128.240768,117.159439 
	C127.484489,116.752220 127.110306,116.431900 126.559303,115.753815 
	C126.256546,115.204346 126.169189,114.966690 126.055756,114.350464 
	C126.064781,113.460732 126.203896,112.979683 126.731247,112.278778 
	C130.551651,109.748810 132.220322,105.886108 134.850540,102.841019 
	C136.416946,101.027534 137.837463,98.944862 140.638702,98.068863 
	C146.461136,101.403015 150.381622,106.755951 156.064682,109.897072 
	C151.881561,105.249840 146.613266,101.957893 141.281769,98.191269 
z"/>
<path fill="#262626" opacity="1.000000" stroke="none" 
	d="
M92.782593,155.287384 
	C93.014763,154.816284 93.031960,154.640045 93.170341,154.227448 
	C94.284813,153.897919 95.216408,153.803528 95.778755,152.731049 
	C102.626213,139.671860 112.318329,128.592453 120.917679,116.753654 
	C121.453979,116.015320 122.504776,115.650688 123.658104,115.056107 
	C124.179131,115.154167 124.358253,115.308327 124.695282,115.779678 
	C125.351898,119.094543 123.327820,121.005013 121.799126,123.112625 
	C119.287270,126.575722 116.310905,129.719513 114.400230,134.014053 
	C109.231117,139.426376 105.850159,145.758316 101.225212,151.563782 
	C100.848946,152.186615 100.674904,152.540878 100.564430,153.174835 
	C100.645271,153.590790 100.709053,153.748688 100.930550,154.117310 
	C101.219582,154.456314 101.350899,154.584595 101.698318,154.899887 
	C102.522781,155.609573 103.086021,156.178024 103.821808,156.998123 
	C104.140762,157.377533 104.262482,157.530365 104.562973,157.907440 
	C104.865417,158.273254 104.989090,158.414825 105.311783,158.750595 
	C105.947029,159.312973 106.412910,159.636032 107.220612,160.007645 
	C110.857079,161.756989 113.304138,164.533997 116.382263,167.001572 
	C117.139816,167.445511 117.628731,167.738815 118.475281,167.817139 
	C118.925003,167.785370 119.104744,167.761749 119.554207,167.687256 
	C120.189163,167.571335 120.555984,167.516861 121.961761,167.735260 
	C123.358986,170.182434 121.484680,171.624359 121.126816,173.949570 
	C121.161835,175.493713 120.491882,176.102859 119.103729,176.434204 
	C113.369179,174.617477 109.484459,170.599121 105.155396,167.250610 
	C101.079094,164.097549 97.325691,160.535324 92.856018,157.337219 
	C92.555756,156.548248 92.523079,156.068222 92.782593,155.287384 
z"/>
<path fill="#AAAAAA" opacity="1.000000" stroke="none" 
	d="
M118.724136,175.907867 
	C119.610146,175.683319 120.224800,175.256210 120.972031,174.575745 
	C122.302940,173.970901 123.488808,173.854095 124.763138,174.849915 
	C124.724075,175.334869 124.569275,175.493500 124.320099,175.792358 
	C123.895760,176.184845 123.572800,176.442047 122.979843,176.853912 
	C122.502090,177.079575 122.322433,177.195923 122.091331,177.503662 
	C121.847404,177.993073 121.645767,178.317123 121.181473,178.804169 
	C120.970085,178.999573 121.008240,179.004654 121.002159,178.986389 
	C120.783669,179.212585 120.560341,179.446609 120.146690,179.833649 
	C119.967293,179.997086 120.006500,180.007202 120.002563,179.987335 
	C119.765701,180.235825 119.510162,180.480759 119.018044,180.859238 
	C115.461266,185.080551 112.369690,189.395172 107.284668,191.596909 
	C106.054459,192.129562 105.256516,193.272964 104.791435,194.886932 
	C102.316986,196.678375 100.082977,194.897049 97.388519,194.691086 
	C97.014633,193.968094 97.021385,193.385757 97.023102,192.510757 
	C99.726494,189.286926 103.439369,187.613495 106.474289,184.569504 
	C106.984505,183.978729 107.302315,183.665161 107.881088,183.137634 
	C108.468193,182.617599 108.817039,182.336349 109.436562,181.853516 
	C112.858345,180.019165 114.434067,176.060394 118.724136,175.907867 
z"/>
<path fill="#262626" opacity="1.000000" stroke="none" 
	d="
M147.722809,136.765564 
	C147.996368,141.117523 144.448090,143.120316 142.410812,145.955078 
	C137.914093,152.212067 133.048004,158.208313 128.208405,164.210800 
	C127.001450,165.707779 125.723503,167.326065 123.339775,167.944550 
	C122.999390,167.999390 123.000000,168.000000 122.998573,167.999084 
	C122.596481,167.754166 122.200417,167.502930 121.676727,166.918304 
	C122.022240,162.290024 125.574120,159.973099 127.859535,156.840347 
	C129.314041,154.846558 131.151459,153.157120 132.631927,150.753052 
	C132.876892,150.226532 132.988647,150.021393 133.299423,149.526306 
	C136.425659,146.142792 139.132828,142.858490 141.862320,139.593353 
	C143.021713,138.206436 144.186691,136.820694 146.416260,136.343384 
	C146.996628,136.398178 147.222198,136.469711 147.722809,136.765564 
z"/>
<path fill="#262626" opacity="1.000000" stroke="none" 
	d="
M147.758179,133.251526 
	C148.014343,133.011154 148.475677,132.974365 148.707031,132.970474 
	C149.122253,133.097916 149.306122,133.229263 149.742126,133.134125 
	C151.810516,129.193481 154.407898,126.062500 157.606049,123.050873 
	C157.394470,129.093002 153.345596,132.734497 148.360565,135.981018 
	C147.835114,135.835541 147.665634,135.674118 147.374725,135.183029 
	C147.225418,134.379318 147.308319,133.925491 147.758179,133.251526 
z"/>
<path fill="#262626" opacity="1.000000" stroke="none" 
	d="
M126.824005,111.842751 
	C127.006310,112.468620 126.997261,112.908447 126.983940,113.678436 
	C126.287102,114.440804 125.771721,114.123985 125.152069,113.321716 
	C125.209785,112.175240 125.269585,111.142906 126.824005,111.842751 
z"/>
<path fill="#1C1C1C" opacity="1.000000" stroke="none" 
	d="
M124.882233,113.280243 
	C125.495117,113.277756 125.988617,113.523949 126.730896,113.889381 
	C127.006386,114.182701 127.033104,114.356789 127.096588,114.792480 
	C126.605965,116.037727 125.745232,116.387497 124.340752,116.194870 
	C124.002663,115.870461 124.002129,115.696373 124.000793,115.261139 
	C124.254288,114.509651 124.508575,114.019295 124.882233,113.280243 
z"/>
<path fill="#1C1C1C" opacity="1.000000" stroke="none" 
	d="
M147.603256,134.948853 
	C147.996323,135.124969 147.998489,135.299393 148.002609,135.735382 
	C148.004578,135.996948 148.000183,136.493683 147.999023,136.741791 
	C147.816513,136.993088 147.635147,136.996262 147.181732,137.001495 
	C146.408401,136.229446 146.544418,135.549179 147.603256,134.948853 
z"/>
<path fill="#C6C7C6" opacity="1.000000" stroke="none" 
	d="
M205.882431,45.723473 
	C203.379929,50.706371 200.390152,55.089569 195.494919,58.285057 
	C194.809158,57.169743 194.458008,55.923626 194.051605,54.301819 
	C193.977203,53.053551 194.246902,52.253876 194.817780,51.233841 
	C195.021423,50.988857 194.990768,50.992931 194.995163,51.007759 
	C195.155060,50.861912 195.310577,50.701244 195.700256,50.299854 
	C197.809814,47.828156 199.131866,45.156952 201.534912,42.912689 
	C202.351913,41.369839 202.889023,40.020214 204.771027,39.830379 
	C206.929031,41.612808 204.475235,43.752464 205.882431,45.723473 
z"/>
<path fill="#8D8D8D" opacity="1.000000" stroke="none" 
	d="
M201.816101,42.806122 
	C201.249283,46.250317 198.223801,47.979980 196.470367,50.977501 
	C195.925156,50.930885 195.644455,50.689354 195.189240,50.232948 
	C196.786407,47.728462 197.370728,44.567894 200.506577,42.984047 
	C201.066483,42.811787 201.289413,42.699512 201.816101,42.806122 
z"/>
<path fill="#737373" opacity="1.000000" stroke="none" 
	d="
M218.739182,20.304453 
	C219.600693,17.604330 220.975616,16.020733 223.959641,14.983705 
	C223.043289,17.670080 221.376724,18.770109 219.849518,20.352917 
	C219.276993,20.616247 218.970688,20.694487 218.739182,20.304453 
z"/>
<path fill="#737373" opacity="1.000000" stroke="none" 
	d="
M212.913788,29.692764 
	C211.561798,30.691111 210.988159,31.991772 209.235489,32.212280 
	C209.193665,29.721750 210.989243,28.579340 212.687622,27.084518 
	C213.679672,27.750389 213.745163,28.600035 212.913788,29.692764 
z"/>
<path fill="#929292" opacity="1.000000" stroke="none" 
	d="
M202.353363,42.834259 
	C201.907349,43.007656 201.694824,42.990307 201.162933,42.948509 
	C201.311920,40.858154 201.390427,38.363132 204.886108,39.718002 
	C204.245117,40.890247 203.415985,41.766880 202.353363,42.834259 
z"/>
<path fill="#737373" opacity="1.000000" stroke="none" 
	d="
M214.656693,25.207174 
	C215.884430,23.203096 217.074280,21.687420 218.539062,20.003962 
	C218.944504,19.948511 219.075043,20.060843 219.394440,20.355591 
	C218.869034,22.419680 217.639252,23.921850 215.864685,25.412657 
	C215.269073,25.633978 214.943939,25.664778 214.656693,25.207174 
z"/>
<path fill="#E9E9E9" opacity="1.000000" stroke="none" 
	d="
M194.747955,58.780960 
	C195.902618,60.007801 196.464264,61.332302 195.199219,62.954353 
	C193.972946,61.912083 193.065948,60.701187 191.949753,59.226608 
	C192.602707,58.929913 193.464844,58.896904 194.747955,58.780960 
z"/>
<path fill="#737373" opacity="1.000000" stroke="none" 
	d="
M208.138031,34.211105 
	C207.664719,35.142212 207.187027,35.743061 206.709320,36.343906 
	C206.470505,36.041393 205.963852,35.602169 206.036987,35.458889 
	C206.463516,34.623264 206.478043,33.102921 208.138031,34.211105 
z"/>
<path fill="#C6C7C6" opacity="1.000000" stroke="none" 
	d="
M212.867706,29.848816 
	C212.771500,29.147572 213.045792,28.419657 213.166016,27.334095 
	C213.011932,26.976446 212.985489,26.991516 212.983261,27.006855 
	C213.380905,26.629187 213.857361,26.478748 214.714554,26.820791 
	C214.940521,28.321274 214.834061,29.553595 212.867706,29.848816 
z"/>
<path fill="#737373" opacity="1.000000" stroke="none" 
	d="
M194.736176,51.054283 
	C195.851517,52.015850 195.022263,52.698963 194.254059,53.687134 
	C192.612823,52.742008 193.797470,51.973877 194.736176,51.054283 
z"/>
<path fill="#737373" opacity="1.000000" stroke="none" 
	d="
M215.084549,26.813494 
	C214.546371,27.182814 214.074051,27.294971 213.291382,27.214663 
	C213.393677,26.372662 213.806320,25.723127 214.456757,24.896183 
	C214.848328,24.860254 215.002106,25.001736 215.375031,25.373201 
	C215.446259,25.920898 215.298325,26.238615 215.084549,26.813494 
z"/>
<path fill="#9D9D9D" opacity="1.000000" stroke="none" 
	d="
M225.016693,13.025892 
	C224.930069,13.075831 224.813889,13.759348 224.805328,12.996054 
	C224.916962,12.932131 224.985184,12.992843 225.016693,13.025892 
z"/>
<path fill="#737373" opacity="1.000000" stroke="none" 
	d="
M194.968781,50.265358 
	C195.313675,50.240433 195.609131,50.466816 196.053497,50.934830 
	C195.986877,51.268303 195.771362,51.360146 195.277710,51.237286 
	C194.972809,50.853943 194.946075,50.685303 194.968781,50.265358 
z"/>
<path fill="#E9E9E9" opacity="1.000000" stroke="none" 
	d="
M181.163330,63.297268 
	C184.695450,63.186485 187.277802,65.038818 188.957108,68.654922 
	C185.877106,67.999947 183.642029,65.740448 181.163330,63.297268 
z"/>
<path fill="#E9E9E9" opacity="1.000000" stroke="none" 
	d="
M181.010986,62.992805 
	C181.021439,62.984928 180.680557,62.802711 180.680557,62.802711 
	C180.680557,62.802711 180.909088,62.830021 180.946930,62.925797 
	C180.984756,63.021576 181.000549,63.000683 181.010986,62.992805 
z"/>
<path fill="#E9E9E9" opacity="1.000000" stroke="none" 
	d="
M189.891541,69.003632 
	C189.958817,69.282181 189.725983,69.551186 189.247070,69.925522 
	C189.003433,69.857704 189.005875,69.684547 189.008301,69.251495 
	C189.008301,68.991608 188.999969,69.000038 188.995483,69.004562 
	C189.191132,69.004082 189.391266,68.999092 189.891541,69.003632 
z"/>
<path fill="#E9E9E9" opacity="1.000000" stroke="none" 
	d="
M191.782013,68.182549 
	C191.845963,68.324272 191.697189,68.532234 191.317322,68.780533 
	C191.255493,68.629868 191.416504,68.439178 191.782013,68.182549 
z"/>
<path fill="#737373" opacity="1.000000" stroke="none" 
	d="
M120.202988,179.898300 
	C120.151924,179.718063 120.336555,179.439026 120.758629,179.064056 
	C120.810280,179.245270 120.624474,179.522385 120.202988,179.898300 
z"/>
<path fill="#737373" opacity="1.000000" stroke="none" 
	d="
M123.006683,176.896423 
	C123.023415,176.738281 123.330170,176.459427 123.924408,176.049835 
	C123.906830,176.204620 123.601768,176.490173 123.006683,176.896423 
z"/>
<path fill="#737373" opacity="1.000000" stroke="none" 
	d="
M121.231598,178.855301 
	C121.169807,178.676224 121.369545,178.352875 121.787125,177.835327 
	C121.834351,177.997757 121.663734,178.354385 121.231598,178.855301 
z"/>
<path fill="#737373" opacity="1.000000" stroke="none" 
	d="
M119.063324,180.916611 
	C119.029427,180.730148 119.257790,180.447220 119.742386,180.065887 
	C119.774277,180.251709 119.549927,180.535919 119.063324,180.916611 
z"/>
<path fill="#303030" opacity="1.000000" stroke="none" 
	d="
M109.211517,184.059616 
	C109.040054,184.691513 108.880585,184.889420 108.411369,185.032227 
	C106.846237,185.752823 105.392113,186.238480 103.608978,186.890945 
	C102.427536,186.836868 101.729698,186.514496 100.797485,185.810242 
	C100.026627,184.971848 99.734177,184.297501 99.510429,183.219482 
	C99.237534,181.762405 98.839104,180.780609 97.366905,180.199921 
	C94.841766,178.609665 92.354012,177.600204 90.015213,175.729828 
	C89.437965,174.351410 88.434410,173.854492 87.379166,172.906555 
	C86.741798,171.619675 86.981041,170.637222 87.304337,169.279388 
	C87.517761,168.116348 87.490784,167.320389 87.758377,166.177704 
	C89.187027,163.074890 90.427010,160.325577 91.872200,157.282684 
	C92.234825,156.782059 92.392250,156.575027 92.775787,156.685913 
	C95.105141,156.927307 96.975266,157.642624 98.447426,159.060959 
	C104.752602,165.135620 111.842522,170.222046 118.913963,175.774017 
	C116.393929,178.375610 113.792351,180.640778 110.884712,182.967636 
	C110.092842,183.128616 109.675629,183.351425 109.211517,184.059616 
z"/>
<path fill="#262626" opacity="1.000000" stroke="none" 
	d="
M87.692032,168.663483 
	C87.995476,170.059082 87.997719,171.121231 88.002380,172.581665 
	C87.629601,180.507370 93.607590,183.062225 98.546249,186.415115 
	C99.865341,187.310654 101.089188,186.303970 102.685059,186.025482 
	C104.500183,185.671570 105.977318,185.359253 107.835449,185.058319 
	C104.693054,187.368484 102.439621,191.543182 97.392403,192.181091 
	C95.390739,191.066376 93.763428,189.914658 91.881645,188.555664 
	C90.980667,187.877991 90.334160,187.407608 89.393547,186.857101 
	C81.779419,179.013626 81.779419,179.013626 86.425781,169.120544 
	C86.921936,168.702988 87.156387,168.516495 87.692032,168.663483 
z"/>
<path fill="#222222" opacity="1.000000" stroke="none" 
	d="
M87.998093,168.600830 
	C87.775482,168.984421 87.557724,168.971909 87.013733,168.924438 
	C86.911652,167.992981 87.135811,167.096497 87.653503,166.012100 
	C87.965675,166.617706 87.984314,167.411209 87.998093,168.600830 
z"/>
<path fill="#222222" opacity="1.000000" stroke="none" 
	d="
M92.999725,156.668579 
	C93.001907,157.003815 92.539505,157.003052 92.308456,156.996063 
	C92.230019,156.442368 92.382622,155.895660 92.766396,155.170731 
	C92.997551,155.439453 92.997543,155.886398 92.999725,156.668579 
z"/>
<path fill="#323131" opacity="1.000000" stroke="none" 
	d="
M147.993851,134.627472 
	C147.673996,135.439606 147.353806,135.928696 146.971649,136.710648 
	C143.246597,139.558319 141.218582,143.582947 138.214325,146.738052 
	C137.108444,147.899490 136.411789,149.438873 133.745880,150.140564 
	C130.283203,149.256973 129.713821,146.224777 127.183739,144.661011 
	C126.620995,144.214615 126.315102,143.949173 125.798721,143.483521 
	C125.300591,143.043808 125.026802,142.788712 124.550278,142.358398 
	C124.072411,141.965103 123.806915,141.736221 123.330276,141.361694 
	C122.971848,141.125900 122.831161,141.028122 122.485352,140.777069 
	C122.147591,140.517471 122.014961,140.411179 121.502365,139.970245 
	C121.000412,139.520828 120.878418,139.406021 120.397995,138.943359 
	C120.039574,138.595520 119.682648,138.247818 119.319580,137.904984 
	C118.829613,137.451294 118.702705,137.340454 118.164185,136.916107 
	C117.604897,136.500595 117.457237,136.398575 116.845512,135.985992 
	C115.835091,135.446899 115.258995,135.286133 114.374664,134.478394 
	C112.924370,132.549149 112.896210,131.668777 114.272446,129.927185 
	C117.638138,125.668037 121.389252,121.631073 123.946182,116.384033 
	C124.823639,115.730659 125.644089,115.416771 126.798950,115.078491 
	C127.374252,115.173409 127.581657,115.335564 127.870529,115.704369 
	C133.750748,121.569702 140.118164,126.563637 146.736389,131.798431 
	C147.013779,132.008057 146.999313,131.999557 146.993652,131.993271 
	C147.220093,132.210571 147.443100,132.442902 147.834656,132.847626 
	C148.012344,133.011261 148.001541,133.001755 148.007935,133.006454 
	C148.007401,133.442245 148.000458,133.873337 147.993851,134.627472 
z"/>
<path fill="#1C1C1C" opacity="1.000000" stroke="none" 
	d="
M146.877167,131.672607 
	C143.315414,132.718674 141.151108,129.996796 139.072678,127.915321 
	C135.354156,124.191360 129.516693,122.497894 127.998810,116.247269 
	C131.157654,115.766510 133.861771,116.892036 135.806610,119.358810 
	C139.166565,123.620491 145.890579,124.804596 146.877167,131.672607 
z"/>
<path fill="#1C1C1C" opacity="1.000000" stroke="none" 
	d="
M141.007004,97.985764 
	C148.989120,99.067093 153.610443,105.286110 159.220795,109.969078 
	C159.998199,110.617996 160.123978,111.853851 159.065659,112.541351 
	C157.855667,113.327385 156.255463,113.331673 155.329041,112.409798 
	C150.675995,107.779587 144.420715,104.773918 141.122787,98.318352 
	C140.977280,98.012459 141.000916,97.998344 141.007004,97.985764 
z"/>
<path fill="#E9E9E9" opacity="1.000000" stroke="none" 
	d="
M158.691147,101.629272 
	C156.383789,100.549080 153.085327,100.143333 153.857300,96.744957 
	C154.171127,95.363457 155.231644,92.912651 156.806366,93.215996 
	C158.576630,93.556992 160.657867,95.081314 161.512482,96.675797 
	C162.600525,98.705811 160.041168,99.905510 158.691147,101.629272 
z"/>
<path fill="#E9E9E9" opacity="1.000000" stroke="none" 
	d="
M145.482056,118.337677 
	C141.955994,122.125671 140.425598,118.124779 139.167267,116.684570 
	C137.723389,115.032013 140.104324,113.545952 141.268188,112.309631 
	C142.162949,111.359184 143.638535,112.127472 143.631805,112.926933 
	C143.614044,115.035027 148.900330,114.847466 145.482056,118.337677 
z"/>
<path fill="#AAAAAA" opacity="1.000000" stroke="none" 
	d="
M148.402542,114.879898 
	C146.957245,113.801849 148.439468,112.632156 148.104507,111.445343 
	C148.385422,111.579193 148.688477,111.680199 148.943649,111.852234 
	C150.551270,112.936172 149.187485,113.819443 148.402542,114.879898 
z"/>
<path fill="#1C1C1C" opacity="1.000000" stroke="none" 
	d="
M147.891342,132.795425 
	C147.705765,132.874374 147.448868,132.673843 147.114822,132.198303 
	C147.300125,132.116699 147.560913,132.314240 147.891342,132.795425 
z"/>
<path fill="#1C1C1C" opacity="1.000000" stroke="none" 
	d="
M149.730621,132.928223 
	C149.720734,133.016251 149.447205,133.124878 149.056030,133.100037 
	C149.114594,132.960663 149.290802,132.954742 149.730621,132.928223 
z"/>
<path fill="#323131" opacity="1.000000" stroke="none" 
	d="
M133.846130,150.832977 
	C133.947922,154.565155 130.380814,155.682999 128.885239,158.318100 
	C127.197144,161.292374 124.545303,163.719650 122.143463,166.672333 
	C122.124870,167.129288 122.275398,167.298721 122.199120,167.721420 
	C121.972313,167.974686 121.984055,167.999115 121.986328,167.988434 
	C121.574852,168.439362 120.981873,168.485016 120.209549,168.819977 
	C119.980644,168.994263 120.001762,169.003891 120.002899,168.992340 
	C118.992111,169.796600 117.812546,169.418304 116.327080,169.213409 
	C112.856659,166.428116 109.749123,163.875443 106.354187,161.157349 
	C105.613953,160.561829 105.010849,160.513733 104.224594,160.167480 
	C103.998405,159.978745 103.995560,160.002594 104.007462,160.001190 
	C103.772903,159.784027 103.544632,159.550476 103.166862,159.120377 
	C102.865875,157.449127 101.709183,156.882370 100.305313,156.141022 
	C99.803154,155.765137 99.574417,155.541626 99.169044,155.155914 
	C99.005402,154.980392 98.998260,155.005035 99.010696,155.001495 
	C98.201981,153.988037 98.578796,152.811111 98.818970,151.343506 
	C102.902878,146.920624 105.743759,142.117310 108.964149,137.592697 
	C110.073128,136.034576 110.792175,133.959076 113.630318,134.012756 
	C113.994583,133.995178 113.993088,133.995331 113.988174,133.991760 
	C115.137123,134.720673 116.272751,135.473709 117.234901,136.936920 
	C121.790382,142.124115 127.199463,145.746185 132.713898,149.787750 
	C132.994003,149.995804 133.000000,150.000000 133.003082,150.002029 
	C133.277039,150.175430 133.506958,150.390549 133.846130,150.832977 
z"/>
<path fill="#1C1C1C" opacity="1.000000" stroke="none" 
	d="
M98.834213,151.224396 
	C99.059784,152.064560 99.043442,153.131165 99.025116,154.597870 
	C97.897507,153.934860 97.792313,152.747818 98.834213,151.224396 
z"/>
<path fill="#1C1C1C" opacity="1.000000" stroke="none" 
	d="
M116.205017,169.207611 
	C117.041801,168.983887 118.119408,168.986969 119.600525,168.985413 
	C118.941315,170.099350 117.748322,170.196289 116.205017,169.207611 
z"/>
<path fill="#1C1C1C" opacity="1.000000" stroke="none" 
	d="
M120.272224,168.957245 
	C120.456039,168.678406 120.931435,168.362534 121.697708,168.012207 
	C121.513657,168.291885 121.038734,168.606049 120.272224,168.957245 
z"/>
<path fill="#1C1C1C" opacity="1.000000" stroke="none" 
	d="
M104.196594,160.202148 
	C104.550575,160.172455 105.102753,160.366165 105.860855,160.775909 
	C105.509453,160.803131 104.952118,160.614349 104.196594,160.202148 
z"/>
<path fill="#1C1C1C" opacity="1.000000" stroke="none" 
	d="
M122.228455,167.983215 
	C121.968399,167.805710 121.964478,167.636734 121.967453,167.213806 
	C122.269081,167.116470 122.521736,167.324265 122.864731,167.790695 
	C122.826302,167.996033 122.655449,167.993896 122.228455,167.983215 
z"/>
<path fill="#1C1C1C" opacity="1.000000" stroke="none" 
	d="
M103.127579,159.155441 
	C103.296066,159.100952 103.550125,159.311874 103.890366,159.787079 
	C103.717659,159.846832 103.463188,159.636658 103.127579,159.155441 
z"/>
<path fill="#1C1C1C" opacity="1.000000" stroke="none" 
	d="
M99.134460,155.187286 
	C99.311378,155.114914 99.565834,155.314972 99.893829,155.791245 
	C99.721909,155.855530 99.470123,155.652939 99.134460,155.187286 
z"/>
<path fill="#262626" opacity="1.000000" stroke="none" 
	d="
M109.382942,184.228943 
	C109.375656,184.049271 109.666634,183.697449 110.268127,183.187469 
	C110.279495,183.371811 109.980347,183.714294 109.382942,184.228943 
z"/>
<path fill="#222222" opacity="1.000000" stroke="none" 
	d="
M133.998886,150.760132 
	C133.697296,150.880142 133.446381,150.682632 133.124893,150.214020 
	C133.006180,150.004059 133.504974,149.985168 133.754578,149.988068 
	C134.003265,150.161911 134.002350,150.332840 133.998886,150.760132 
z"/>
<path fill="#1C1C1C" opacity="1.000000" stroke="none" 
	d="
M102.833389,185.774445 
	C101.280807,189.162796 99.192947,189.399155 96.269356,187.235291 
	C93.509300,185.192459 90.721916,183.249695 88.251640,180.821167 
	C85.843788,178.454010 85.327545,176.215057 87.831329,173.288071 
	C88.677238,173.669937 91.413452,171.560623 90.190247,174.917603 
	C93.612450,178.253998 97.567879,180.872528 100.814896,184.787704 
	C101.586166,185.202942 102.114944,185.383987 102.833389,185.774445 
z"/>
<path fill="#E9E9E9" opacity="1.000000" stroke="none" 
	d="
M101.195297,184.699463 
	C96.251900,183.331223 92.671005,180.170914 90.067192,175.508118 
	C93.047585,175.108292 94.390266,177.770782 96.840309,179.130310 
	C98.948112,179.078079 99.453850,180.792831 100.724411,182.012268 
	C101.041603,183.023621 101.187408,183.700348 101.195297,184.699463 
z"/>
<path fill="#1C1C1C" opacity="1.000000" stroke="none" 
	d="
M100.867538,181.944611 
	C99.295792,182.142593 98.444267,180.912048 97.292961,179.534088 
	C99.008957,178.947769 100.379387,179.515182 100.867538,181.944611 
z"/>
<path fill="#222222" opacity="1.000000" stroke="none" 
	d="
M132.860046,149.674225 
	C125.344307,149.288849 121.594612,142.843140 116.141586,138.370270 
	C115.335136,136.551910 114.937874,135.103806 117.601501,134.769058 
	C118.014832,134.967133 118.000244,134.988388 118.009750,134.984558 
	C118.221764,135.220596 118.437103,135.448318 118.841118,135.820007 
	C119.016953,135.976135 119.001221,135.998657 119.012344,135.990875 
	C119.224426,136.223099 119.438782,136.450439 119.841904,136.820740 
	C120.017265,136.976364 120.000916,136.998779 120.012054,136.990799 
	C120.224228,137.222885 120.438675,137.450302 120.841957,137.820770 
	C121.017395,137.976425 121.000916,137.998779 121.011993,137.990784 
	C121.224243,138.222916 121.438782,138.450424 121.842163,138.821075 
	C122.017624,138.976837 122.000610,138.998779 122.011627,138.990692 
	C122.224312,139.222977 122.439262,139.450821 122.843025,139.822449 
	C123.018570,139.978745 123.000305,139.996002 123.009933,139.984253 
	C123.433647,140.459366 124.041473,140.488556 124.836975,140.809723 
	C125.351501,141.109314 125.584999,141.292465 125.897263,141.717484 
	C126.225403,142.177414 126.454453,142.429230 126.904793,142.819977 
	C130.565628,143.704788 131.734482,146.450653 132.860046,149.674225 
z"/>
<path fill="#C6C7C6" opacity="1.000000" stroke="none" 
	d="
M127.991920,133.186920 
	C126.278961,132.777283 124.565758,132.804642 125.069641,130.492447 
	C125.235161,129.732956 124.970978,128.610321 125.406197,128.231461 
	C126.545479,127.239708 127.546379,128.673401 128.411377,129.074799 
	C129.691742,129.668945 126.637283,131.708511 129.202484,132.846115 
	C129.049026,133.393036 128.679550,133.460083 127.991920,133.186920 
z"/>
<path fill="#E9E9E9" opacity="1.000000" stroke="none" 
	d="
M129.615784,133.891953 
	C130.828613,134.306931 131.613510,134.661880 132.726379,134.999359 
	C133.054321,134.981873 133.292053,135.368790 133.419647,135.180984 
	C133.793030,134.080872 134.038788,133.168579 134.284546,132.256271 
	C133.685623,134.028214 137.647461,135.444122 135.005280,137.033157 
	C132.963699,138.260986 130.826263,137.949783 129.658081,134.939056 
	C129.372864,134.377563 129.280365,134.104736 129.615784,133.891953 
z"/>
<path fill="#1C1C1C" opacity="1.000000" stroke="none" 
	d="
M117.752075,134.729553 
	C116.676079,135.212677 116.052444,136.050415 115.996529,137.730270 
	C115.394966,136.922287 114.816078,135.761063 114.110229,134.294037 
	C115.151955,134.156128 116.320641,134.324051 117.752075,134.729553 
z"/>
<path fill="#1C1C1C" opacity="1.000000" stroke="none" 
	d="
M124.870560,140.765717 
	C124.520004,140.794296 123.963425,140.609604 123.213211,140.198700 
	C123.567886,140.165802 124.116211,140.359116 124.870560,140.765717 
z"/>
<path fill="#E9E9E9" opacity="1.000000" stroke="none" 
	d="
M127.822716,133.349243 
	C128.083054,133.086472 128.453217,133.110580 129.101395,133.122559 
	C129.536621,133.213974 129.693848,133.317520 129.947388,133.686523 
	C130.043701,133.951981 129.760208,134.305634 129.612793,134.477997 
	C128.954422,134.312302 128.443497,133.974228 127.822716,133.349243 
z"/>
<path fill="#1C1C1C" opacity="1.000000" stroke="none" 
	d="
M120.898972,137.767578 
	C120.721619,137.841293 120.472847,137.646225 120.147141,137.187012 
	C120.327484,137.106613 120.579941,137.298599 120.898972,137.767578 
z"/>
<path fill="#1C1C1C" opacity="1.000000" stroke="none" 
	d="
M118.895302,135.769165 
	C118.719376,135.842117 118.469444,135.647079 118.143204,135.185867 
	C118.320152,135.110428 118.571617,135.304245 118.895302,135.769165 
z"/>
<path fill="#323232" opacity="1.000000" stroke="none" 
	d="
M133.424011,134.991074 
	C133.789703,135.586960 133.754120,135.871628 133.058990,135.205017 
	C133.054321,134.981873 133.300766,134.988968 133.424011,134.991074 
z"/>
<path fill="#1C1C1C" opacity="1.000000" stroke="none" 
	d="
M126.956924,142.767578 
	C126.830681,142.770615 126.553421,142.565979 126.146805,142.133942 
	C126.280273,142.124329 126.543091,142.342102 126.956924,142.767578 
z"/>
<path fill="#1C1C1C" opacity="1.000000" stroke="none" 
	d="
M122.899376,139.769882 
	C122.723137,139.841980 122.474258,139.646088 122.147278,139.186829 
	C122.326843,139.107712 122.579361,139.300522 122.899376,139.769882 
z"/>
<path fill="#1C1C1C" opacity="1.000000" stroke="none" 
	d="
M121.899284,138.767838 
	C121.722008,138.841293 121.473244,138.646042 121.147202,138.186951 
	C121.327339,138.106873 121.579964,138.298889 121.899284,138.767838 
z"/>
<path fill="#1C1C1C" opacity="1.000000" stroke="none" 
	d="
M119.898209,136.768341 
	C119.721275,136.841705 119.472252,136.646973 119.146835,136.187653 
	C119.324364,136.111359 119.576263,136.303772 119.898209,136.768341 
z"/>
<path fill="#A6272D" opacity="1.000000" stroke="none" 
	d="
M116.835220,155.707855 
	C117.968651,153.158249 118.704208,150.701630 121.958389,150.296722 
	C122.668198,154.799850 121.870453,158.315720 117.003258,159.553711 
	C112.974846,160.578339 110.682884,158.055756 109.244690,154.907761 
	C107.564392,151.229828 109.403831,147.801361 114.097725,145.259247 
	C115.736618,148.781555 112.230621,151.888168 113.443535,155.426727 
	C114.287186,157.888031 113.808586,158.052078 116.835220,155.707855 
z"/>
</svg>