<svg version="1.1" id="Layer_1" xmlns="http://www.w3.org/2000/svg" xmlns:xlink="http://www.w3.org/1999/xlink" x="0px" y="0px"
	 width="100%" viewBox="0 0 512 512" enable-background="new 0 0 512 512" xml:space="preserve">
<path fill="#000000" opacity="1.000000" stroke="none" 
	d="
M282.000000,513.000000 
	C188.022812,513.000000 94.545624,513.000000 1.034216,513.000000 
	C1.034216,342.397797 1.034216,171.795563 1.034216,1.096670 
	C171.560532,1.096670 342.121155,1.096670 512.840881,1.096670 
	C512.840881,171.666550 512.840881,342.333252 512.840881,513.000000 
	C436.128876,513.000000 359.314423,513.000000 282.000000,513.000000 
M133.927780,441.987183 
	C215.124191,441.992706 296.320618,441.998901 377.517029,441.996765 
	C378.677704,441.996735 379.838379,441.893311 381.927551,441.975922 
	C395.747589,441.985596 409.595612,441.470612 423.377014,442.205170 
	C431.420380,442.633850 442.528412,431.598846 442.219513,423.174347 
	C441.530579,404.384247 442.002167,385.551575 442.002167,366.736237 
	C442.002075,287.145752 442.026764,207.555206 441.906433,127.964897 
	C441.902008,125.035103 441.333435,121.377922 439.564728,119.312698 
	C433.771790,112.548462 427.302277,106.363632 420.830750,99.335205 
	C414.373230,92.878021 407.759216,86.568077 401.504486,79.920082 
	C395.845276,73.905014 389.420288,70.559433 380.069550,72.016220 
	C347.437531,72.010704 314.805542,71.986877 282.173523,72.004875 
	C250.043091,72.022591 217.912704,72.082695 184.880997,71.991226 
	C167.580719,72.045189 150.280441,72.099152 132.053604,72.020927 
	C118.566734,72.013832 105.079857,72.002419 91.592987,72.000984 
	C80.302322,71.999786 72.000343,80.396278 72.000275,91.809525 
	C71.999649,199.871658 71.999054,307.933807 72.006866,415.995941 
	C72.007011,417.990417 72.110580,419.984863 72.024376,422.822388 
	C70.201195,430.872833 81.212097,442.013123 88.672554,442.001282 
	C103.448807,441.977844 118.224960,441.895660 133.927780,441.987183 
z"/>
<path fill="#478CF7" opacity="1.000000" stroke="none" 
	d="
M380.997131,72.165672 
	C389.420288,70.559433 395.845276,73.905014 401.504486,79.920082 
	C407.759216,86.568077 414.373230,92.878021 420.784180,99.921913 
	C421.157227,107.421707 421.935364,114.334442 421.941895,121.247925 
	C422.025299,209.164734 421.997955,297.081635 421.530273,384.999146 
	C413.562561,385.004883 406.063385,385.018555 398.564209,385.011444 
	C394.899597,385.007935 392.968994,386.704071 393.010864,390.474884 
	C393.042328,393.307465 392.980194,396.141022 393.006805,398.973724 
	C393.066986,405.383514 394.434784,406.803833 401.019165,406.901062 
	C407.683746,406.999542 414.350800,406.928680 420.945557,407.285583 
	C417.053406,417.244995 410.225494,421.949677 399.994019,421.991974 
	C393.717285,422.017914 387.440399,422.007324 381.105652,421.546997 
	C381.031982,372.976257 381.016541,324.871735 380.999054,276.767181 
	C380.998505,275.269257 381.106781,273.756805 380.941101,272.276093 
	C380.388184,267.335510 375.917175,263.298889 370.608276,262.971008 
	C367.150635,262.636658 364.059326,262.495941 360.503357,262.314392 
	C328.566132,262.261169 297.093597,262.242859 265.621063,262.237915 
	C226.654922,262.231781 187.688782,262.229156 148.722641,262.241547 
	C137.089279,262.245270 133.022278,266.259277 133.015488,277.676300 
	C133.006577,292.663269 133.028854,307.650299 133.009933,322.637238 
	C132.968124,355.772339 132.908966,388.907440 132.397308,422.031921 
	C112.013786,422.007294 92.089836,421.993317 72.165894,421.979340 
	C72.110580,419.984863 72.007011,417.990417 72.006866,415.995941 
	C71.999054,307.933807 71.999649,199.871658 72.000275,91.809525 
	C72.000343,80.396278 80.302322,71.999786 91.592987,72.000984 
	C105.079857,72.002419 118.566734,72.013832 132.523819,72.545738 
	C132.996964,111.494934 132.997330,149.919312 133.004211,188.343704 
	C133.006561,201.441025 138.169449,206.743515 151.464050,206.864792 
	C165.268600,206.990723 179.075546,206.852478 193.207291,206.864441 
	C194.344482,206.664612 195.155823,206.430084 196.379333,206.237885 
	C198.436310,206.480148 200.081009,206.853943 201.725937,206.854889 
	C256.007965,206.885895 310.290039,206.913055 364.572021,206.854675 
	C375.359192,206.843063 380.999451,200.924789 381.001068,190.054291 
	C381.006836,150.758087 380.999512,111.461876 380.997131,72.165672 
M110.348236,406.929535 
	C111.179832,406.927216 112.012169,406.946991 112.842911,406.919067 
	C119.372887,406.699829 119.985573,406.084198 119.998589,399.705841 
	C120.005379,396.379456 119.908554,393.050568 120.008705,389.727295 
	C120.112152,386.294769 118.464333,384.912292 115.158577,384.990417 
	C111.834114,385.068970 108.506096,384.983490 105.179771,384.998627 
	C88.299126,385.075470 90.118622,383.079956 89.981689,400.790314 
	C89.946632,405.325012 92.083473,407.070557 96.411568,406.950134 
	C100.732521,406.829834 105.059532,406.927307 110.348236,406.929535 
z"/>
<path fill="#377DE2" opacity="1.000000" stroke="none" 
	d="
M381.163574,422.013153 
	C387.440399,422.007324 393.717285,422.017914 399.994019,421.991974 
	C410.225494,421.949677 417.053406,417.244995 421.208374,407.036835 
	C424.863708,402.657104 425.123474,390.456848 421.998779,384.998535 
	C421.997955,297.081635 422.025299,209.164734 421.941895,121.247925 
	C421.935364,114.334442 421.157227,107.421707 420.915283,100.232338 
	C427.302277,106.363632 433.771790,112.548462 439.564728,119.312698 
	C441.333435,121.377922 441.902008,125.035103 441.906433,127.964897 
	C442.026764,207.555206 442.002075,287.145752 442.002167,366.736237 
	C442.002167,385.551575 441.530579,404.384247 442.219513,423.174347 
	C442.528412,431.598846 431.420380,442.633850 423.377014,442.205170 
	C409.595612,441.470612 395.747589,441.985596 381.465088,441.449097 
	C381.056305,434.619202 381.109924,428.316193 381.163574,422.013153 
z"/>
<path fill="#2266D3" opacity="1.000000" stroke="none" 
	d="
M192.881454,206.829742 
	C179.075546,206.852478 165.268600,206.990723 151.464050,206.864792 
	C138.169449,206.743515 133.006561,201.441025 133.004211,188.343704 
	C132.997330,149.919312 132.996964,111.494934 132.987091,72.611832 
	C150.280441,72.099152 167.580719,72.045189 185.331757,72.270798 
	C185.782516,72.550377 185.954895,72.940468 185.838715,73.402847 
	C185.698502,112.922478 185.668106,151.979721 185.672531,191.036957 
	C185.672714,192.686218 185.996643,194.335449 186.151978,196.339325 
	C188.426132,199.509888 190.718033,202.325836 192.993027,205.424286 
	C192.944550,206.081100 192.912994,206.455429 192.881454,206.829742 
z"/>
<path fill="#D1D3D4" opacity="1.000000" stroke="none" 
	d="
M381.105652,421.546997 
	C381.109924,428.316193 381.056305,434.619202 381.000854,441.380188 
	C379.838379,441.893311 378.677704,441.996735 377.517029,441.996765 
	C296.320618,441.998901 215.124191,441.992706 133.462646,441.467712 
	C133.054062,437.955841 133.110580,434.963440 133.624756,431.976379 
	C210.892838,431.985779 287.703339,431.948669 364.513550,432.088867 
	C369.493591,432.097961 371.116302,430.733612 371.100037,425.615875 
	C370.928009,371.465881 370.982574,317.315186 370.974670,263.164673 
	C375.917175,263.298889 380.388184,267.335510 380.941101,272.276093 
	C381.106781,273.756805 380.998505,275.269257 380.999054,276.767181 
	C381.016541,324.871735 381.031982,372.976257 381.105652,421.546997 
z"/>
<path fill="#D0D3D5" opacity="1.000000" stroke="none" 
	d="
M185.954895,72.940460 
	C185.954895,72.940468 185.782516,72.550377 185.782410,72.337296 
	C217.912704,72.082695 250.043091,72.022591 282.173523,72.004875 
	C314.805542,71.986877 347.437531,72.010704 380.533325,72.090942 
	C380.999512,111.461876 381.006836,150.758087 381.001068,190.054291 
	C380.999451,200.924789 375.359192,206.843063 364.572021,206.854675 
	C310.290039,206.913055 256.007965,206.885895 201.725937,206.854889 
	C200.081009,206.853943 198.436310,206.480148 196.076752,206.137970 
	C194.577972,205.711075 193.793961,205.426437 193.009949,205.141785 
	C190.718033,202.325836 188.426132,199.509888 186.559540,196.382523 
	C190.121399,196.370178 193.257675,196.926590 196.394531,196.929916 
	C247.360474,196.984177 298.326477,196.968613 349.292480,196.967056 
	C350.791382,196.967010 352.294220,197.014801 353.788513,196.926483 
	C366.230927,196.191010 370.995514,191.121399 370.997253,178.626877 
	C371.001740,146.148544 370.999542,113.670204 370.998199,81.191872 
	C370.997864,73.007164 370.994781,73.005615 362.836060,73.002693 
	C303.875671,72.981567 244.915283,72.961128 185.954895,72.940460 
z"/>
<path fill="#377DE2" opacity="1.000000" stroke="none" 
	d="
M133.167114,431.971039 
	C133.110580,434.963440 133.054062,437.955841 132.999344,441.393005 
	C118.224960,441.895660 103.448807,441.977844 88.672554,442.001282 
	C81.212097,442.013123 70.201195,430.872833 72.095139,422.400879 
	C92.089836,421.993317 112.013786,422.007294 132.474182,422.014771 
	C133.010620,422.008301 133.155685,421.946960 133.095581,422.400146 
	C133.079361,425.892578 133.123245,428.931824 133.167114,431.971039 
z"/>
<path fill="#F1F2F2" opacity="1.000000" stroke="none" 
	d="
M132.933746,422.025421 
	C132.908966,388.907440 132.968124,355.772339 133.009933,322.637238 
	C133.028854,307.650299 133.006577,292.663269 133.015488,277.676300 
	C133.022278,266.259277 137.089279,262.245270 148.722641,262.241547 
	C187.688782,262.229156 226.654922,262.231781 265.621063,262.237915 
	C297.093597,262.242859 328.566132,262.261169 360.507355,262.759399 
	C360.983887,314.040375 360.946533,364.835632 361.076538,415.630463 
	C361.088226,420.203339 360.007568,422.101349 354.988434,422.091034 
	C281.044403,421.938965 207.099991,421.963989 133.155685,421.946960 
	C133.155685,421.946960 133.010620,422.008301 132.933746,422.025421 
M148.992035,363.036530 
	C148.995224,336.898499 148.991699,310.760437 149.006317,284.622406 
	C149.009995,278.048401 149.050201,278.012085 155.756424,278.010162 
	C187.221985,278.001190 218.687561,278.008453 250.153122,277.999207 
	C251.815323,277.998718 253.573898,278.217529 255.109818,277.750061 
	C256.385376,277.361816 258.250641,276.177521 258.322937,275.229126 
	C258.423828,273.905487 257.435211,271.815430 256.306580,271.237701 
	C254.503708,270.314880 252.203049,270.056641 250.111603,270.051758 
	C220.810486,269.983002 191.509186,270.003601 162.207916,270.006134 
	C157.213486,270.006561 152.218155,269.969360 147.224899,270.051025 
	C143.365143,270.114136 140.969910,271.650665 140.978928,276.036530 
	C141.038544,305.004669 140.940216,333.973572 141.169754,362.940002 
	C141.184448,364.792816 143.513550,366.627258 144.765976,368.470276 
	C146.166916,366.951141 147.567841,365.432037 148.992035,363.036530 
M273.243439,277.008453 
	C275.451965,275.091339 274.973724,273.107422 272.941620,271.645477 
	C271.946106,270.929291 269.596863,270.444153 269.135498,270.971008 
	C268.095795,272.158447 267.850433,274.041504 267.281860,275.641510 
	C269.061035,276.232147 270.840179,276.822784 273.243439,277.008453 
z"/>
<path fill="#E6E7E8" opacity="1.000000" stroke="none" 
	d="
M133.095581,422.400146 
	C207.099991,421.963989 281.044403,421.938965 354.988434,422.091034 
	C360.007568,422.101349 361.088226,420.203339 361.076538,415.630463 
	C360.946533,364.835632 360.983887,314.040375 360.972046,262.800232 
	C364.059326,262.495941 367.150635,262.636658 370.608276,262.971008 
	C370.982574,317.315186 370.928009,371.465881 371.100037,425.615875 
	C371.116302,430.733612 369.493591,432.097961 364.513550,432.088867 
	C287.703339,431.948669 210.892838,431.985779 133.624756,431.976379 
	C133.123245,428.931824 133.079361,425.892578 133.095581,422.400146 
z"/>
<path fill="#2266D3" opacity="1.000000" stroke="none" 
	d="
M421.530273,384.999146 
	C425.123474,390.456848 424.863708,402.657104 421.279602,406.683258 
	C414.350800,406.928680 407.683746,406.999542 401.019165,406.901062 
	C394.434784,406.803833 393.066986,405.383514 393.006805,398.973724 
	C392.980194,396.141022 393.042328,393.307465 393.010864,390.474884 
	C392.968994,386.704071 394.899597,385.007935 398.564209,385.011444 
	C406.063385,385.018555 413.562561,385.004883 421.530273,384.999146 
z"/>
<path fill="#2266D3" opacity="1.000000" stroke="none" 
	d="
M109.866058,406.929443 
	C105.059532,406.927307 100.732521,406.829834 96.411568,406.950134 
	C92.083473,407.070557 89.946632,405.325012 89.981689,400.790314 
	C90.118622,383.079956 88.299126,385.075470 105.179771,384.998627 
	C108.506096,384.983490 111.834114,385.068970 115.158577,384.990417 
	C118.464333,384.912292 120.112152,386.294769 120.008705,389.727295 
	C119.908554,393.050568 120.005379,396.379456 119.998589,399.705841 
	C119.985573,406.084198 119.372887,406.699829 112.842911,406.919067 
	C112.012169,406.946991 111.179832,406.927216 109.866058,406.929443 
z"/>
<path fill="#3477E4" opacity="1.000000" stroke="none" 
	d="
M192.993027,205.424286 
	C193.793961,205.426437 194.577972,205.711075 195.664581,206.095642 
	C195.155823,206.430084 194.344482,206.664612 193.207291,206.864441 
	C192.912994,206.455429 192.944550,206.081100 192.993027,205.424286 
z"/>
<path fill="#E6E7E8" opacity="1.000000" stroke="none" 
	d="
M185.838715,73.402847 
	C244.915283,72.961128 303.875671,72.981567 362.836060,73.002693 
	C370.994781,73.005615 370.997864,73.007164 370.998199,81.191872 
	C370.999542,113.670204 371.001740,146.148544 370.997253,178.626877 
	C370.995514,191.121399 366.230927,196.191010 353.788513,196.926483 
	C352.294220,197.014801 350.791382,196.967010 349.292480,196.967056 
	C298.326477,196.968613 247.360474,196.984177 196.394531,196.929916 
	C193.257675,196.926590 190.121399,196.370178 186.577301,196.027893 
	C185.996643,194.335449 185.672714,192.686218 185.672531,191.036957 
	C185.668106,151.979721 185.698502,112.922478 185.838715,73.402847 
M315.065948,172.819580 
	C315.166901,179.950119 317.159332,182.133316 324.041687,182.222275 
	C332.024506,182.325485 340.009766,182.282578 347.993713,182.244400 
	C355.456573,182.208725 357.993561,179.596832 357.996124,172.022537 
	C358.004150,148.236496 358.002747,124.450462 357.997040,100.664421 
	C357.995087,92.586929 356.223083,90.895050 347.127777,90.737488 
	C340.316010,90.689911 333.504303,90.608589 326.692505,90.602768 
	C316.805054,90.594322 315.384888,91.994095 315.372986,101.738731 
	C315.344330,125.171555 315.337708,148.604401 315.065948,172.819580 
z"/>
<path fill="#FFFFFF" opacity="1.000000" stroke="none" 
	d="
M148.980408,363.474731 
	C147.567841,365.432037 146.166916,366.951141 144.765991,368.470276 
	C143.513550,366.627258 141.184448,364.792816 141.169754,362.940002 
	C140.940216,333.973572 141.038544,305.004669 140.978928,276.036530 
	C140.969910,271.650665 143.365143,270.114136 147.224899,270.051025 
	C152.218155,269.969360 157.213486,270.006561 162.207916,270.006134 
	C191.509186,270.003601 220.810486,269.983002 250.111603,270.051758 
	C252.203049,270.056641 254.503708,270.314880 256.306580,271.237701 
	C257.435211,271.815430 258.423828,273.905487 258.322937,275.229126 
	C258.250641,276.177521 256.385376,277.361816 255.109818,277.750061 
	C253.573898,278.217529 251.815323,277.998718 250.153122,277.999207 
	C218.687561,278.008453 187.221985,278.001190 155.756424,278.010162 
	C149.050201,278.012085 149.009995,278.048401 149.006317,284.622406 
	C148.991699,310.760437 148.995224,336.898499 148.980408,363.474731 
z"/>
<path fill="#FFFFFF" opacity="1.000000" stroke="none" 
	d="
M272.931396,277.210938 
	C270.840179,276.822784 269.061035,276.232147 267.281860,275.641510 
	C267.850433,274.041504 268.095795,272.158447 269.135498,270.971008 
	C269.596863,270.444153 271.946106,270.929291 272.941620,271.645477 
	C274.973724,273.107422 275.451965,275.091339 272.931396,277.210938 
z"/>
<path fill="#377DE2" opacity="1.000000" stroke="none" 
	d="
M315.322205,172.037262 
	C315.337708,148.604401 315.344330,125.171555 315.372986,101.738731 
	C315.384888,91.994095 316.805054,90.594322 326.692505,90.602768 
	C333.504303,90.608589 340.316010,90.689911 347.567383,91.369308 
	C348.002625,115.472061 348.031891,138.943069 347.973419,162.413879 
	C347.955811,169.491592 345.360199,171.966873 338.293518,171.998703 
	C330.636536,172.033188 322.979309,172.026169 315.322205,172.037262 
z"/>
<path fill="#2266D3" opacity="1.000000" stroke="none" 
	d="
M315.194092,172.428421 
	C322.979309,172.026169 330.636536,172.033188 338.293518,171.998703 
	C345.360199,171.966873 347.955811,169.491592 347.973419,162.413879 
	C348.031891,138.943069 348.002625,115.472061 348.011475,91.537376 
	C356.223083,90.895050 357.995087,92.586929 357.997040,100.664421 
	C358.002747,124.450462 358.004150,148.236496 357.996124,172.022537 
	C357.993561,179.596832 355.456573,182.208725 347.993713,182.244400 
	C340.009766,182.282578 332.024506,182.325485 324.041687,182.222275 
	C317.159332,182.133316 315.166901,179.950119 315.194092,172.428421 
z"/>
</svg>