<svg version="1.1" id="Layer_1" xmlns="http://www.w3.org/2000/svg" xmlns:xlink="http://www.w3.org/1999/xlink" x="0px" y="0px"
	 width="100%" viewBox="0 0 255 255" enable-background="new 0 0 255 255" xml:space="preserve">
<path fill="#000000" opacity="1.000000" stroke="none" 
	d="
M115.000000,256.000000 
	C76.666672,256.000000 38.833340,256.000000 1.000005,256.000000 
	C1.000003,171.000000 1.000003,86.000015 1.000002,1.000016 
	C85.999992,1.000011 170.999985,1.000011 255.999969,1.000005 
	C255.999985,85.999985 255.999985,170.999969 256.000000,255.999969 
	C209.166672,256.000000 162.333328,256.000000 115.000000,256.000000 
M220.106445,155.924667 
	C220.106445,155.924667 220.130829,155.868912 220.709213,155.366592 
	C220.943588,154.912460 221.177948,154.458328 221.959732,153.771561 
	C222.992386,152.561859 224.025024,151.352142 225.562149,149.599060 
	C226.282654,148.354599 227.712967,147.045074 227.605865,145.876480 
	C227.011612,139.393143 226.043671,132.944092 225.200760,125.502563 
	C224.936844,124.575882 224.672913,123.649200 224.968674,122.370972 
	C227.098801,117.926498 222.475800,117.746750 220.393890,115.123840 
	C218.132095,113.436127 215.870300,111.748405 213.298798,109.503036 
	C203.658203,101.821793 193.888199,94.397453 180.314804,93.031425 
	C174.910156,92.715767 169.505508,92.400108 163.278748,91.884438 
	C159.396500,91.922836 155.511398,91.881187 151.632675,92.018997 
	C146.246002,92.210396 140.857590,92.446526 135.482529,92.837082 
	C132.017990,93.088821 128.576050,93.651787 124.362373,94.043350 
	C122.902863,94.367172 121.443359,94.690994 119.307762,95.011276 
	C118.858017,95.045753 118.408279,95.080231 117.058105,95.052338 
	C113.730728,95.550728 110.403343,96.049118 106.382111,96.516998 
	C101.348633,99.695717 96.315147,102.874435 90.635414,106.296867 
	C89.408356,107.299538 88.181290,108.302208 86.316750,108.914337 
	C81.147591,106.864792 79.084633,110.321503 76.625168,114.619270 
	C72.078651,115.453941 67.532135,116.288612 62.325726,117.048050 
	C58.511551,118.510735 54.600258,119.767838 50.917080,121.507812 
	C48.428638,122.683388 47.308804,124.845497 48.943436,127.767380 
	C48.943436,127.767380 48.998283,127.979103 48.280048,128.242203 
	C48.161324,129.498642 48.042603,130.755096 47.405750,131.941086 
	C47.231689,131.950195 47.057625,131.959320 46.183735,132.029297 
	C44.603737,134.693741 43.023735,137.358185 41.050674,140.635849 
	C39.732765,143.075500 39.449356,145.176147 42.882656,146.780701 
	C40.829109,148.655457 45.025982,152.608231 40.444710,154.606918 
	C40.557327,155.207458 40.669945,155.808014 40.800541,156.643829 
	C40.969322,156.954544 41.211777,157.117783 42.368610,157.391357 
	C48.235489,156.561798 54.102367,155.732254 60.906120,155.000473 
	C74.271744,155.408112 87.637367,155.815735 101.152802,156.639511 
	C101.547981,157.033844 101.943161,157.428162 103.045212,158.302658 
	C110.724380,158.903748 118.403557,159.504852 126.047112,160.811295 
	C125.454193,165.496567 130.684067,169.200317 135.842041,168.078079 
	C138.121429,167.582169 140.658508,167.536469 142.946060,167.976105 
	C146.840027,168.724472 149.716965,167.175568 151.432831,162.516296 
	C152.946259,161.005127 154.459671,159.493958 156.488968,158.028351 
	C156.661575,158.029541 156.834198,158.030746 157.940521,158.027115 
	C169.801773,157.666107 181.667068,157.395325 193.520599,156.862656 
	C195.707794,156.764389 197.847366,155.606857 200.673233,154.896240 
	C201.106934,154.982895 201.540634,155.069534 202.543777,155.536118 
	C203.505692,156.846771 204.479568,158.148849 205.425079,159.471222 
	C206.009430,160.288467 206.550583,161.136627 207.722626,162.440475 
	C210.723618,162.487610 214.522491,165.303360 216.736603,160.161270 
	C217.579819,159.803757 218.423035,159.446228 219.778564,158.628143 
	C219.876312,157.743668 219.974075,156.859192 220.106445,155.924667 
M121.140152,164.473038 
	C121.363335,164.521637 121.586510,164.570236 121.809692,164.618835 
	C121.639275,164.509491 121.468849,164.400146 121.140152,164.473038 
z"/>
<path fill="#F52329" opacity="1.000000" stroke="none" 
	d="
M49.083118,127.591690 
	C47.308804,124.845497 48.428638,122.683388 50.917080,121.507812 
	C54.600258,119.767838 58.511551,118.510735 62.628876,117.412804 
	C62.475803,118.857071 62.019585,119.936577 61.253082,121.750282 
	C64.658806,121.560509 67.342712,121.410950 70.392029,121.435265 
	C76.232727,121.733444 81.710312,122.016243 87.182632,121.936653 
	C92.454132,121.859970 97.720177,121.408798 103.365234,121.052994 
	C105.491219,120.651726 107.240585,120.319633 109.179413,120.134781 
	C109.911011,119.905853 110.453156,119.529694 111.299042,119.047302 
	C112.421951,118.697845 113.241119,118.454605 114.228607,118.466286 
	C116.499840,120.989319 115.102425,122.483528 113.349617,124.064026 
	C112.098373,125.192276 111.081024,126.579910 109.563927,127.913139 
	C108.112900,127.867004 107.057259,127.759529 105.885437,127.391914 
	C104.816605,127.117073 103.863960,127.102379 102.509720,127.116348 
	C99.363609,127.452286 96.619087,127.759552 93.420639,128.000824 
	C80.898872,127.989944 68.831055,128.045044 56.493393,128.195709 
	C55.686455,128.507797 55.149357,128.724304 54.404076,128.883514 
	C53.908913,128.797562 53.625366,128.748901 53.457859,128.405396 
	C52.369274,128.071060 51.168083,128.011566 49.758308,127.831650 
	C49.549725,127.711235 49.083118,127.591690 49.083118,127.591690 
z"/>
<path fill="#8B0303" opacity="1.000000" stroke="none" 
	d="
M108.989960,119.987534 
	C107.240585,120.319633 105.491219,120.651726 102.900192,121.002625 
	C91.381241,121.101410 80.703926,121.181404 70.026619,121.261391 
	C67.342712,121.410950 64.658806,121.560509 61.253082,121.750282 
	C62.019585,119.936577 62.475803,118.857071 62.958820,117.450424 
	C67.532135,116.288612 72.078651,115.453941 77.310562,114.339684 
	C80.061172,113.953354 82.126396,113.846619 84.698837,113.793869 
	C89.090622,113.772949 92.975182,113.698044 97.320740,113.707565 
	C100.804550,113.717262 103.827339,113.642540 107.241089,113.612442 
	C108.408890,113.579773 109.185738,113.502464 110.333565,113.485992 
	C111.205002,113.540466 111.705475,113.534096 112.630112,113.619156 
	C115.690742,113.626892 118.327217,113.543213 121.423126,113.560486 
	C125.826134,113.655663 129.769714,113.649887 134.094574,113.691597 
	C134.985641,113.704208 135.495407,113.669342 136.419357,113.719154 
	C138.230286,113.737190 139.627029,113.670540 141.403854,113.709702 
	C142.275040,114.000099 142.766129,114.184669 142.927521,114.561188 
	C139.348083,115.399391 136.098373,116.045654 132.425003,116.718895 
	C126.021004,117.234367 120.040642,117.722870 114.060287,118.211365 
	C113.241119,118.454605 112.421951,118.697845 111.018806,119.058151 
	C109.953201,119.445999 109.471581,119.716766 108.989960,119.987534 
z"/>
<path fill="#1F0707" opacity="1.000000" stroke="none" 
	d="
M207.111130,161.970901 
	C206.550583,161.136627 206.009430,160.288467 205.425079,159.471222 
	C204.479568,158.148849 203.505692,156.846771 202.649597,155.245575 
	C203.937881,153.966644 205.899979,153.150146 206.162567,151.958969 
	C207.103729,147.689636 207.469574,143.293457 208.245682,138.650238 
	C208.962982,136.965439 209.399414,135.534393 210.026932,134.192734 
	C213.328323,127.134018 217.203400,126.805588 221.896378,133.549957 
	C222.379868,137.860336 222.579834,141.803909 223.142868,145.694962 
	C223.366089,147.237503 224.395401,148.663437 225.057678,150.142456 
	C224.025024,151.352142 222.992386,152.561859 221.609619,153.633514 
	C221.193298,153.146942 221.127075,152.798416 221.225311,152.063843 
	C221.249084,149.359940 221.108383,147.042114 221.038467,144.429993 
	C220.520630,143.075562 219.932007,142.015411 218.952240,140.902618 
	C218.300415,140.881927 218.039764,140.913879 217.584656,140.955795 
	C217.390198,140.965744 217.000992,140.978638 216.936432,140.726273 
	C216.841125,140.302994 216.810394,140.132065 216.871338,139.637054 
	C217.038376,138.870087 217.113739,138.427216 217.339279,137.857849 
	C217.680542,137.551086 217.849915,137.352325 218.048660,136.898682 
	C217.016266,137.045120 215.932800,137.427902 214.627045,138.031036 
	C214.171173,138.829315 213.937576,139.407227 213.441483,140.098694 
	C213.419281,141.412048 213.659561,142.611877 213.687836,144.041809 
	C212.623581,144.756149 211.161255,145.105362 211.019333,145.746735 
	C210.175232,149.561249 209.739655,153.464706 208.946396,157.292618 
	C208.611359,158.909393 207.739166,160.414841 207.111130,161.970901 
z"/>
<path fill="#140C0C" opacity="1.000000" stroke="none" 
	d="
M136.005173,113.634468 
	C135.495407,113.669342 134.985641,113.704208 133.794861,113.545044 
	C130.160538,113.119476 128.566254,111.680229 129.011414,108.572861 
	C129.708694,103.705482 127.171585,102.463234 122.606934,102.904144 
	C121.510811,100.175598 120.747330,97.595207 119.983849,95.014824 
	C121.443359,94.690994 122.902863,94.367172 124.853645,94.322021 
	C125.892044,94.694916 126.439178,94.789131 127.361725,94.948227 
	C128.492844,94.950264 129.248566,94.887428 130.451447,94.858902 
	C133.582596,94.972664 136.266586,95.052101 138.801254,95.479897 
	C137.769699,101.763657 136.887436,107.699059 136.005173,113.634468 
z"/>
<path fill="#FA7F85" opacity="1.000000" stroke="none" 
	d="
M224.408997,122.722511 
	C224.672913,123.649200 224.936844,124.575882 225.078552,126.275627 
	C224.618942,128.331436 224.281540,129.614166 223.595764,130.923538 
	C219.498581,125.087479 213.555908,126.259514 207.535385,126.129189 
	C201.717560,126.157356 196.363297,126.251106 190.743332,126.262772 
	C190.293671,126.157661 190.109711,126.134644 189.989899,125.739380 
	C191.609940,124.619148 193.094650,123.587547 194.734940,123.175957 
	C199.791931,121.907021 204.908325,120.874878 210.409470,119.777695 
	C213.859421,119.375313 216.901550,118.945961 220.208496,118.649887 
	C221.130707,119.186424 221.788101,119.589668 222.659988,120.292999 
	C223.322342,121.188751 223.770233,121.784409 224.174500,122.476418 
	C224.130859,122.572769 224.408997,122.722511 224.408997,122.722511 
z"/>
<path fill="#4E4D4C" opacity="1.000000" stroke="none" 
	d="
M91.281670,106.053146 
	C96.315147,102.874435 101.348633,99.695717 106.838074,96.651978 
	C107.460274,96.936836 107.645012,97.058708 107.886505,97.571922 
	C107.258339,102.959122 106.591919,107.926979 105.484154,112.918411 
	C102.383339,112.968102 99.723877,112.994209 96.836029,112.752670 
	C94.917198,110.270775 95.710304,106.000000 91.281670,106.053146 
z"/>
<path fill="#990404" opacity="1.000000" stroke="none" 
	d="
M41.443741,140.022644 
	C43.023735,137.358185 44.603737,134.693741 46.637329,132.198395 
	C47.255280,132.628601 47.479538,132.819153 47.990089,133.229828 
	C51.509335,134.955002 54.802189,136.389496 58.554245,137.883942 
	C68.349701,138.010498 77.685966,138.077103 86.930649,138.563309 
	C86.675217,139.531387 86.511368,140.079849 85.957352,140.477631 
	C77.443901,140.212906 69.319092,139.992157 61.199028,140.106979 
	C60.061394,140.123062 58.947033,141.784866 57.414734,142.735641 
	C51.819626,141.865143 46.631687,140.943893 41.443741,140.022644 
z"/>
<path fill="#1D1919" opacity="1.000000" stroke="none" 
	d="
M150.998947,162.997635 
	C149.716965,167.175568 146.840027,168.724472 142.946060,167.976105 
	C140.658508,167.536469 138.121429,167.582169 135.842041,168.078079 
	C130.684067,169.200317 125.454193,165.496567 126.465652,160.372040 
	C129.506210,159.011307 132.128235,158.089859 134.789581,156.732086 
	C134.913239,155.443085 134.997604,154.590408 135.291626,153.748627 
	C135.793518,153.659668 135.981140,153.460907 136.541443,153.103439 
	C137.955124,152.829163 138.891525,152.614700 139.683075,152.872620 
	C139.421158,153.651062 139.304047,153.957153 139.094971,154.543686 
	C139.096924,155.081711 139.190811,155.339264 139.284698,155.596832 
	C139.598709,155.118195 139.912704,154.639557 140.291946,154.197571 
	C140.357193,154.234222 140.474503,154.141235 140.490326,154.146072 
	C140.506149,154.150909 140.539246,154.158997 140.619202,154.505371 
	C141.144211,155.601303 141.589249,156.350861 141.888367,157.353180 
	C141.195450,158.394760 140.648453,159.183578 139.794647,160.088928 
	C138.308762,161.130280 137.129700,162.055099 135.711853,163.167206 
	C141.234116,166.459610 146.133438,165.553284 150.998947,162.997635 
z"/>
<path fill="#B4343B" opacity="1.000000" stroke="none" 
	d="
M180.971985,93.218903 
	C193.888199,94.397453 203.658203,101.821793 213.198730,109.890274 
	C211.485657,110.874542 209.872665,111.471565 208.196915,111.705414 
	C205.052063,108.527222 201.969955,105.712204 198.691650,102.621597 
	C192.663193,100.291969 186.830933,98.237923 180.592773,96.151161 
	C179.641449,96.163223 179.096024,96.208000 178.210938,96.156464 
	C175.257462,95.960358 172.643616,95.860558 170.198120,95.431473 
	C173.901627,94.474426 177.436798,93.846664 180.971985,93.218903 
z"/>
<path fill="#D8282B" opacity="1.000000" stroke="none" 
	d="
M180.643402,93.125168 
	C177.436798,93.846664 173.901627,94.474426 169.805099,95.501595 
	C167.174255,97.429642 164.699646,98.637161 163.156906,100.583359 
	C161.798187,102.297394 161.481018,104.837082 160.436432,107.206444 
	C159.406250,109.236969 158.643539,111.073196 157.491302,112.919479 
	C156.323013,112.916550 155.544250,112.903557 154.852432,112.517471 
	C156.925613,106.847122 158.911865,101.549873 161.073975,95.965546 
	C162.200165,94.480469 163.150513,93.282463 164.100861,92.084450 
	C169.505508,92.400108 174.910156,92.715767 180.643402,93.125168 
z"/>
<path fill="#1F0707" opacity="1.000000" stroke="none" 
	d="
M200.008926,154.938232 
	C197.847366,155.606857 195.707794,156.764389 193.520599,156.862656 
	C181.667068,157.395325 169.801773,157.666107 157.468811,157.729065 
	C156.989212,157.031158 156.981339,156.631302 157.418671,156.160324 
	C170.908447,155.084503 183.953003,154.079803 197.258530,153.222107 
	C198.349304,153.892151 199.179108,154.415192 200.008926,154.938232 
z"/>
<path fill="#1D1919" opacity="1.000000" stroke="none" 
	d="
M207.416870,162.205688 
	C207.739166,160.414841 208.611359,158.909393 208.946396,157.292618 
	C209.739655,153.464706 210.175232,149.561249 211.019333,145.746735 
	C211.161255,145.105362 212.623581,144.756149 213.727005,144.057251 
	C213.978195,143.842560 214.007645,143.917343 214.852966,144.131378 
	C216.279617,144.350662 216.860947,144.355896 217.540070,144.384232 
	C217.637863,144.407333 218.036209,144.503723 218.146194,144.735138 
	C218.817093,145.304153 219.378021,145.641754 219.922485,146.258926 
	C219.920944,146.724594 219.935883,146.910690 219.929886,147.253815 
	C219.908936,147.410843 219.883530,147.726654 219.854187,147.778625 
	C219.824860,147.830612 219.717072,147.881866 219.435394,147.898346 
	C218.440704,148.124283 217.727661,148.333740 216.666473,148.668304 
	C215.704178,149.539795 215.090012,150.286194 214.434723,151.372589 
	C214.261459,153.312302 214.129333,154.912003 214.021393,156.828766 
	C214.484146,157.761475 214.922714,158.377136 215.521896,159.257629 
	C215.787552,159.700226 215.892593,159.877991 215.997635,160.055756 
	C214.522491,165.303360 210.723618,162.487610 207.416870,162.205688 
z"/>
<path fill="#3C3030" opacity="1.000000" stroke="none" 
	d="
M107.848251,97.152573 
	C107.645012,97.058708 107.460274,96.936836 107.184998,96.667236 
	C110.403343,96.049118 113.730728,95.550728 117.451134,95.346802 
	C117.657555,96.560608 117.560646,97.509460 117.269516,98.394417 
	C115.607254,103.447273 113.898743,108.484909 112.205948,113.527725 
	C111.705475,113.534096 111.205002,113.540466 110.343262,113.095787 
	C110.317993,108.757332 110.940475,104.861778 110.830177,100.987076 
	C110.793030,99.681679 108.895508,98.429222 107.848251,97.152573 
z"/>
<path fill="#312625" opacity="1.000000" stroke="none" 
	d="
M112.630112,113.619148 
	C113.898743,108.484909 115.607254,103.447273 117.269516,98.394417 
	C117.560646,97.509460 117.657555,96.560608 117.901352,95.377991 
	C118.408279,95.080231 118.858017,95.045753 119.645805,95.013046 
	C120.747330,97.595207 121.510811,100.175598 122.612732,103.297630 
	C122.288666,107.046028 121.626175,110.252785 120.963684,113.459534 
	C118.327217,113.543213 115.690742,113.626892 112.630112,113.619148 
z"/>
<path fill="#8B0303" opacity="1.000000" stroke="none" 
	d="
M223.944122,130.896912 
	C224.281540,129.614166 224.618942,128.331436 225.080002,126.765991 
	C226.043671,132.944092 227.011612,139.393143 227.605865,145.876480 
	C227.712967,147.045074 226.282654,148.354599 225.309921,149.870758 
	C224.395401,148.663437 223.366089,147.237503 223.142868,145.694962 
	C222.579834,141.803909 222.379868,137.860336 222.173767,133.379791 
	C222.856827,132.180161 223.400467,131.538528 223.944122,130.896912 
z"/>
<path fill="#970B0B" opacity="1.000000" stroke="none" 
	d="
M134.750259,157.168396 
	C132.128235,158.089859 129.506210,159.011307 126.483459,160.019363 
	C118.403557,159.504852 110.724380,158.903748 103.123779,157.875763 
	C107.501984,156.809875 111.801628,156.170914 116.494308,155.646912 
	C118.257278,155.778763 119.627197,155.795670 121.219559,155.851044 
	C121.441986,155.889496 121.891899,155.926926 122.209747,156.201874 
	C126.601822,156.707352 130.676041,156.937881 134.750259,157.168396 
z"/>
<path fill="#EC272E" opacity="1.000000" stroke="none" 
	d="
M208.259659,112.068588 
	C209.872665,111.471565 211.485657,110.874542 213.353577,110.169098 
	C215.870300,111.748405 218.132095,113.436127 220.439209,115.611710 
	C220.304245,116.905251 220.123962,117.710922 219.943680,118.516602 
	C216.901550,118.945961 213.859421,119.375313 210.331604,119.467422 
	C208.853531,117.722176 207.861176,116.314163 207.022034,114.630127 
	C207.536713,113.592262 207.898178,112.830429 208.259659,112.068588 
z"/>
<path fill="#BC1112" opacity="1.000000" stroke="none" 
	d="
M163.689804,91.984444 
	C163.150513,93.282463 162.200165,94.480469 160.727280,95.775726 
	C158.135422,95.536011 156.066071,95.199051 153.663391,94.671898 
	C150.564438,94.563713 147.798828,94.645721 144.693832,94.794128 
	C143.903931,94.955040 143.453415,95.049568 142.603073,95.063652 
	C141.119034,95.032654 140.034790,95.082100 138.950562,95.131546 
	C136.266586,95.052101 133.582596,94.972664 130.221558,94.704010 
	C128.691772,94.637642 127.839043,94.760490 126.986305,94.883347 
	C126.439178,94.789131 125.892044,94.694916 125.234451,94.337982 
	C128.576050,93.651787 132.017990,93.088821 135.482529,92.837082 
	C140.857590,92.446526 146.246002,92.210396 151.632675,92.018997 
	C155.511398,91.881187 159.396500,91.922836 163.689804,91.984444 
z"/>
<path fill="#EC272E" opacity="1.000000" stroke="none" 
	d="
M200.341080,154.917236 
	C199.179108,154.415192 198.349304,153.892151 197.139587,152.968018 
	C196.507904,152.065369 196.256104,151.563812 196.291336,150.998856 
	C197.065399,150.635193 197.552414,150.334915 198.020721,150.016418 
	C198.002014,149.998215 198.005020,150.050339 198.297180,150.017319 
	C199.063034,149.658844 199.536728,149.333374 200.005463,149.003387 
	C200.000534,148.998856 200.003159,149.010468 200.203598,148.881256 
	C200.653992,148.546478 200.847961,148.297302 200.996185,148.004089 
	C201.006409,148.003647 200.999283,147.984360 201.210205,147.778473 
	C201.691727,147.048157 201.962326,146.523743 202.493561,145.798782 
	C203.163055,144.387589 203.571915,143.176926 203.994370,141.980011 
	C204.007965,141.993744 203.969498,141.993607 204.170959,141.912048 
	C204.617081,141.663361 204.805740,141.447342 205.067291,140.925751 
	C205.464935,140.161758 205.733658,139.654419 205.984024,139.064270 
	C205.965668,138.981461 205.958908,138.811981 206.304596,138.874725 
	C207.117828,138.940063 207.585388,138.942657 208.052948,138.945251 
	C207.469574,143.293457 207.103729,147.689636 206.162567,151.958969 
	C205.899979,153.150146 203.937881,153.966644 202.364868,155.055603 
	C201.540634,155.069534 201.106934,154.982895 200.341080,154.917236 
z"/>
<path fill="#970B0B" opacity="1.000000" stroke="none" 
	d="
M101.002991,156.223358 
	C87.637367,155.815735 74.271744,155.408112 60.455246,154.663986 
	C60.022343,153.943573 60.040321,153.559647 60.521103,153.136017 
	C74.332695,153.414825 87.681488,153.733322 101.036812,154.412872 
	C101.029892,155.257080 101.016441,155.740219 101.002991,156.223358 
z"/>
<path fill="#970B0B" opacity="1.000000" stroke="none" 
	d="
M40.585747,153.689499 
	C45.025982,152.608231 40.829109,148.655457 43.088371,146.189758 
	C45.519009,145.761536 47.743931,145.924271 49.974319,146.410309 
	C50.356636,148.784485 50.733482,150.835373 50.853882,153.135834 
	C47.260201,153.486771 43.922974,153.588135 40.585747,153.689499 
z"/>
<path fill="#5D5251" opacity="1.000000" stroke="none" 
	d="
M90.958542,106.175003 
	C95.710304,106.000000 94.917198,110.270775 96.784920,112.903381 
	C96.962196,113.321754 96.859734,113.623146 96.859734,113.623138 
	C92.975182,113.698044 89.090622,113.772949 84.825119,113.485367 
	C85.280861,111.850220 86.117538,110.577545 86.954224,109.304878 
	C88.181290,108.302208 89.408356,107.299538 90.958542,106.175003 
z"/>
<path fill="#3C3030" opacity="1.000000" stroke="none" 
	d="
M151.215881,162.756958 
	C146.133438,165.553284 141.234116,166.459610 135.711853,163.167206 
	C137.129700,162.055099 138.308762,161.130280 139.870056,160.390930 
	C141.108551,161.031174 141.964813,161.485947 143.224442,161.963699 
	C144.163879,161.960327 144.699951,161.933990 145.500305,161.923630 
	C146.193558,161.656738 146.622528,161.373886 147.393600,161.011353 
	C148.850891,159.649170 149.966049,158.366653 151.376099,157.010345 
	C153.105011,157.285309 154.539047,157.634048 155.973083,157.982788 
	C154.459671,159.493958 152.946259,161.005127 151.215881,162.756958 
z"/>
<path fill="#453838" opacity="1.000000" stroke="none" 
	d="
M49.968849,146.087021 
	C47.743931,145.924271 45.519009,145.761536 43.063583,145.836960 
	C39.449356,145.176147 39.732765,143.075500 41.247208,140.329254 
	C46.631687,140.943893 51.819626,141.865143 57.421921,143.083481 
	C57.560207,144.253479 57.284142,145.126373 56.704697,145.839630 
	C54.127655,143.769073 51.965519,143.620682 49.968849,146.087021 
z"/>
<path fill="#6D1C19" opacity="1.000000" stroke="none" 
	d="
M40.515228,154.148209 
	C43.922974,153.588135 47.260201,153.486771 51.283150,153.163956 
	C53.987644,152.912155 56.006424,152.881805 58.366562,152.890671 
	C59.158051,153.011826 59.608173,153.093781 60.058300,153.175720 
	C60.040321,153.559647 60.022343,153.943573 59.986809,154.615097 
	C54.102367,155.732254 48.235489,156.561798 41.912926,157.167786 
	C41.305508,156.675751 41.080616,156.497192 40.782562,156.408554 
	C40.669945,155.808014 40.557327,155.207458 40.515228,154.148209 
z"/>
<path fill="#D8282B" opacity="1.000000" stroke="none" 
	d="
M86.635483,109.109604 
	C86.117538,110.577545 85.280861,111.850220 84.317894,113.431381 
	C82.126396,113.846619 80.061172,113.953354 77.590057,114.063171 
	C79.084633,110.321503 81.147591,106.864792 86.635483,109.109604 
z"/>
<path fill="#5D5251" opacity="1.000000" stroke="none" 
	d="
M101.077896,156.431427 
	C101.016441,155.740219 101.029892,155.257080 101.075531,154.096802 
	C101.157959,152.999603 101.208206,152.579544 101.481468,152.438538 
	C105.401154,156.987167 109.831032,155.097443 114.392586,154.234375 
	C115.128548,154.690979 115.614906,155.111465 116.101273,155.531952 
	C111.801628,156.170914 107.501984,156.809875 102.770340,157.635666 
	C101.943161,157.428162 101.547981,157.033844 101.077896,156.431427 
z"/>
<path fill="#1D1919" opacity="1.000000" stroke="none" 
	d="
M47.763702,132.939163 
	C47.479538,132.819153 47.255280,132.628601 46.987244,132.167969 
	C47.057625,131.959320 47.231689,131.950195 48.008228,131.982788 
	C48.739899,130.676025 48.869091,129.327560 48.998283,127.979103 
	C48.998283,127.979103 48.943436,127.767380 49.013275,127.679535 
	C49.083118,127.591690 49.549725,127.711235 49.874290,128.233932 
	C51.247658,128.731171 52.296452,128.705704 53.345249,128.680252 
	C53.625366,128.748901 53.908913,128.797562 54.624466,129.192505 
	C55.766296,129.628586 56.479553,129.698349 57.184841,129.791199 
	C57.176868,129.814270 57.222950,129.830368 57.099823,130.182709 
	C55.152187,136.113159 50.750114,131.813660 47.763702,132.939163 
z"/>
<path fill="#1D1919" opacity="1.000000" stroke="none" 
	d="
M156.231018,158.005569 
	C154.539047,157.634048 153.105011,157.285309 151.218414,156.704590 
	C149.517456,154.988235 148.269043,153.503891 147.292297,151.985687 
	C149.695267,151.644730 151.826614,151.337631 153.943375,151.360870 
	C154.650650,152.821533 155.372513,153.951874 156.167755,155.320648 
	C156.450821,155.820709 156.694931,156.044846 156.973465,156.231461 
	C156.981339,156.631302 156.989212,157.031158 157.001953,157.731476 
	C156.834198,158.030746 156.661575,158.029541 156.231018,158.005569 
z"/>
<path fill="#8B0303" opacity="1.000000" stroke="none" 
	d="
M220.208496,118.649887 
	C220.123962,117.710922 220.304245,116.905251 220.627777,115.911819 
	C222.475800,117.746750 227.098801,117.926498 224.688843,122.546738 
	C224.408997,122.722511 224.130859,122.572769 224.402023,122.213509 
	C225.616760,119.215820 224.450363,119.102615 222.445511,119.992912 
	C221.788101,119.589668 221.130707,119.186424 220.208496,118.649887 
z"/>
<path fill="#5D5251" opacity="1.000000" stroke="none" 
	d="
M221.060837,152.449905 
	C221.127075,152.798416 221.193298,153.146942 221.335922,153.749817 
	C221.177948,154.458328 220.943588,154.912460 220.230423,155.734299 
	C219.751633,156.102005 219.378891,155.857590 219.059875,155.779266 
	C218.210678,156.525894 217.680496,157.350845 216.858078,158.005829 
	C216.286377,157.485168 216.006943,157.134460 215.785309,156.413208 
	C215.938904,155.047699 216.034714,154.052734 216.347534,153.035843 
	C216.564575,153.013901 217.002197,152.997803 217.209396,153.195374 
	C218.223236,153.187897 219.029861,152.982834 219.833115,152.425751 
	C219.576263,151.441940 219.322800,150.810135 219.142868,150.129227 
	C219.216415,150.080124 219.340240,149.953857 219.649658,150.185181 
	C220.326324,151.094315 220.693573,151.772110 221.060837,152.449905 
z"/>
<path fill="#AFAEA9" opacity="1.000000" stroke="none" 
	d="
M48.639164,128.110657 
	C48.869091,129.327560 48.739899,130.676025 48.267296,132.018005 
	C48.042603,130.755096 48.161324,129.498642 48.639164,128.110657 
z"/>
<path fill="#1D1919" opacity="1.000000" stroke="none" 
	d="
M121.219292,164.381927 
	C121.468849,164.400146 121.639275,164.509491 121.809692,164.618835 
	C121.586510,164.570236 121.363335,164.521637 121.219292,164.381927 
z"/>
<path fill="#65666B" opacity="1.000000" stroke="none" 
	d="
M216.367126,160.108521 
	C215.892593,159.877991 215.787552,159.700226 215.979568,159.199127 
	C216.573761,158.808121 216.870911,158.740433 217.470825,158.687622 
	C218.176941,158.677979 218.580276,158.653473 219.025391,158.761658 
	C219.067184,158.894363 219.266251,159.088715 219.266251,159.088715 
	C218.423035,159.446228 217.579819,159.803757 216.367126,160.108521 
z"/>
<path fill="#453838" opacity="1.000000" stroke="none" 
	d="
M220.071838,155.974716 
	C219.974075,156.859192 219.876312,157.743668 219.522400,158.858429 
	C219.266251,159.088715 219.067184,158.894363 218.997482,158.434967 
	C219.096313,157.315720 219.264862,156.655869 219.587524,155.826416 
	C219.741638,155.656815 220.071823,155.974716 220.071838,155.974716 
z"/>
<path fill="#970B0B" opacity="1.000000" stroke="none" 
	d="
M40.791550,156.526184 
	C41.080616,156.497192 41.305508,156.675751 41.492569,157.038879 
	C41.211777,157.117783 40.969322,156.954544 40.791550,156.526184 
z"/>
<path fill="#1F0707" opacity="1.000000" stroke="none" 
	d="
M220.089142,155.949692 
	C220.071823,155.974716 219.741638,155.656815 219.573563,155.791656 
	C219.405487,155.926483 219.378891,155.857590 219.378891,155.857590 
	C219.378891,155.857590 219.751633,156.102005 219.941223,155.985458 
	C220.130829,155.868912 220.106445,155.924667 220.089142,155.949692 
z"/>
<path fill="#65666B" opacity="1.000000" stroke="none" 
	d="
M106.001625,127.652061 
	C107.057259,127.759529 108.112900,127.867004 109.847931,127.992432 
	C110.718185,128.056412 110.909042,128.102417 110.857368,128.468597 
	C106.883942,129.343033 103.153053,129.897247 98.581894,130.576294 
	C100.298409,132.573975 101.328537,133.772827 102.086456,135.264877 
	C98.211037,136.110687 94.607834,136.663330 91.066071,136.954498 
	C90.089737,136.441360 89.051964,136.189682 87.995331,135.959290 
	C87.976471,135.980591 88.027626,136.005463 87.882538,135.694672 
	C86.524300,134.948334 85.311157,134.512787 83.631302,134.048492 
	C80.659981,133.932343 78.155380,133.844986 75.578194,133.508972 
	C74.934776,132.201950 74.363937,131.143570 74.265732,130.066559 
	C81.117104,129.387558 87.495842,128.727173 93.874573,128.066803 
	C96.619087,127.759552 99.363609,127.452286 102.729050,127.373672 
	C104.233856,127.618904 105.117744,127.635483 106.001625,127.652061 
M91.674965,134.165771 
	C91.083023,134.219910 90.491089,134.274063 89.899147,134.328201 
	C89.931877,134.538071 89.964600,134.747925 89.997330,134.957779 
	C90.658882,134.823959 91.320427,134.690125 91.674965,134.165771 
z"/>
<path fill="#F6272E" opacity="1.000000" stroke="none" 
	d="
M111.099899,128.148407 
	C110.909042,128.102417 110.718185,128.056412 110.243317,127.931099 
	C111.081024,126.579910 112.098373,125.192276 113.349617,124.064026 
	C115.102425,122.483528 116.499840,120.989319 114.228607,118.466286 
	C120.040642,117.722870 126.021004,117.234367 132.508301,117.042068 
	C133.613266,118.433304 134.211273,119.528343 134.294479,119.680687 
	C132.973923,122.495804 131.965698,124.645058 130.692169,126.877907 
	C130.058350,127.012657 129.689850,127.063828 128.950287,126.990051 
	C128.346863,126.746170 128.114502,126.627243 127.620926,126.325172 
	C126.297546,126.036003 125.235374,125.929970 124.019852,125.599960 
	C123.551453,125.564087 123.236397,125.752190 122.922577,125.891617 
	C122.923813,125.842934 122.828865,125.821243 122.390800,125.783035 
	C119.030632,125.906891 116.108536,126.068970 112.890640,126.303909 
	C112.396538,126.930389 112.198242,127.483994 111.955635,128.015594 
	C111.911331,127.993591 111.875786,127.901260 111.674255,127.939316 
	C111.472717,127.977379 111.099899,128.148407 111.099899,128.148407 
z"/>
<path fill="#C5787F" opacity="1.000000" stroke="none" 
	d="
M93.420639,128.000824 
	C87.495842,128.727173 81.117104,129.387558 73.931412,130.059998 
	C72.450600,130.082321 71.776741,130.092560 70.633347,130.075073 
	C65.850182,129.975037 61.536564,129.902710 57.222950,129.830383 
	C57.222950,129.830368 57.176868,129.814270 57.184326,129.501343 
	C57.048935,128.825653 56.906082,128.462891 56.763233,128.100143 
	C68.831055,128.045044 80.898872,127.989944 93.420639,128.000824 
z"/>
<path fill="#D8282B" opacity="1.000000" stroke="none" 
	d="
M70.392029,121.435265 
	C80.703926,121.181404 91.381241,121.101410 102.523582,121.071793 
	C97.720177,121.408798 92.454132,121.859970 87.182632,121.936653 
	C81.710312,122.016243 76.232727,121.733444 70.392029,121.435265 
z"/>
<path fill="#F6272E" opacity="1.000000" stroke="none" 
	d="
M105.885437,127.391914 
	C105.117744,127.635483 104.233856,127.618904 103.130646,127.345001 
	C103.863960,127.102379 104.816605,127.117073 105.885437,127.391914 
z"/>
<path fill="#AFAEA9" opacity="1.000000" stroke="none" 
	d="
M53.457859,128.405396 
	C52.296452,128.705704 51.247658,128.731171 50.082874,128.354340 
	C51.168083,128.011566 52.369274,128.071060 53.457859,128.405396 
z"/>
<path fill="#F6272E" opacity="1.000000" stroke="none" 
	d="
M109.179413,120.134781 
	C109.471581,119.716766 109.953201,119.445999 110.715065,119.164375 
	C110.453156,119.529694 109.911011,119.905853 109.179413,120.134781 
z"/>
<path fill="#65666B" opacity="1.000000" stroke="none" 
	d="
M56.493393,128.195709 
	C56.906082,128.462891 57.048935,128.825653 57.192299,129.478271 
	C56.479553,129.698349 55.766296,129.628586 54.832649,129.249802 
	C55.149357,128.724304 55.686455,128.507797 56.493393,128.195709 
z"/>
<path fill="#F9333A" opacity="1.000000" stroke="none" 
	d="
M130.957489,126.794319 
	C131.965698,124.645058 132.973923,122.495804 134.294479,119.680687 
	C134.211273,119.528343 133.613266,118.433304 132.931946,117.015091 
	C136.098373,116.045654 139.348083,115.399391 143.282288,114.524574 
	C144.664597,114.140793 145.362427,113.985558 146.474091,113.900780 
	C148.559296,113.861923 150.230652,113.752594 152.206375,113.709396 
	C153.262314,113.480545 154.013916,113.185562 154.765503,112.890572 
	C155.544250,112.903557 156.323013,112.916550 157.569366,113.274445 
	C162.609543,120.102341 164.875854,120.411980 169.071320,114.927292 
	C173.940079,114.727280 178.432404,114.675484 183.358215,114.545074 
	C185.248993,114.414307 186.706268,114.362144 188.607483,114.414139 
	C193.689240,114.528313 198.327057,114.538338 203.340073,114.660683 
	C204.766449,114.817383 205.817627,114.861763 206.868820,114.906143 
	C207.861176,116.314163 208.853531,117.722176 209.923767,119.440460 
	C204.908325,120.874878 199.791931,121.907021 194.734940,123.175957 
	C193.094650,123.587547 191.609940,124.619148 189.750076,125.938881 
	C188.629990,126.707138 187.813904,126.903656 186.542816,127.069824 
	C175.722824,127.766502 165.357849,128.493530 154.658844,129.098480 
	C146.867233,124.080345 146.012985,124.144989 137.818756,129.956757 
	C136.842880,129.532364 136.138031,129.356094 135.476440,128.814453 
	C133.998962,127.897484 132.478226,127.345901 130.957489,126.794319 
z"/>
<path fill="#060202" opacity="1.000000" stroke="none" 
	d="
M146.060257,113.830315 
	C145.362427,113.985558 144.664597,114.140793 143.612000,114.332642 
	C142.766129,114.184669 142.275040,114.000099 141.436295,113.330505 
	C141.726730,106.945030 142.364807,101.044563 143.002884,95.144096 
	C143.453415,95.049568 143.903931,94.955040 145.131836,94.890442 
	C148.605057,94.900940 151.300888,94.881516 153.996735,94.862091 
	C156.066071,95.199051 158.135422,95.536011 160.551453,96.062805 
	C158.911865,101.549873 156.925613,106.847122 154.852432,112.517471 
	C154.013916,113.185562 153.262314,113.480545 151.905304,113.551849 
	C149.553329,113.495552 147.806793,113.662933 146.060257,113.830315 
z"/>
<path fill="#0A0505" opacity="1.000000" stroke="none" 
	d="
M142.603073,95.063652 
	C142.364807,101.044563 141.726730,106.945030 141.056213,113.224693 
	C139.627029,113.670540 138.230286,113.737190 136.419357,113.719154 
	C136.887436,107.699059 137.769699,101.763657 138.801254,95.479897 
	C140.034790,95.082100 141.119034,95.032654 142.603073,95.063652 
z"/>
<path fill="#1D1919" opacity="1.000000" stroke="none" 
	d="
M121.423126,113.560486 
	C121.626175,110.252785 122.288666,107.046028 122.945366,103.445793 
	C127.171585,102.463234 129.708694,103.705482 129.011414,108.572861 
	C128.566254,111.680229 130.160538,113.119476 133.413574,113.497559 
	C129.769714,113.649887 125.826134,113.655663 121.423126,113.560486 
z"/>
<path fill="#453838" opacity="1.000000" stroke="none" 
	d="
M107.886505,97.571922 
	C108.895508,98.429222 110.793030,99.681679 110.830177,100.987076 
	C110.940475,104.861778 110.317993,108.757332 109.972290,113.034943 
	C109.185738,113.502464 108.408890,113.579773 107.093704,113.496353 
	C106.348381,113.184471 106.138420,113.037537 105.925499,112.894829 
	C106.591919,107.926979 107.258339,102.959122 107.886505,97.571922 
z"/>
<path fill="#312625" opacity="1.000000" stroke="none" 
	d="
M105.484154,112.918411 
	C106.138420,113.037537 106.348381,113.184471 106.702759,113.451721 
	C103.827339,113.642540 100.804550,113.717262 97.320740,113.707565 
	C96.859734,113.623146 96.962196,113.321754 97.013306,113.171036 
	C99.723877,112.994209 102.383339,112.968102 105.484154,112.918411 
z"/>
<path fill="#990404" opacity="1.000000" stroke="none" 
	d="
M208.245667,138.650238 
	C207.585388,138.942657 207.117828,138.940063 206.343628,138.497955 
	C206.690964,134.103882 207.344955,130.149323 207.998932,126.194771 
	C213.555908,126.259514 219.498581,125.087479 223.595764,130.923538 
	C223.400467,131.538528 222.856827,132.180161 222.035767,132.991943 
	C217.203400,126.805588 213.328323,127.134018 210.026932,134.192734 
	C209.399414,135.534393 208.962982,136.965439 208.245667,138.650238 
z"/>
<path fill="#140C0C" opacity="1.000000" stroke="none" 
	d="
M219.938934,145.979355 
	C219.378021,145.641754 218.817093,145.304153 218.449768,144.467026 
	C218.876694,142.963425 219.110031,141.959335 219.343384,140.955261 
	C219.932007,142.015411 220.520630,143.075562 220.912781,144.676254 
	C220.457184,145.470963 220.198059,145.725159 219.938934,145.979355 
z"/>
<path fill="#65666B" opacity="1.000000" stroke="none" 
	d="
M217.442261,144.361130 
	C216.860947,144.355896 216.279617,144.350662 215.121841,143.885040 
	C214.264908,142.278168 213.984436,141.131653 213.703964,139.985153 
	C213.937576,139.407227 214.171173,138.829315 214.846786,138.224228 
	C215.785736,138.785095 216.282700,139.373123 216.779648,139.961151 
	C216.810394,140.132065 216.841125,140.302994 216.827148,140.984406 
	C216.734390,141.675354 216.686356,141.855774 216.505646,142.357956 
	C216.729385,143.240189 217.085815,143.800659 217.442261,144.361130 
z"/>
<path fill="#65666B" opacity="1.000000" stroke="none" 
	d="
M219.922485,146.258926 
	C220.198059,145.725159 220.457184,145.470963 220.842010,144.970520 
	C221.108383,147.042114 221.249084,149.359940 221.225311,152.063843 
	C220.693573,151.772110 220.326324,151.094315 219.678955,149.830368 
	C219.504913,148.790100 219.610992,148.335983 219.717072,147.881866 
	C219.717072,147.881866 219.824860,147.830612 220.015350,147.752350 
	C220.205841,147.674088 220.352829,147.322708 220.352829,147.322708 
	C220.352829,147.322708 219.950836,147.096802 219.950836,147.096802 
	C219.935883,146.910690 219.920944,146.724594 219.922485,146.258926 
z"/>
<path fill="#5D5251" opacity="1.000000" stroke="none" 
	d="
M216.871338,139.637054 
	C216.282700,139.373123 215.785736,138.785095 215.069061,138.003876 
	C215.932800,137.427902 217.016266,137.045120 217.835144,136.946594 
	C217.305969,137.412430 217.178818,137.663574 217.189102,137.984329 
	C217.113739,138.427216 217.038376,138.870087 216.871338,139.637054 
z"/>
<path fill="#140C0C" opacity="1.000000" stroke="none" 
	d="
M213.441483,140.098694 
	C213.984436,141.131653 214.264908,142.278168 214.276520,143.671005 
	C214.007645,143.917343 213.978195,143.842560 213.939026,143.827118 
	C213.659561,142.611877 213.419281,141.412048 213.441483,140.098694 
z"/>
<path fill="#453838" opacity="1.000000" stroke="none" 
	d="
M217.540070,144.384232 
	C217.085815,143.800659 216.729385,143.240189 216.740021,142.217651 
	C217.331116,141.485687 217.555115,141.215775 217.779114,140.945847 
	C218.039764,140.913879 218.300415,140.881927 218.952225,140.902618 
	C219.110031,141.959335 218.876694,142.963425 218.339783,144.235611 
	C218.036209,144.503723 217.637863,144.407333 217.540070,144.384232 
z"/>
<path fill="#140C0C" opacity="1.000000" stroke="none" 
	d="
M217.339279,137.857849 
	C217.178818,137.663574 217.305969,137.412430 217.784058,137.182968 
	C217.849915,137.352325 217.680542,137.551086 217.339279,137.857849 
z"/>
<path fill="#140C0C" opacity="1.000000" stroke="none" 
	d="
M217.584656,140.955795 
	C217.555115,141.215775 217.331116,141.485687 216.872711,141.895905 
	C216.686356,141.855774 216.734390,141.675354 216.891693,141.236786 
	C217.000992,140.978638 217.390198,140.965744 217.584656,140.955795 
z"/>
<path fill="#970B0B" opacity="1.000000" stroke="none" 
	d="
M127.361725,94.948227 
	C127.839043,94.760490 128.691772,94.637642 129.774384,94.669693 
	C129.248566,94.887428 128.492844,94.950264 127.361725,94.948227 
z"/>
<path fill="#9A0202" opacity="1.000000" stroke="none" 
	d="
M207.535370,126.129189 
	C207.344955,130.149323 206.690964,134.103882 205.997955,138.435211 
	C205.958908,138.811981 205.965668,138.981461 205.535583,139.006165 
	C189.949081,139.501129 175.587494,143.111053 162.014053,150.254974 
	C161.967834,151.003647 161.946884,151.431244 161.583450,151.871750 
	C159.934525,150.641510 158.628082,149.398331 157.243301,147.791550 
	C156.876175,144.949310 156.587387,142.470688 156.268417,139.600525 
	C155.489685,136.815979 154.741150,134.422943 154.117233,131.756775 
	C154.492188,130.729263 154.742523,129.974899 154.992859,129.220551 
	C165.357849,128.493530 175.722824,127.766502 186.543427,127.506744 
	C187.304657,131.298416 186.097992,135.138687 189.429138,138.135132 
	C190.051514,133.490494 190.530273,129.917679 191.009033,126.344864 
	C196.363297,126.251106 201.717560,126.157356 207.535370,126.129189 
z"/>
<path fill="#990404" opacity="1.000000" stroke="none" 
	d="
M190.743332,126.262772 
	C190.530273,129.917679 190.051514,133.490494 189.429138,138.135132 
	C186.097992,135.138687 187.304657,131.298416 186.998428,127.537094 
	C187.813904,126.903656 188.629990,126.707138 189.685913,126.311119 
	C190.109711,126.134644 190.293671,126.157661 190.743332,126.262772 
z"/>
<path fill="#000000" opacity="1.000000" stroke="none" 
	d="
M222.659988,120.292999 
	C224.450363,119.102615 225.616760,119.215820 224.445648,122.117157 
	C223.770233,121.784409 223.322342,121.188751 222.659988,120.292999 
z"/>
<path fill="#AB0606" opacity="1.000000" stroke="none" 
	d="
M91.004623,137.215973 
	C94.607834,136.663330 98.211037,136.110687 102.491516,135.264465 
	C107.772179,134.707260 112.375580,134.443649 116.691002,134.350220 
	C115.112724,134.974106 113.822418,135.427841 112.552422,135.874435 
	C114.331406,137.934784 115.777946,139.610092 116.913513,141.456207 
	C114.759361,142.095825 112.916183,142.564651 110.651810,143.000717 
	C106.806198,142.668457 103.381775,142.368973 99.116852,141.995987 
	C101.609726,148.449081 105.907372,148.016083 110.206711,148.317810 
	C113.211113,149.434464 114.546570,151.236359 114.142990,154.198242 
	C109.831032,155.097443 105.401154,156.987167 101.263611,152.135468 
	C98.289856,148.648193 98.535065,143.085480 92.637604,142.963470 
	C91.628777,142.494431 90.820724,142.268814 89.892799,141.717163 
	C88.765190,141.075974 87.757454,140.760803 86.673813,140.545563 
	C86.597908,140.645508 86.347511,140.628326 86.347511,140.628326 
	C86.511368,140.079849 86.675217,139.531387 87.161270,138.436951 
	C87.699493,137.618805 87.915512,137.346649 88.490578,137.066559 
	C89.567963,137.111053 90.286293,137.163513 91.004623,137.215973 
z"/>
<path fill="#3C3030" opacity="1.000000" stroke="none" 
	d="
M90.012672,142.043198 
	C90.820724,142.268814 91.628777,142.494431 92.344643,143.178467 
	C85.060333,146.220917 77.755714,147.775009 70.005989,147.066315 
	C66.067963,146.706177 62.059483,147.116577 57.929741,146.958618 
	C57.520443,146.492142 57.264256,146.245712 57.008072,145.999283 
	C57.284142,145.126373 57.560207,144.253479 57.829086,143.032730 
	C58.947033,141.784866 60.061394,140.123062 61.199028,140.106979 
	C69.319092,139.992157 77.443901,140.212906 85.957352,140.477631 
	C86.347511,140.628326 86.597908,140.645508 86.778427,140.854477 
	C87.976852,141.390030 88.994766,141.716614 90.012672,142.043198 
z"/>
<path fill="#4E4D4C" opacity="1.000000" stroke="none" 
	d="
M88.131516,137.074493 
	C87.915512,137.346649 87.699493,137.618805 87.252853,138.017334 
	C77.685966,138.077103 68.349701,138.010498 58.550644,137.506805 
	C59.265312,136.044662 60.304733,134.428513 61.648304,134.114746 
	C64.665512,133.410126 67.833725,133.352097 71.005226,133.358704 
	C72.596916,133.710251 74.123848,133.733932 75.650772,133.757614 
	C78.155380,133.844986 80.659981,133.932343 83.686584,134.400024 
	C85.481590,135.188721 86.754608,135.597092 88.027626,136.005463 
	C88.027626,136.005463 87.976471,135.980591 88.025360,136.243408 
	C88.093338,136.695648 88.112427,136.885071 88.131516,137.074493 
z"/>
<path fill="#65666B" opacity="1.000000" stroke="none" 
	d="
M70.940460,133.030838 
	C67.833725,133.352097 64.665512,133.410126 61.648304,134.114746 
	C60.304733,134.428513 59.265312,136.044662 58.091446,137.446838 
	C54.802189,136.389496 51.509335,134.955002 47.990089,133.229828 
	C50.750114,131.813660 55.152187,136.113159 57.099823,130.182709 
	C61.536564,129.902710 65.850182,129.975037 70.724030,130.325958 
	C71.169670,131.413315 71.055061,132.222076 70.940460,133.030838 
z"/>
<path fill="#E82026" opacity="1.000000" stroke="none" 
	d="
M134.789581,156.732086 
	C130.676041,156.937881 126.601822,156.707352 122.443222,155.935730 
	C124.164124,154.008209 125.969414,152.621811 128.186737,151.179916 
	C130.652206,151.433136 132.705643,151.741837 134.821808,152.330399 
	C134.950333,152.986084 135.016144,153.361893 135.081970,153.737717 
	C134.997604,154.590408 134.913239,155.443085 134.789581,156.732086 
z"/>
<path fill="#140C0C" opacity="1.000000" stroke="none" 
	d="
M142.821060,161.940720 
	C141.964813,161.485947 141.108551,161.031174 140.176880,160.274399 
	C140.648453,159.183578 141.195450,158.394760 141.964386,157.074814 
	C142.440521,156.068802 142.694717,155.593933 142.952454,155.438873 
	C143.038010,156.397812 143.120041,157.036926 143.156738,158.103241 
	C143.014618,159.667206 142.917847,160.803955 142.821060,161.940720 
z"/>
<path fill="#4E4D4C" opacity="1.000000" stroke="none" 
	d="
M142.948929,155.119049 
	C142.694717,155.593933 142.440521,156.068802 142.110306,156.822052 
	C141.589249,156.350861 141.144211,155.601303 140.588745,154.495514 
	C140.478348,154.139297 140.501816,154.111267 140.337891,153.697693 
	C140.082611,153.001953 139.991272,152.719788 139.998199,152.200562 
	C140.214539,151.839676 140.332611,151.715881 140.683960,151.603973 
	C141.324265,151.474655 141.731293,151.333481 142.376465,151.286896 
	C143.106812,151.520508 143.598999,151.659531 144.110138,151.823669 
	C144.129059,151.848801 144.191803,151.853577 144.172409,152.011658 
	C144.153015,152.169754 144.045822,152.469727 144.008087,152.901886 
	C143.990051,153.908112 144.009781,154.482208 144.014755,155.028946 
	C144.000000,155.001602 144.028976,155.053558 143.754517,154.996735 
	C143.303040,154.999619 143.125992,155.059341 142.948929,155.119049 
z"/>
<path fill="#A97F71" opacity="1.000000" stroke="none" 
	d="
M140.450699,151.592102 
	C140.332611,151.715881 140.214539,151.839676 139.970261,152.207855 
	C139.844070,152.452209 139.827911,152.400238 139.827911,152.400238 
	C138.891525,152.614700 137.955124,152.829163 136.500656,152.626434 
	C135.952530,151.891434 135.922470,151.573624 136.316864,151.505112 
	C137.953293,151.561752 139.165298,151.369080 140.395325,151.280396 
	C140.413345,151.384369 140.450699,151.592102 140.450699,151.592102 
z"/>
<path fill="#65666B" opacity="1.000000" stroke="none" 
	d="
M135.892426,151.255798 
	C135.922470,151.573624 135.952530,151.891434 136.023346,152.686249 
	C135.981140,153.460907 135.793518,153.659668 135.291626,153.748627 
	C135.016144,153.361893 134.950333,152.986084 134.961777,152.002945 
	C135.140915,151.182404 135.242828,150.969177 135.446899,150.832962 
	C135.549042,150.909988 135.892426,151.255798 135.892426,151.255798 
z"/>
<path fill="#A97F71" opacity="1.000000" stroke="none" 
	d="
M140.226685,154.160904 
	C139.912704,154.639557 139.598709,155.118195 139.284698,155.596832 
	C139.190811,155.339264 139.096924,155.081711 139.356461,154.530396 
	C139.882156,154.211395 140.054428,154.186157 140.226685,154.160904 
z"/>
<path fill="#4E4D4C" opacity="1.000000" stroke="none" 
	d="
M140.291931,154.197571 
	C140.054428,154.186157 139.882156,154.211395 139.448395,154.249939 
	C139.304047,153.957153 139.421158,153.651062 139.683075,152.872620 
	C139.827911,152.400238 139.844070,152.452209 139.872009,152.444916 
	C139.991272,152.719788 140.082611,153.001953 140.336304,153.702744 
	C140.498672,154.121368 140.474503,154.141235 140.474503,154.141235 
	C140.474503,154.141235 140.357193,154.234222 140.291931,154.197571 
z"/>
<path fill="#312625" opacity="1.000000" stroke="none" 
	d="
M140.490326,154.146072 
	C140.474503,154.141235 140.498672,154.121368 140.500244,154.116318 
	C140.501816,154.111267 140.478348,154.139297 140.508789,154.149139 
	C140.539246,154.158997 140.506149,154.150909 140.490326,154.146072 
z"/>
<path fill="#060202" opacity="1.000000" stroke="none" 
	d="
M202.964905,114.548355 
	C198.327057,114.538338 193.689240,114.528313 188.484680,114.102989 
	C185.611542,107.853081 183.305099,102.018486 180.998672,96.183884 
	C186.830933,98.237923 192.663193,100.291969 198.834167,102.963181 
	C200.436905,107.236351 201.700897,110.892357 202.964905,114.548355 
z"/>
<path fill="#0A0505" opacity="1.000000" stroke="none" 
	d="
M160.703888,107.012154 
	C161.481018,104.837082 161.798187,102.297394 163.156906,100.583359 
	C164.699646,98.637161 167.174255,97.429642 169.636780,95.830872 
	C172.643616,95.860558 175.257462,95.960358 178.320999,96.534500 
	C179.999557,102.694580 181.228394,108.380310 182.113129,114.126724 
	C180.650101,114.125916 179.531174,114.064438 179.019302,114.036308 
	C178.567215,111.868271 178.587036,108.883026 177.781113,108.640366 
	C174.570755,107.673790 170.882950,106.692337 167.815659,107.468933 
	C166.057236,107.914139 165.151764,111.728210 163.492523,113.962387 
	C162.316467,111.603493 161.510178,109.307823 160.703888,107.012154 
z"/>
<path fill="#453838" opacity="1.000000" stroke="none" 
	d="
M182.457245,114.066048 
	C181.228394,108.380310 179.999557,102.694580 178.660645,96.630814 
	C179.096024,96.208000 179.641449,96.163223 180.592773,96.151161 
	C183.305099,102.018486 185.611542,107.853081 188.040756,113.998825 
	C186.706268,114.362144 185.248993,114.414307 183.258194,114.395157 
	C182.724670,114.323853 182.457245,114.066048 182.457245,114.066048 
z"/>
<path fill="#453838" opacity="1.000000" stroke="none" 
	d="
M203.340088,114.660675 
	C201.700897,110.892357 200.436905,107.236351 199.030365,103.238762 
	C201.969955,105.712204 205.052063,108.527222 208.196915,111.705414 
	C207.898178,112.830429 207.536713,113.592262 207.022034,114.630127 
	C205.817627,114.861763 204.766449,114.817383 203.340088,114.660675 
z"/>
<path fill="#A97F71" opacity="1.000000" stroke="none" 
	d="
M160.436417,107.206444 
	C161.510178,109.307823 162.316467,111.603493 163.758087,114.217667 
	C165.827240,114.715958 167.261078,114.895737 168.694901,115.075516 
	C164.875854,120.411980 162.609543,120.102341 157.958923,113.264389 
	C158.643539,111.073196 159.406250,109.236969 160.436417,107.206444 
z"/>
<path fill="#D8282B" opacity="1.000000" stroke="none" 
	d="
M157.321640,148.155167 
	C158.628082,149.398331 159.934525,150.641510 162.058594,151.901093 
	C168.938049,151.899170 174.999908,151.880814 181.479340,151.886444 
	C186.599380,151.627701 191.301834,151.344986 196.004303,151.062256 
	C196.256104,151.563812 196.507904,152.065369 196.878632,152.821014 
	C183.953003,154.079803 170.908447,155.084503 157.418671,156.160324 
	C156.694931,156.044846 156.450821,155.820709 156.147644,155.298767 
	C156.054153,155.038467 156.032455,155.093399 156.270050,155.004608 
	C156.610840,154.610077 156.714050,154.304337 156.888977,153.777649 
	C156.960693,153.556702 156.962341,153.092087 157.248550,152.894272 
	C157.463715,151.182693 157.392685,149.668930 157.321640,148.155167 
z"/>
<path fill="#140C0C" opacity="1.000000" stroke="none" 
	d="
M216.130508,153.057785 
	C216.034714,154.052734 215.938904,155.047699 215.489777,156.429230 
	C214.756714,156.714432 214.376953,156.613068 213.997208,156.511703 
	C214.129333,154.912003 214.261459,153.312302 214.832153,151.361603 
	C215.535355,150.996078 215.799973,150.981552 216.051208,151.316284 
	C216.068695,152.129623 216.099594,152.593704 216.130508,153.057785 
z"/>
<path fill="#312625" opacity="1.000000" stroke="none" 
	d="
M219.435394,147.898346 
	C219.610992,148.335983 219.504913,148.790100 219.369537,149.599030 
	C219.340240,149.953857 219.216415,150.080124 218.976624,150.188904 
	C218.483536,150.541656 218.230209,150.785645 217.732895,150.998383 
	C217.488907,150.967148 216.997498,150.995544 217.006821,151.002075 
	C217.016144,151.008606 217.042923,150.996582 217.041321,150.588562 
	C217.031357,149.634766 217.022995,149.088989 217.014618,148.543213 
	C217.727661,148.333740 218.440704,148.124283 219.435394,147.898346 
z"/>
<path fill="#453838" opacity="1.000000" stroke="none" 
	d="
M214.021393,156.828766 
	C214.376953,156.613068 214.756714,156.714432 215.431976,156.799774 
	C216.006943,157.134460 216.286377,157.485168 216.869370,158.129272 
	C217.172913,158.422684 217.168045,158.672760 217.168045,158.672760 
	C216.870911,158.740433 216.573761,158.808121 215.818954,158.934296 
	C214.922714,158.377136 214.484146,157.761475 214.021393,156.828766 
z"/>
<path fill="#5D5251" opacity="1.000000" stroke="none" 
	d="
M216.666473,148.668304 
	C217.022995,149.088989 217.031357,149.634766 216.796875,150.566498 
	C216.554016,150.952454 216.064606,150.967010 216.064606,150.967010 
	C215.799973,150.981552 215.535355,150.996078 214.873291,151.021606 
	C215.090012,150.286194 215.704178,149.539795 216.666473,148.668304 
z"/>
<path fill="#312625" opacity="1.000000" stroke="none" 
	d="
M219.929886,147.253815 
	C219.950836,147.096802 220.352829,147.322708 220.352829,147.322708 
	C220.352829,147.322708 220.205841,147.674088 220.044678,147.700378 
	C219.883530,147.726654 219.908936,147.410843 219.929886,147.253815 
z"/>
<path fill="#4E4D4C" opacity="1.000000" stroke="none" 
	d="
M127.774696,151.235397 
	C125.969414,152.621811 124.164124,154.008209 122.125366,155.660767 
	C121.891899,155.926926 121.441986,155.889496 121.245880,155.505341 
	C122.246819,152.475006 124.066612,149.757370 120.108582,147.349258 
	C117.037460,145.681900 114.055229,144.357697 111.072998,143.033508 
	C112.916183,142.564651 114.759361,142.095825 117.278244,141.493210 
	C122.038170,140.694077 123.992119,143.452499 125.955780,146.619507 
	C126.382172,147.983826 126.744507,149.026947 127.131691,150.322693 
	C127.417679,150.769012 127.678818,150.962708 127.881439,151.140137 
	C127.822914,151.123886 127.774696,151.235397 127.774696,151.235397 
z"/>
<path fill="#1D1919" opacity="1.000000" stroke="none" 
	d="
M120.197472,147.692413 
	C124.066612,149.757370 122.246819,152.475006 121.023445,155.466888 
	C119.627197,155.795670 118.257278,155.778763 116.494308,155.646912 
	C115.614906,155.111465 115.128548,154.690979 114.392586,154.234375 
	C114.546570,151.236359 113.211113,149.434464 110.663742,148.320343 
	C114.008224,147.919510 117.102852,147.805969 120.197472,147.692413 
z"/>
<path fill="#970B0B" opacity="1.000000" stroke="none" 
	d="
M153.663391,94.671898 
	C151.300888,94.881516 148.605057,94.900940 145.471207,94.824051 
	C147.798828,94.645721 150.564438,94.563713 153.663391,94.671898 
z"/>
<path fill="#F73C42" opacity="1.000000" stroke="none" 
	d="
M162.039322,149.933868 
	C175.587494,143.111053 189.949081,139.501129 205.553955,139.088959 
	C205.733658,139.654419 205.464935,140.161758 204.841431,140.973114 
	C204.166290,141.409073 203.993912,141.647903 203.969498,141.993607 
	C203.969498,141.993607 204.007965,141.993744 203.593811,141.942871 
	C201.266159,142.384628 199.373291,142.986664 197.435791,143.352020 
	C185.642609,145.575882 173.839264,147.745880 162.039322,149.933868 
z"/>
<path fill="#C20505" opacity="1.000000" stroke="none" 
	d="
M162.014053,150.254974 
	C173.839264,147.745880 185.642609,145.575882 197.435791,143.352020 
	C199.373291,142.986664 201.266159,142.384628 203.580215,141.929138 
	C203.571915,143.176926 203.163055,144.387589 202.250641,145.984680 
	C201.497818,146.908875 201.248550,147.446625 200.999283,147.984360 
	C200.999283,147.984360 201.006409,148.003647 200.806137,148.144531 
	C200.366257,148.494919 200.165359,148.736618 200.003159,149.010468 
	C200.003159,149.010468 200.000534,148.998856 199.717300,149.052063 
	C198.957718,149.420303 198.481369,149.735321 198.005020,150.050339 
	C198.005020,150.050339 198.002014,149.998215 197.550522,150.007324 
	C193.632172,150.007355 190.147644,149.785919 186.705429,150.072678 
	C184.787811,150.232437 182.940659,151.238052 181.061752,151.862457 
	C174.999908,151.880814 168.938049,151.899170 162.401062,151.888168 
	C161.946884,151.431244 161.967834,151.003647 162.014053,150.254974 
z"/>
<path fill="#AB0606" opacity="1.000000" stroke="none" 
	d="
M181.479340,151.886444 
	C182.940659,151.238052 184.787811,150.232437 186.705429,150.072678 
	C190.147644,149.785919 193.632172,150.007355 197.569214,150.025543 
	C197.552414,150.334915 197.065399,150.635193 196.291351,150.998856 
	C191.301834,151.344986 186.599380,151.627701 181.479340,151.886444 
z"/>
<path fill="#AB0606" opacity="1.000000" stroke="none" 
	d="
M201.210205,147.778473 
	C201.248550,147.446625 201.497818,146.908875 201.990021,146.185242 
	C201.962326,146.523743 201.691727,147.048157 201.210205,147.778473 
z"/>
<path fill="#AB0606" opacity="1.000000" stroke="none" 
	d="
M198.297180,150.017319 
	C198.481369,149.735321 198.957718,149.420303 199.722229,149.056610 
	C199.536728,149.333374 199.063034,149.658844 198.297180,150.017319 
z"/>
<path fill="#C20505" opacity="1.000000" stroke="none" 
	d="
M204.170959,141.912048 
	C203.993912,141.647903 204.166290,141.409073 204.712524,141.229752 
	C204.805740,141.447342 204.617081,141.663361 204.170959,141.912048 
z"/>
<path fill="#AB0606" opacity="1.000000" stroke="none" 
	d="
M200.203598,148.881256 
	C200.165359,148.736618 200.366257,148.494919 200.795914,148.144974 
	C200.847961,148.297302 200.653992,148.546478 200.203598,148.881256 
z"/>
<path fill="#060202" opacity="1.000000" stroke="none" 
	d="
M58.082851,147.178650 
	C62.059483,147.116577 66.067963,146.706177 70.005989,147.066315 
	C77.755714,147.775009 85.060333,146.220917 92.545418,143.421875 
	C98.535065,143.085480 98.289856,148.648193 101.040596,151.856415 
	C101.208206,152.579544 101.157959,152.999603 101.069000,153.735748 
	C87.681488,153.733322 74.332695,153.414825 60.521103,153.136017 
	C59.608173,153.093781 59.158051,153.011826 58.358067,152.485840 
	C58.033089,150.420761 58.057972,148.799698 58.082851,147.178650 
z"/>
<path fill="#312625" opacity="1.000000" stroke="none" 
	d="
M57.929741,146.958618 
	C58.057972,148.799698 58.033089,150.420761 58.016701,152.446640 
	C56.006424,152.881805 53.987644,152.912155 51.539600,152.914368 
	C50.733482,150.835373 50.356636,148.784485 49.974319,146.410309 
	C51.965519,143.620682 54.127655,143.769073 56.704697,145.839630 
	C57.264256,146.245712 57.520443,146.492142 57.929741,146.958618 
z"/>
<path fill="#140C0C" opacity="1.000000" stroke="none" 
	d="
M147.020645,152.019531 
	C148.269043,153.503891 149.517456,154.988235 150.923553,156.778366 
	C149.966049,158.366653 148.850891,159.649170 147.320831,160.652161 
	C146.598862,158.957169 146.291794,157.541687 146.012634,155.793716 
	C145.709213,154.655975 145.377853,153.850739 145.286469,152.909943 
	C146.010132,152.511627 146.493805,152.248901 146.988373,151.993637 
	C146.999252,152.001099 147.020645,152.019531 147.020645,152.019531 
z"/>
<path fill="#453838" opacity="1.000000" stroke="none" 
	d="
M143.224442,161.963699 
	C142.917847,160.803955 143.014618,159.667206 143.360825,157.895844 
	C143.749817,156.525345 143.889389,155.789444 144.028961,155.053558 
	C144.028976,155.053558 144.000000,155.001602 144.158508,155.256851 
	C144.570175,155.764954 144.823318,156.017807 145.063858,156.673660 
	C145.112823,158.686981 145.174408,160.297318 145.235992,161.907654 
	C144.699951,161.933990 144.163879,161.960327 143.224442,161.963699 
z"/>
<path fill="#0A0505" opacity="1.000000" stroke="none" 
	d="
M145.500305,161.923615 
	C145.174408,160.297318 145.112823,158.686981 145.291046,156.640442 
	C145.530869,156.204208 145.984711,156.126221 145.984711,156.126221 
	C146.291794,157.541687 146.598862,158.957169 146.978714,160.731827 
	C146.622528,161.373886 146.193558,161.656738 145.500305,161.923615 
z"/>
<path fill="#140C0C" opacity="1.000000" stroke="none" 
	d="
M153.957947,151.030518 
	C151.826614,151.337631 149.695267,151.644730 147.292297,151.985687 
	C147.020645,152.019531 146.999252,152.001099 146.924652,151.749130 
	C145.963974,151.615967 145.077896,151.734772 144.191803,151.853577 
	C144.191803,151.853577 144.129059,151.848801 144.089630,151.488403 
	C144.665695,150.132263 145.281189,149.136551 145.972321,148.216339 
	C146.047943,148.291855 146.378220,148.228683 146.378220,148.228683 
	C146.378220,148.228683 146.140640,147.894592 146.066620,147.619904 
	C145.661026,146.895782 145.329422,146.446320 144.998917,145.998444 
	C145.000000,146.000000 145.003235,146.002319 145.052704,145.716766 
	C145.410141,144.953003 145.718109,144.474792 146.354416,144.001862 
	C147.120605,144.006210 147.558472,144.005295 148.106995,144.311157 
	C149.133148,145.072479 150.048630,145.527039 151.224335,146.210785 
	C152.335464,147.944199 153.186356,149.448441 154.017853,150.972595 
	C153.998459,150.992493 153.957947,151.030518 153.957947,151.030518 
z"/>
<path fill="#140C0C" opacity="1.000000" stroke="none" 
	d="
M156.962341,153.092087 
	C156.962341,153.092087 156.960693,153.556702 156.728638,153.938126 
	C156.293274,154.548355 156.138565,154.806305 156.032455,155.093399 
	C156.032455,155.093399 156.054153,155.038467 156.074265,155.060333 
	C155.372513,153.951874 154.650650,152.821533 153.943375,151.360870 
	C153.957947,151.030518 153.998459,150.992493 154.263916,150.933228 
	C155.340347,151.613327 156.151352,152.352707 156.962341,153.092087 
z"/>
<path fill="#1D1919" opacity="1.000000" stroke="none" 
	d="
M217.470825,158.687622 
	C217.168045,158.672760 217.172913,158.422684 217.161621,158.299255 
	C217.680496,157.350845 218.210678,156.525894 219.059875,155.779266 
	C219.378891,155.857590 219.405487,155.926483 219.419434,155.961258 
	C219.264862,156.655869 219.096313,157.315720 218.955688,158.302261 
	C218.580276,158.653473 218.176941,158.677979 217.470825,158.687622 
z"/>
<path fill="#140C0C" opacity="1.000000" stroke="none" 
	d="
M217.976883,151.029617 
	C218.230209,150.785645 218.483536,150.541656 218.903076,150.238007 
	C219.322800,150.810135 219.576263,151.441940 219.666763,152.485016 
	C219.503799,152.896286 219.164139,152.994049 219.058411,152.723419 
	C218.627411,151.978409 218.302139,151.504013 217.976883,151.029617 
z"/>
<path fill="#453838" opacity="1.000000" stroke="none" 
	d="
M219.164139,152.994049 
	C219.164139,152.994049 219.503799,152.896286 219.670151,152.837036 
	C219.029861,152.982834 218.223236,153.187897 217.204895,153.199951 
	C216.993179,153.006958 216.982300,153.017944 217.345795,153.021423 
	C218.194229,153.014618 218.679184,153.004333 219.164139,152.994049 
z"/>
<path fill="#453838" opacity="1.000000" stroke="none" 
	d="
M216.051208,151.316284 
	C216.064606,150.967010 216.554016,150.952454 216.798462,150.974518 
	C217.042923,150.996582 217.016144,151.008606 216.999817,151.339081 
	C216.983093,152.119019 216.982697,152.568481 216.982300,153.017944 
	C216.982300,153.017944 216.993179,153.006958 216.997681,153.002380 
	C217.002197,152.997803 216.564575,153.013901 216.347534,153.035843 
	C216.099594,152.593704 216.068695,152.129623 216.051208,151.316284 
z"/>
<path fill="#140C0C" opacity="1.000000" stroke="none" 
	d="
M116.978973,134.180054 
	C112.375580,134.443649 107.772179,134.707260 102.763725,134.971283 
	C101.328537,133.772827 100.298409,132.573975 98.581894,130.576294 
	C103.153053,129.897247 106.883942,129.343033 110.857368,128.468597 
	C111.099899,128.148407 111.472717,127.977379 111.884506,128.331253 
	C117.868263,128.639496 123.440407,128.602264 129.010986,128.488556 
	C129.123749,128.486252 129.218323,127.592743 129.321365,127.115005 
	C129.689850,127.063828 130.058350,127.012657 130.692169,126.877907 
	C132.478226,127.345901 133.998962,127.897484 135.224915,128.975937 
	C131.467377,130.589905 128.033936,131.786011 124.531952,132.727051 
	C122.062469,133.390671 119.499954,133.708069 116.978973,134.180054 
M131.741882,128.605286 
	C131.556595,128.531204 131.371292,128.457123 131.186005,128.383041 
	C131.238708,128.578079 131.291412,128.773132 131.741882,128.605286 
z"/>
<path fill="#AFAEA9" opacity="1.000000" stroke="none" 
	d="
M71.005226,133.358704 
	C71.055061,132.222076 71.169670,131.413315 71.193581,130.353668 
	C71.776741,130.092560 72.450600,130.082321 73.458771,130.078644 
	C74.363937,131.143570 74.934776,132.201950 75.578194,133.508972 
	C74.123848,133.733932 72.596916,133.710251 71.005226,133.358704 
z"/>
<path fill="#1D1919" opacity="1.000000" stroke="none" 
	d="
M87.882538,135.694672 
	C86.754608,135.597092 85.481590,135.188721 84.153290,134.428802 
	C85.311157,134.512787 86.524300,134.948334 87.882538,135.694672 
z"/>
<path fill="#1D1919" opacity="1.000000" stroke="none" 
	d="
M91.828476,134.361038 
	C91.320427,134.690125 90.658882,134.823959 89.997330,134.957779 
	C89.964600,134.747925 89.931877,134.538071 89.899147,134.328201 
	C90.491089,134.274063 91.083023,134.219910 91.828476,134.361038 
z"/>
<path fill="#3C3030" opacity="1.000000" stroke="none" 
	d="
M88.490570,137.066544 
	C88.112427,136.885071 88.093338,136.695648 88.044212,136.222122 
	C89.051964,136.189682 90.089737,136.441360 91.066071,136.954498 
	C90.286293,137.163513 89.567963,137.111053 88.490570,137.066544 
z"/>
<path fill="#AFAEA9" opacity="1.000000" stroke="none" 
	d="
M128.950287,126.990051 
	C129.218323,127.592743 129.123749,128.486252 129.010986,128.488556 
	C123.440407,128.602264 117.868263,128.639496 112.086044,128.293198 
	C111.875786,127.901260 111.911331,127.993591 112.308891,127.965073 
	C113.942825,127.936554 115.179199,127.936554 117.687889,127.936554 
	C115.388718,127.065445 114.287575,126.648247 113.186432,126.231041 
	C116.108536,126.068970 119.030632,125.906891 122.681915,126.021698 
	C124.901443,126.368484 126.391792,126.438400 127.882133,126.508316 
	C128.114502,126.627243 128.346863,126.746170 128.950287,126.990051 
z"/>
<path fill="#65666B" opacity="1.000000" stroke="none" 
	d="
M112.890640,126.303909 
	C114.287575,126.648247 115.388718,127.065445 117.687889,127.936554 
	C115.179199,127.936554 113.942825,127.936554 112.353195,127.987076 
	C112.198242,127.483994 112.396538,126.930389 112.890640,126.303909 
z"/>
<path fill="#65666B" opacity="1.000000" stroke="none" 
	d="
M127.620926,126.325172 
	C126.391792,126.438400 124.901443,126.368484 123.119980,126.059906 
	C122.828865,125.821243 122.923813,125.842934 123.240524,125.915771 
	C123.762550,125.933723 123.967873,125.878838 124.173195,125.823944 
	C125.235374,125.929970 126.297546,126.036003 127.620926,126.325172 
z"/>
<path fill="#AFAEA9" opacity="1.000000" stroke="none" 
	d="
M124.019852,125.599968 
	C123.967873,125.878838 123.762550,125.933723 123.239288,125.964447 
	C123.236397,125.752190 123.551453,125.564087 124.019852,125.599968 
z"/>
<path fill="#C20505" opacity="1.000000" stroke="none" 
	d="
M116.691002,134.350204 
	C119.499954,133.708069 122.062469,133.390671 124.531952,132.727051 
	C128.033936,131.786011 131.467377,130.589905 135.181641,129.341309 
	C136.138031,129.356094 136.842880,129.532364 137.730194,130.305359 
	C136.951004,134.264404 135.989365,137.626694 134.677063,141.063904 
	C131.514862,142.858627 128.703278,144.578461 125.891716,146.298294 
	C123.992119,143.452499 122.038170,140.694077 117.589218,141.322418 
	C115.777946,139.610092 114.331406,137.934784 112.552422,135.874435 
	C113.822418,135.427841 115.112724,134.974106 116.691002,134.350204 
z"/>
<path fill="#E82026" opacity="1.000000" stroke="none" 
	d="
M169.071320,114.927292 
	C167.261078,114.895737 165.827240,114.715958 164.127853,114.280899 
	C165.151764,111.728210 166.057236,107.914139 167.815659,107.468933 
	C170.882950,106.692337 174.570755,107.673790 177.781113,108.640366 
	C178.587036,108.883026 178.567215,111.868271 179.019302,114.036308 
	C179.531174,114.064438 180.650101,114.125916 182.113129,114.126724 
	C182.457245,114.066048 182.724670,114.323853 182.824707,114.473770 
	C178.432404,114.675484 173.940079,114.727280 169.071320,114.927292 
z"/>
<path fill="#990404" opacity="1.000000" stroke="none" 
	d="
M135.027710,140.988998 
	C135.989365,137.626694 136.951004,134.264404 138.001221,130.553497 
	C146.012985,124.144989 146.867233,124.080345 154.658844,129.098480 
	C154.742523,129.974899 154.492188,130.729263 153.805817,131.579178 
	C150.531067,130.905502 147.058456,128.768585 145.015274,129.715637 
	C142.500656,130.881180 141.177795,134.617874 139.360046,137.258301 
	C139.380234,137.273300 139.351562,137.297256 139.050720,137.412140 
	C138.548538,138.313278 138.347183,139.099503 138.055252,140.183426 
	C137.924377,140.892242 137.884064,141.303360 137.544617,141.760483 
	C136.848236,141.880753 136.451004,141.955017 135.846054,141.895660 
	C135.395920,141.535065 135.192368,141.277390 135.027710,140.988998 
z"/>
<path fill="#140C0C" opacity="1.000000" stroke="none" 
	d="
M146.474091,113.900780 
	C147.806793,113.662933 149.553329,113.495552 151.600952,113.485718 
	C150.230652,113.752594 148.559296,113.861923 146.474091,113.900780 
z"/>
<path fill="#0A0505" opacity="1.000000" stroke="none" 
	d="
M139.339844,137.243317 
	C141.177795,134.617874 142.500656,130.881180 145.015274,129.715637 
	C147.058456,128.768585 150.531067,130.905502 153.681183,131.852325 
	C154.741150,134.422943 155.489685,136.815979 156.176697,139.592346 
	C156.115158,139.975708 155.934708,139.994522 155.685211,139.821503 
	C154.611176,138.966812 153.786621,138.285172 152.962082,137.603531 
	C155.199860,143.063446 148.426147,141.071503 148.002960,143.997620 
	C148.000412,143.999634 147.996323,144.004379 147.996323,144.004379 
	C147.558472,144.005295 147.120605,144.006210 146.400391,143.710800 
	C146.177750,142.583221 146.237488,141.751968 146.297211,140.920715 
	C145.755753,140.719635 145.214294,140.518539 144.672836,140.317444 
	C143.778397,142.220734 142.883972,144.124008 141.747711,145.801666 
	C140.385880,143.679276 139.265839,141.782501 138.145813,139.885742 
	C138.347183,139.099503 138.548538,138.313278 139.263748,137.685699 
	C141.253967,138.362152 142.730316,138.879959 144.206680,139.397766 
	C144.318420,138.679611 144.430161,137.961472 144.541901,137.243317 
	C142.807892,137.243317 141.073868,137.243317 139.339844,137.243317 
M146.828430,138.484848 
	C146.828430,138.484848 147.143478,138.586334 147.143478,138.586334 
	C147.143478,138.586334 146.942566,138.353882 146.828430,138.484848 
z"/>
<path fill="#1D1919" opacity="1.000000" stroke="none" 
	d="
M157.248550,152.894272 
	C156.151352,152.352707 155.340347,151.613327 154.283295,150.913315 
	C153.186356,149.448441 152.335464,147.944199 151.248169,145.972839 
	C151.011795,145.505707 151.051956,145.028763 151.409515,145.033203 
	C156.889664,146.441864 155.970856,142.853485 155.934708,139.994522 
	C155.934708,139.994522 156.115158,139.975708 156.206879,139.983887 
	C156.587387,142.470688 156.876175,144.949310 157.243301,147.791550 
	C157.392685,149.668930 157.463715,151.182693 157.248550,152.894272 
z"/>
<path fill="#6D1C19" opacity="1.000000" stroke="none" 
	d="
M120.108582,147.349274 
	C117.102852,147.805969 114.008224,147.919510 110.456573,148.030533 
	C105.907372,148.016083 101.609726,148.449081 99.116852,141.995987 
	C103.381775,142.368973 106.806198,142.668457 110.651810,143.000732 
	C114.055229,144.357697 117.037460,145.681900 120.108582,147.349274 
z"/>
<path fill="#990404" opacity="1.000000" stroke="none" 
	d="
M89.892799,141.717163 
	C88.994766,141.716614 87.976852,141.390030 86.854324,140.754547 
	C87.757454,140.760803 88.765190,141.075974 89.892799,141.717163 
z"/>
<path fill="#D4110A" opacity="1.000000" stroke="none" 
	d="
M134.677063,141.063904 
	C135.192368,141.277390 135.395920,141.535065 135.895279,142.129333 
	C136.209030,142.810699 136.275864,143.122574 136.261200,143.875549 
	C136.176605,144.618744 136.183533,144.918671 136.042542,145.561676 
	C135.793121,146.884720 135.691635,147.864700 135.476822,149.068939 
	C135.357239,149.780792 135.350998,150.268372 135.344757,150.755936 
	C135.242828,150.969177 135.140915,151.182404 134.899048,151.723083 
	C132.705643,151.741837 130.652206,151.433136 128.186737,151.179916 
	C127.774696,151.235397 127.822914,151.123886 127.770905,150.937256 
	C127.555016,150.487686 127.350998,150.260834 127.106842,150.070068 
	C126.744507,149.026947 126.382172,147.983826 125.955780,146.619507 
	C128.703278,144.578461 131.514862,142.858627 134.677063,141.063904 
z"/>
<path fill="#A97F71" opacity="1.000000" stroke="none" 
	d="
M143.754517,154.996735 
	C143.889389,155.789444 143.749817,156.525345 143.406158,157.468628 
	C143.120041,157.036926 143.038010,156.397812 142.952454,155.438873 
	C143.125992,155.059341 143.303040,154.999619 143.754517,154.996735 
z"/>
<path fill="#1D1919" opacity="1.000000" stroke="none" 
	d="
M141.989532,146.027298 
	C142.883972,144.124008 143.778397,142.220734 144.672836,140.317444 
	C145.214294,140.518539 145.755753,140.719635 146.297211,140.920715 
	C146.237488,141.751968 146.177750,142.583221 146.072052,143.705536 
	C145.718109,144.474792 145.410141,144.953003 144.988953,145.748734 
	C144.875748,146.066269 144.856827,146.219330 144.856827,146.219330 
	C144.856827,146.219330 144.997833,145.996872 144.997833,145.996872 
	C145.329422,146.446320 145.661026,146.895782 146.003326,147.679184 
	C146.014053,148.013138 145.896683,148.140823 145.896683,148.140823 
	C145.281189,149.136551 144.665695,150.132263 144.070709,151.463257 
	C143.598999,151.659531 143.106812,151.520508 142.308289,150.860794 
	C141.950150,149.769501 141.898331,149.198914 141.915039,148.354187 
	C141.996124,147.718124 142.008713,147.356216 142.101654,146.938446 
	C142.182037,146.882614 142.314331,146.738373 142.359940,146.630341 
	C142.367996,146.270569 142.222488,146.099426 141.981201,146.002197 
	C141.993378,145.995544 141.989548,146.027298 141.989532,146.027298 
z"/>
<path fill="#1D1919" opacity="1.000000" stroke="none" 
	d="
M144.172409,152.011658 
	C145.077896,151.734772 145.963974,151.615967 146.913773,151.741669 
	C146.493805,152.248901 146.010132,152.511627 145.036957,152.764389 
	C144.380249,152.659500 144.213043,152.564606 144.045822,152.469727 
	C144.045822,152.469727 144.153015,152.169754 144.172409,152.011658 
z"/>
<path fill="#0A0505" opacity="1.000000" stroke="none" 
	d="
M141.846512,148.628326 
	C141.898331,149.198914 141.950150,149.769501 142.070145,150.766205 
	C141.731293,151.333481 141.324265,151.474655 140.683960,151.603973 
	C140.450699,151.592102 140.413345,151.384369 140.413727,151.010834 
	C140.301193,150.107513 140.188263,149.577744 140.064331,149.029404 
	C140.053329,149.010849 140.011414,149.024414 140.325775,149.004929 
	C141.042252,148.866409 141.444382,148.747360 141.846512,148.628326 
z"/>
<path fill="#A97F71" opacity="1.000000" stroke="none" 
	d="
M144.008087,152.901886 
	C144.213043,152.564606 144.380249,152.659500 144.796982,152.899963 
	C145.377853,153.850739 145.709213,154.655975 146.012634,155.793716 
	C145.984711,156.126221 145.530869,156.204208 145.303680,156.237427 
	C144.823318,156.017807 144.570175,155.764954 144.173264,155.284195 
	C144.009781,154.482208 143.990051,153.908112 144.008087,152.901886 
z"/>
<path fill="#453838" opacity="1.000000" stroke="none" 
	d="
M140.075333,149.047974 
	C140.188263,149.577744 140.301193,150.107513 140.395721,150.906860 
	C139.165298,151.369080 137.953293,151.561752 136.316864,151.505112 
	C135.892426,151.255798 135.549042,150.909988 135.446899,150.832962 
	C135.350998,150.268372 135.357239,149.780792 135.928436,149.104126 
	C137.687378,148.959320 138.881348,149.003647 140.075333,149.047974 
z"/>
<path fill="#1D1919" opacity="1.000000" stroke="none" 
	d="
M156.270050,155.004608 
	C156.138565,154.806305 156.293274,154.548355 156.656921,154.159088 
	C156.714050,154.304337 156.610840,154.610077 156.270050,155.004608 
z"/>
<path fill="#65666B" opacity="1.000000" stroke="none" 
	d="
M217.345795,153.021423 
	C216.982697,152.568481 216.983093,152.119019 216.990494,151.332550 
	C216.997498,150.995544 217.488907,150.967148 217.732895,150.998383 
	C218.302139,151.504013 218.627411,151.978409 219.058411,152.723434 
	C218.679184,153.004333 218.194229,153.014618 217.345795,153.021423 
z"/>
<path fill="#E82026" opacity="1.000000" stroke="none" 
	d="
M127.131699,150.322693 
	C127.350998,150.260834 127.555016,150.487686 127.829422,150.953522 
	C127.678818,150.962708 127.417679,150.769012 127.131699,150.322693 
z"/>
<path fill="#0A0505" opacity="1.000000" stroke="none" 
	d="
M151.051956,145.028763 
	C151.051956,145.028763 151.011795,145.505707 150.987946,145.743652 
	C150.048630,145.527039 149.133148,145.072479 148.106995,144.311157 
	C147.996323,144.004379 148.000412,143.999634 148.333435,144.019058 
	C149.461609,144.368576 150.256790,144.698669 151.051956,145.028763 
z"/>
<path fill="#1D1919" opacity="1.000000" stroke="none" 
	d="
M146.077347,147.953857 
	C146.140640,147.894592 146.378220,148.228683 146.378220,148.228683 
	C146.378220,148.228683 146.047943,148.291855 145.972321,148.216339 
	C145.896683,148.140823 146.014053,148.013138 146.077347,147.953857 
z"/>
<path fill="#A97F71" opacity="1.000000" stroke="none" 
	d="
M131.542999,128.786728 
	C131.291412,128.773132 131.238708,128.578079 131.186005,128.383041 
	C131.371292,128.457123 131.556595,128.531204 131.542999,128.786728 
z"/>
<path fill="#312625" opacity="1.000000" stroke="none" 
	d="
M138.055252,140.183426 
	C139.265839,141.782501 140.385880,143.679276 141.747726,145.801666 
	C141.989548,146.027298 141.993378,145.995544 142.056366,146.189911 
	C142.119354,146.384293 142.314331,146.738373 142.314331,146.738373 
	C142.314331,146.738373 142.182037,146.882614 141.718750,146.837540 
	C140.487885,146.682251 139.720276,146.572021 138.824417,146.469269 
	C138.509628,146.387527 138.444580,146.243515 138.354782,145.714340 
	C138.141998,144.908417 138.075439,144.432846 137.982697,143.583740 
	C137.918945,142.711639 137.881348,142.213058 137.843750,141.714493 
	C137.884064,141.303360 137.924377,140.892242 138.055252,140.183426 
z"/>
<path fill="#1D1919" opacity="1.000000" stroke="none" 
	d="
M139.360046,137.258301 
	C141.073868,137.243317 142.807892,137.243317 144.541901,137.243317 
	C144.430161,137.961472 144.318420,138.679611 144.206680,139.397766 
	C142.730316,138.879959 141.253967,138.362152 139.564575,137.570801 
	C139.351562,137.297256 139.380234,137.273300 139.360046,137.258301 
z"/>
<path fill="#1D1919" opacity="1.000000" stroke="none" 
	d="
M137.544617,141.760483 
	C137.881348,142.213058 137.918945,142.711639 137.691360,143.556229 
	C137.068359,143.745590 136.710526,143.588928 136.352707,143.432281 
	C136.275864,143.122574 136.209030,142.810699 136.102997,142.262985 
	C136.451004,141.955017 136.848236,141.880753 137.544617,141.760483 
z"/>
<path fill="#140C0C" opacity="1.000000" stroke="none" 
	d="
M151.409515,145.033203 
	C150.256790,144.698669 149.461609,144.368576 148.335968,144.017029 
	C148.426147,141.071503 155.199860,143.063446 152.962082,137.603531 
	C153.786621,138.285172 154.611176,138.966812 155.685211,139.821503 
	C155.970856,142.853485 156.889664,146.441864 151.409515,145.033203 
z"/>
<path fill="#140C0C" opacity="1.000000" stroke="none" 
	d="
M146.885498,138.419373 
	C146.942566,138.353882 147.143478,138.586334 147.143478,138.586334 
	C147.143478,138.586334 146.828430,138.484848 146.885498,138.419373 
z"/>
<path fill="#1D1919" opacity="1.000000" stroke="none" 
	d="
M138.501007,146.044693 
	C138.444580,146.243515 138.509628,146.387527 138.849060,146.824417 
	C139.338440,147.789536 139.674927,148.406967 140.011414,149.024414 
	C140.011414,149.024414 140.053329,149.010849 140.064331,149.029419 
	C138.881348,149.003647 137.687378,148.959320 136.041779,148.879837 
	C135.691635,147.864700 135.793121,146.884720 136.302399,145.769302 
	C137.307129,145.770798 137.904068,145.907745 138.501007,146.044693 
z"/>
<path fill="#65666B" opacity="1.000000" stroke="none" 
	d="
M138.354782,145.714340 
	C137.904068,145.907745 137.307129,145.770798 136.450317,145.426239 
	C136.183533,144.918671 136.176605,144.618744 136.261200,143.875549 
	C136.710526,143.588928 137.068359,143.745590 137.717529,143.929764 
	C138.075439,144.432846 138.141998,144.908417 138.354782,145.714340 
z"/>
<path fill="#A97F71" opacity="1.000000" stroke="none" 
	d="
M140.325775,149.004929 
	C139.674927,148.406967 139.338440,147.789536 138.977325,146.816956 
	C139.720276,146.572021 140.487885,146.682251 141.638382,146.893372 
	C142.008713,147.356216 141.996124,147.718124 141.915039,148.354187 
	C141.444382,148.747360 141.042252,148.866409 140.325775,149.004929 
z"/>
<path fill="#140C0C" opacity="1.000000" stroke="none" 
	d="
M142.359940,146.630341 
	C142.314331,146.738373 142.119354,146.384293 142.044189,146.196564 
	C142.222488,146.099426 142.367996,146.270569 142.359940,146.630341 
z"/>
<path fill="#140C0C" opacity="1.000000" stroke="none" 
	d="
M144.998917,145.998444 
	C144.997833,145.996872 144.856827,146.219330 144.856827,146.219330 
	C144.856827,146.219330 144.875748,146.066269 144.939484,146.034302 
	C145.003235,146.002319 145.000000,146.000000 144.998917,145.998444 
z"/>
</svg>